<svg width="56" height="56" viewBox="0 0 40 54" fill="none" xmlns="http://www.w3.org/2000/svg">
<path d="M12.081 40.5507L10.0225 45.0768L9.67383 49.5345H14.45L15.3797 49.0456L18.0718 49.1333L18.1132 50.322H23.117L23.4768 49.1333H27.2563C27.2563 49.1333 26.1976 40.4422 24.3907 39.2803C17.5306 43.631 12.0794 40.5552 12.0794 40.5552" fill="white"/>
<path d="M24.4831 45.625L24.7617 48.9371H23.4355L24.4831 45.625Z" fill="#2494D1"/>
<path d="M11.3711 41.7988C11.3711 41.7988 15.5231 44.1138 20.5014 41.7988C24.4815 39.9518 12.0811 40.5507 12.0811 40.5507L11.3711 41.7988Z" fill="#2494D1"/>
<path d="M27.2866 50.965H23.2285L23.4753 49.127H27.2564C27.2564 49.127 27.2962 50.3662 27.2898 50.965" fill="#EB2126"/>
<path d="M27.2864 51.5579H23.2283C23.1379 51.5585 23.0483 51.5411 22.9656 51.5069C22.8829 51.4727 22.809 51.4224 22.7487 51.3594C22.6885 51.2964 22.6433 51.2222 22.6162 51.1416C22.5891 51.0611 22.5807 50.9761 22.5915 50.8922L22.8431 49.0601C22.8626 48.9157 22.9382 48.783 23.0555 48.6871C23.1729 48.5912 23.3239 48.5389 23.4799 48.5401H27.2562C27.4216 48.54 27.5805 48.5999 27.6993 48.7073C27.8182 48.8146 27.8876 48.9608 27.893 49.1151C27.893 49.1151 27.9328 50.3707 27.9264 50.9769C27.9227 51.1327 27.8535 51.281 27.7338 51.3896C27.6141 51.4983 27.4534 51.5587 27.2864 51.5579V51.5579ZM23.9432 50.3692H26.6496C26.6496 50.1478 26.6401 49.9234 26.6353 49.7184H24.0371L23.9432 50.3692Z" fill="#144A8F"/>
<path d="M25.9033 39.7297C25.9033 39.7297 28.7133 36.2631 33.1216 37.2289C37.53 38.1947 38.681 35.7549 38.681 35.7549C38.681 35.7549 36.4904 43.2379 30.88 41.174C30.88 41.174 31.7413 41.8486 32.5358 42.4979C30.853 43.6257 29.3262 44.2958 26.3061 42.5989" fill="#2494D1"/>
<path d="M25.7935 39.9644C25.7935 39.9644 28.371 36.4294 31.9801 37.217C35.5893 38.0045 37.764 37.1724 37.764 37.1724C37.764 37.1724 35.2518 41.9749 31.2366 39.7549C30.5377 39.2883 29.6016 39.3924 29.1447 39.9867C28.6878 40.5811 28.8836 41.4429 29.5825 41.9095C28.5254 42.3092 27.118 41.7995 26.3634 41.33" fill="white"/>
<path d="M13.2464 41.0529C13.2464 41.0529 13.6874 39.9934 12.0826 40.5506C10.4778 41.1078 9.44141 49.5537 9.44141 49.5537H10.161C10.5558 49.5537 11.3487 49.4839 11.3216 49.1169C11.3216 49.1169 11.371 46.6205 11.5572 45.2283C11.9298 43.9489 13.2464 41.0529 13.2464 41.0529Z" fill="#2494D1"/>
<path d="M32.5499 21.0927C32.5499 29.1597 25.6611 41.8002 17.1644 41.8002C8.66767 41.8002 1.78369 29.1597 1.78369 21.0927C1.78369 13.0257 8.67245 9.7998 17.1692 9.7998C25.6659 9.7998 32.5546 13.0316 32.5546 21.0927" fill="white"/>
<path d="M17.1645 42.3927C8.3207 42.3927 1.14697 29.504 1.14697 21.0923C1.14697 13.535 6.98657 9.20508 17.1693 9.20508C27.3519 9.20508 33.1899 13.5409 33.1899 21.0923C33.1852 29.504 26.0083 42.3927 17.1645 42.3927ZM17.1645 10.3864C12.7291 10.3864 2.41424 11.4265 2.41424 21.0923C2.41424 28.8517 9.16448 41.207 17.1645 41.207C25.1645 41.207 31.9147 28.8517 31.9147 21.0923C31.9147 11.4295 21.5983 10.3864 17.1645 10.3864V10.3864Z" fill="#144A8F"/>
<path d="M3.98406 19.748C3.98406 19.748 2.47162 19.9739 1.72814 19.6856C0.728337 19.2978 2.35222 18.1328 2.35222 18.1328L3.98406 19.748Z" fill="#2494D1"/>
<path d="M20.8644 18.2424C20.8644 20.0404 19.5907 20.6407 17.2027 21.4877C14.4962 21.4877 9.03711 20.0404 9.03711 18.2424C9.03711 16.4445 14.9977 14.9854 17.7042 14.9854C20.4107 14.9854 20.8596 16.443 20.8596 18.2424" fill="#2494D1"/>
<path d="M19.487 34.4325C19.487 34.4325 18.6464 31.1635 21.2796 30.0654C20.7813 31.3225 19.7545 34.0506 20.3977 35.0135C21.0408 35.9763 19.487 34.4325 19.487 34.4325" fill="#2494D1"/>
<path d="M17.1645 42.3927C8.3207 42.3927 1.14697 29.504 1.14697 21.0923C1.14697 13.535 6.98657 9.20508 17.1693 9.20508C27.3519 9.20508 33.1899 13.5409 33.1899 21.0923C33.1852 29.504 26.0083 42.3927 17.1645 42.3927ZM17.1645 10.3864C12.7291 10.3864 2.41424 11.4265 2.41424 21.0923C2.41424 28.8517 9.16448 41.207 17.1645 41.207C25.1645 41.207 31.9147 28.8517 31.9147 21.0923C31.9147 11.4295 21.5983 10.3864 17.1645 10.3864V10.3864Z" fill="#144A8F"/>
<path d="M12.2402 23.9156C12.2402 23.9156 13.0999 27.3331 18.8472 27.8458C19.2325 27.88 19.4601 27.4386 19.2532 27.134C18.9825 26.7343 18.1196 26.0865 18.1069 25.556C19.3805 25.6942 21.4502 26.2707 22.5391 25.7209C22.6138 25.6827 22.6757 25.6258 22.7176 25.5566C22.7596 25.4874 22.7801 25.4086 22.7768 25.3291C22.7735 25.2497 22.7465 25.1726 22.6989 25.1067C22.6513 25.0407 22.585 24.9884 22.5073 24.9557C21.802 24.6585 21.837 23.55 21.5107 22.9824" fill="#2494D1"/>
<path d="M12.4106 22.8291C12.4106 22.8291 12.9058 26.5959 20.0636 26.11C19.6385 25.5959 19.1864 25.0446 19.1673 24.2957C20.5874 24.4443 22.3816 24.4844 23.2859 23.4963C22.4421 23.3581 21.4964 22.7534 21.1048 22.0684" fill="white"/>
<path d="M18.8186 26.748C12.3597 26.748 11.7993 23.0674 11.777 22.9024C11.7673 22.7518 11.8193 22.6034 11.9226 22.4872C12.0258 22.3711 12.1725 22.2959 12.3329 22.277C12.4933 22.2581 12.6554 22.2969 12.7864 22.3854C12.9173 22.474 13.0072 22.6057 13.0379 22.7539C13.0586 22.8861 13.5522 25.5622 18.8202 25.5622H18.8934C18.6672 25.1781 18.5423 24.7492 18.5289 24.3111C18.5278 24.2274 18.5457 24.1444 18.5813 24.0676C18.617 23.9907 18.6696 23.9218 18.7358 23.8653C18.8033 23.8086 18.8829 23.766 18.9694 23.7404C19.0559 23.7148 19.1472 23.7067 19.2373 23.7167C20.3836 23.8415 21.2656 23.8133 21.9024 23.6305C21.3381 23.3247 20.8689 22.8868 20.5412 22.3601C20.4815 22.2243 20.4777 22.0727 20.5306 21.9345C20.5835 21.7962 20.6894 21.6812 20.8277 21.6114C20.9661 21.5417 21.1273 21.5222 21.2801 21.5567C21.433 21.5912 21.5667 21.6773 21.6556 21.7984C21.9486 22.3096 22.7255 22.8148 23.3862 22.9232C23.4961 22.9418 23.5989 22.9871 23.6842 23.0545C23.7695 23.122 23.8343 23.2091 23.872 23.3073C23.9098 23.4055 23.9192 23.5112 23.8993 23.6138C23.8794 23.7165 23.8309 23.8124 23.7587 23.8921C22.8497 24.8876 21.3181 25.0347 19.984 24.9693C20.1478 25.2487 20.3397 25.5129 20.5571 25.7584C20.6268 25.8433 20.6707 25.9443 20.684 26.0506C20.6973 26.1569 20.6797 26.2646 20.6329 26.3623C20.5861 26.46 20.5119 26.544 20.4181 26.6057C20.3244 26.6673 20.2145 26.7041 20.1002 26.7123C19.6534 26.7371 19.2262 26.749 18.8186 26.748Z" fill="#144A8F"/>
<path d="M21.9167 17.5815C21.9167 18.7554 19.7898 20.9144 17.1645 20.9144C14.5392 20.9144 12.4106 18.7554 12.4106 17.5815C12.4106 16.4076 14.3131 1.46094 16.94 1.46094C19.5669 1.46094 21.9167 16.4091 21.9167 17.5815" fill="white"/>
<path d="M17.1644 21.5084C14.2415 21.5084 11.7754 19.0968 11.7754 17.5811C11.7754 17.4103 13.3818 0.866211 16.94 0.866211C20.5412 0.866211 22.5535 17.4147 22.5535 17.5811C22.5535 19.0968 20.0922 21.5084 17.1644 21.5084ZM16.94 2.05345C15.3081 2.05345 13.0474 15.2453 13.0474 17.5811C13.0474 18.3761 14.8289 20.3211 17.1644 20.3211C19.5 20.3211 21.2815 18.3761 21.2815 17.5811C21.2815 17.0522 20.6956 13.0432 19.7913 9.20956C18.1483 2.25405 16.9511 2.05345 16.94 2.05345Z" fill="#144A8F"/>
<path d="M20.0205 38.6084C20.0874 38.9234 19.5333 38.5921 18.9602 38.6976C18.3871 38.8031 18.005 39.3068 17.9445 38.9948C17.884 38.6827 18.2215 38.0245 18.7946 37.9175C19.3678 37.8105 19.9536 38.2949 20.0205 38.6114" fill="#144A8F"/>
<path d="M14.361 38.6084C14.2941 38.9234 14.8481 38.5921 15.4213 38.6976C15.9944 38.8031 16.3765 39.3068 16.437 38.9948C16.4975 38.6827 16.16 38.0245 15.5868 37.9175C15.0137 37.8105 14.4278 38.2949 14.361 38.6114" fill="#144A8F"/>
<path d="M8.31089 12.7323C8.31089 12.7323 4.55368 10.9968 1.07985 11.2048C-0.153983 14.5377 1.25975 17.8706 3.94552 19.1692" fill="white"/>
<path d="M3.93779 19.7642C3.83586 19.7638 3.73548 19.7409 3.64485 19.6973C0.561073 18.201 -0.80012 14.4669 0.478288 11.0107C0.519369 10.9003 0.594449 10.8036 0.69413 10.7327C0.793811 10.6619 0.913664 10.6201 1.03869 10.6125C4.64943 10.3896 8.43371 12.1266 8.59291 12.2009C8.73446 12.2758 8.83994 12.3984 8.88772 12.5435C8.9355 12.6887 8.92195 12.8454 8.84984 12.9815C8.77774 13.1176 8.65255 13.2228 8.49997 13.2755C8.34739 13.3282 8.17899 13.3244 8.02933 13.2648C7.9959 13.25 4.68605 11.7492 1.55132 11.7789C0.704357 14.5724 1.81401 17.4714 4.23072 18.6438C4.35642 18.7055 4.4564 18.8047 4.51478 18.9255C4.57316 19.0464 4.58658 19.182 4.55291 19.3107C4.51924 19.4395 4.44041 19.5541 4.32895 19.6363C4.2175 19.7184 4.07981 19.7635 3.93779 19.7642V19.7642Z" fill="#144A8F"/>
<path d="M2.30125 13.4297C2.21687 13.926 2.32513 16.0033 4.30563 17.458C4.32138 17.4736 4.34258 17.4836 4.36545 17.486C4.38832 17.4884 4.41136 17.4832 4.43048 17.4712C4.4496 17.4593 4.46355 17.4414 4.46984 17.4207C4.47613 17.4 4.47436 17.378 4.46483 17.3584C4.34002 17.0367 4.25821 16.7018 4.22125 16.3614C4.21968 16.3414 4.22417 16.3213 4.23421 16.3036C4.24425 16.2859 4.25944 16.2711 4.27804 16.261C4.29663 16.251 4.31789 16.246 4.33938 16.2466C4.36087 16.2473 4.38172 16.2536 4.39956 16.2648C4.58105 16.3792 4.80394 16.4594 5.23538 16.3748C5.26758 16.3683 5.29769 16.3548 5.32329 16.3354C5.34888 16.3161 5.36924 16.2914 5.38272 16.2633C5.3962 16.2352 5.40242 16.2046 5.40089 16.1739C5.39936 16.1432 5.39011 16.1132 5.37389 16.0865C5.27665 15.9516 5.20902 15.8001 5.17488 15.6407C5.17064 15.6137 5.17284 15.5861 5.18134 15.5599C5.18983 15.5338 5.20441 15.5097 5.22402 15.4894C5.24364 15.4691 5.26781 15.4531 5.29482 15.4425C5.32182 15.4319 5.351 15.4271 5.38026 15.4282C6.13488 15.4535 6.72394 15.5412 7.19518 15.2261" fill="#2494D1"/>
<path d="M6.92285 14.7804C5.61997 14.2115 4.24361 13.8024 2.82812 13.5635Z" fill="white"/>
<path d="M6.9228 15.3727C6.82519 15.3722 6.72893 15.3514 6.64101 15.3118C5.39329 14.7688 4.07596 14.3778 2.72141 14.1483C2.56069 14.1164 2.41943 14.0277 2.32716 13.9008C2.23489 13.7739 2.19875 13.6186 2.2263 13.4674C2.25385 13.3162 2.34295 13.1808 2.47498 13.0895C2.60701 12.9982 2.77174 12.958 2.93474 12.9774C4.41144 13.2248 5.84699 13.6519 7.20459 14.2479C7.33202 14.308 7.43411 14.4063 7.49448 14.527C7.55485 14.6478 7.57 14.784 7.5375 14.9137C7.50499 15.0434 7.42672 15.1592 7.31525 15.2425C7.20377 15.3257 7.06556 15.3716 6.9228 15.3727V15.3727Z" fill="#144A8F"/>
<path d="M26.0161 12.7323C26.0161 12.7323 29.7749 10.9968 33.2488 11.2048C34.4826 14.5377 33.0689 17.8706 30.3831 19.1692" fill="white"/>
<path d="M30.391 19.764C30.2488 19.7636 30.1109 19.7188 29.9992 19.6367C29.8874 19.5547 29.8083 19.4401 29.7745 19.3113C29.7406 19.1824 29.7539 19.0467 29.8122 18.9257C29.8706 18.8047 29.9706 18.7054 30.0964 18.6436C32.51 17.4712 33.6244 14.5722 32.7774 11.7817C29.6236 11.7342 26.3329 13.2498 26.301 13.2646C26.1514 13.3242 25.983 13.328 25.8304 13.2753C25.6778 13.2226 25.5526 13.1174 25.4805 12.9813C25.4084 12.8452 25.3949 12.6885 25.4426 12.5433C25.4904 12.3982 25.5959 12.2756 25.7374 12.2007C25.8966 12.1279 29.6905 10.3968 33.2933 10.6123C33.4183 10.6199 33.5381 10.6617 33.6378 10.7325C33.7375 10.8034 33.8126 10.9001 33.8537 11.0105C35.1273 14.4667 33.7709 18.2008 30.6855 19.6971C30.5945 19.7412 30.4935 19.7641 30.391 19.764Z" fill="#144A8F"/>
<path d="M32.0326 13.4297C32.117 13.926 32.0087 16.0033 30.0282 17.458C30.0125 17.4736 29.9913 17.4836 29.9684 17.486C29.9455 17.4884 29.9225 17.4832 29.9034 17.4712C29.8843 17.4593 29.8703 17.4414 29.864 17.4207C29.8577 17.4 29.8595 17.378 29.869 17.3584C29.9931 17.0365 30.0749 16.7017 30.1126 16.3614C30.1142 16.3414 30.1097 16.3213 30.0996 16.3036C30.0896 16.2859 30.0744 16.2711 30.0558 16.261C30.0372 16.251 30.016 16.246 29.9945 16.2466C29.973 16.2473 29.9521 16.2536 29.9343 16.2648C29.7528 16.3792 29.5299 16.4594 29.0985 16.3748C29.0663 16.3683 29.0362 16.3548 29.0106 16.3354C28.985 16.3161 28.9646 16.2914 28.9511 16.2633C28.9377 16.2352 28.9314 16.2046 28.933 16.1739C28.9345 16.1432 28.9437 16.1132 28.96 16.0865C29.0565 15.9513 29.1241 15.7999 29.159 15.6407C29.1632 15.6137 29.161 15.5861 29.1525 15.5599C29.144 15.5338 29.1294 15.5097 29.1098 15.4894C29.0902 15.4691 29.066 15.4531 29.039 15.4425C29.012 15.4319 28.9829 15.4271 28.9536 15.4282C28.199 15.4535 27.6099 15.5412 27.1387 15.2261" fill="#2494D1"/>
<path d="M27.4043 14.7804C28.7077 14.2113 30.0846 13.8022 31.5006 13.5635Z" fill="white"/>
<path d="M27.4059 15.3727C27.263 15.3719 27.1246 15.3263 27.0129 15.2432C26.9011 15.16 26.8226 15.0442 26.7899 14.9144C26.7571 14.7846 26.7722 14.6483 26.8325 14.5274C26.8929 14.4065 26.995 14.308 27.1226 14.2479C28.4812 13.6516 29.9178 13.2245 31.3956 12.9774C31.5586 12.958 31.7233 12.9982 31.8554 13.0895C31.9874 13.1808 32.0765 13.3162 32.104 13.4674C32.1316 13.6186 32.0954 13.7739 32.0032 13.9008C31.9109 14.0277 31.7696 14.1164 31.6089 14.1483C30.2539 14.3779 28.9361 14.769 27.6877 15.3118C27.5998 15.3514 27.5036 15.3722 27.4059 15.3727V15.3727Z" fill="#144A8F"/>
<path d="M29.751 33.3479C28.1319 36.6169 24.9446 38.4564 22.6314 37.4594C20.3182 36.4623 19.7562 33.0017 21.3737 29.7327C22.9912 26.4637 26.1801 24.6227 28.4933 25.6212C30.8065 26.6197 31.3701 30.0789 29.751 33.3479Z" fill="white"/>
<path d="M23.988 38.3261C23.4281 38.3285 22.8743 38.2164 22.3657 37.9977C21.0459 37.4286 20.1703 36.1997 19.8997 34.537C19.6434 32.9649 19.9634 31.17 20.7976 29.4849C22.5616 25.9188 26.1357 23.9514 28.7578 25.0837C31.3799 26.2159 32.0883 30.0362 30.3259 33.5964C29.4901 35.2814 28.2324 36.6708 26.7836 37.5073C25.8459 38.0512 24.8907 38.3261 23.988 38.3261ZM27.1562 25.9485C25.3301 25.9485 23.149 27.5651 21.9518 29.9827C21.2211 31.4597 20.9377 33.014 21.1558 34.3587C21.3596 35.6143 21.9789 36.5252 22.8975 36.9204C23.8161 37.3157 24.9671 37.1671 26.1166 36.4984C27.3552 35.7822 28.441 34.5756 29.1717 33.0987C30.6157 30.1833 30.1826 27.0064 28.226 26.161C27.8902 26.0183 27.5251 25.9458 27.1562 25.9485Z" fill="#144A8F"/>
<path d="M26.4984 31.5333C26.4987 32.0397 26.3381 32.5348 26.037 32.956C25.7358 33.3771 25.3076 33.7055 24.8065 33.8996C24.3054 34.0936 23.7539 34.1446 23.2217 34.0461C22.6895 33.9476 22.2006 33.7041 21.8168 33.3462C21.4329 32.9884 21.1714 32.5323 21.0652 32.0357C20.9591 31.5392 21.0131 31.0244 21.2204 30.5564C21.4277 30.0885 21.7791 29.6885 22.23 29.4069C22.6809 29.1253 23.2112 28.9749 23.7537 28.9746C24.4808 28.975 25.178 29.2447 25.6923 29.7244C26.2066 30.2041 26.4959 30.8547 26.4968 31.5333" fill="#144A8F"/>
<path d="M4.57789 33.3485C6.1954 36.6175 9.38266 38.457 11.6959 37.46C14.0091 36.4629 14.5727 33.0023 12.9536 29.7333C11.3345 26.4643 8.15202 24.6247 5.83401 25.6233C3.516 26.6218 2.95878 30.081 4.57789 33.35" fill="white"/>
<path d="M10.3392 38.3261C9.43653 38.3261 8.48131 38.0512 7.54201 37.5074C6.09325 36.6708 4.83554 35.2785 3.99972 33.5965C2.23733 30.0303 2.93942 26.2175 5.56788 25.0837C8.19633 23.95 11.7673 25.9247 13.5281 29.485C14.3623 31.17 14.6807 32.9649 14.4244 34.537C14.1537 36.1998 13.2781 37.4286 11.9599 37.9977C11.4518 38.2161 10.8986 38.3282 10.3392 38.3261V38.3261ZM7.17265 25.9485C6.80316 25.9455 6.43744 26.018 6.10121 26.161C4.14459 27.0065 3.71315 30.1833 5.15395 33.0987C5.88469 34.5757 6.97046 35.7822 8.21066 36.4984C9.36808 37.173 10.5112 37.3216 11.4298 36.9204C12.3484 36.5192 12.9661 35.6143 13.1715 34.3587C13.3896 33.014 13.1078 31.4597 12.3754 29.9827C11.1766 27.5652 8.99872 25.9485 7.17265 25.9485V25.9485Z" fill="#144A8F"/>
<path d="M4.57789 33.3485C6.1954 36.6175 9.38266 38.457 11.6959 37.46C14.0091 36.4629 14.5727 33.0023 12.9536 29.7333C11.3345 26.4643 8.15202 24.6247 5.83401 25.6233C3.516 26.6218 2.95878 30.081 4.57789 33.35" fill="white"/>
<path d="M10.3392 38.3261C9.43653 38.3261 8.48131 38.0512 7.54201 37.5074C6.09325 36.6708 4.83554 35.2785 3.99972 33.5965C2.23733 30.0303 2.93942 26.2175 5.56788 25.0837C8.19633 23.95 11.7673 25.9247 13.5281 29.485C14.3623 31.17 14.6807 32.9649 14.4244 34.537C14.1537 36.1998 13.2781 37.4286 11.9599 37.9977C11.4518 38.2161 10.8986 38.3282 10.3392 38.3261V38.3261ZM7.17265 25.9485C6.80316 25.9455 6.43744 26.018 6.10121 26.161C4.14459 27.0065 3.71315 30.1833 5.15395 33.0987C5.88469 34.5757 6.97046 35.7822 8.21066 36.4984C9.36808 37.173 10.5112 37.3216 11.4298 36.9204C12.3484 36.5192 12.9661 35.6143 13.1715 34.3587C13.3896 33.014 13.1078 31.4597 12.3754 29.9827C11.1766 27.5652 8.99872 25.9485 7.17265 25.9485V25.9485Z" fill="#144A8F"/>
<path d="M7.8335 31.5333C7.83318 32.0398 7.99379 32.5349 8.29502 32.9561C8.59624 33.3773 9.02454 33.7057 9.52574 33.8997C10.0269 34.0937 10.5785 34.1446 11.1108 34.046C11.643 33.9474 12.1319 33.7037 12.5157 33.3457C12.8995 32.9877 13.1609 32.5315 13.2668 32.0348C13.3728 31.5382 13.3186 31.0233 13.111 30.5554C12.9034 30.0875 12.5519 29.6876 12.1007 29.4062C11.6496 29.1248 11.1192 28.9746 10.5766 28.9746C9.84935 28.9746 9.15187 29.2441 8.63749 29.724C8.12311 30.2038 7.83392 30.8546 7.8335 31.5333Z" fill="#144A8F"/>
<path d="M13.3275 31.5333C13.3278 32.0398 13.1671 32.535 12.8659 32.9563C12.5646 33.3775 12.1362 33.7059 11.6349 33.8999C11.1336 34.0938 10.5819 34.1446 10.0496 34.0459C9.51738 33.9472 9.02846 33.7033 8.64474 33.3452C8.26102 32.987 7.99973 32.5307 7.89394 32.0339C7.78815 31.5372 7.8426 31.0223 8.05042 30.5544C8.25823 30.0865 8.61007 29.6867 9.06141 29.4055C9.51275 29.1243 10.0433 28.9743 10.586 28.9746C11.3129 28.975 12.01 29.2447 12.5241 29.7245C13.0381 30.2042 13.3271 30.8548 13.3275 31.5333" fill="#144A8F"/>
<path d="M13.3115 30.189C13.3115 30.4829 13.2182 30.7702 13.0432 31.0146C12.8683 31.2589 12.6196 31.4494 12.3287 31.5618C12.0378 31.6743 11.7177 31.7037 11.4089 31.6464C11.1001 31.589 10.8164 31.4475 10.5937 31.2397C10.3711 31.0319 10.2195 30.7672 10.158 30.4789C10.0966 30.1907 10.1281 29.8919 10.2486 29.6204C10.3691 29.3489 10.5732 29.1168 10.835 28.9535C11.0968 28.7903 11.4046 28.7031 11.7195 28.7031C12.1417 28.7031 12.5467 28.8597 12.8452 29.1383C13.1438 29.417 13.3115 29.7949 13.3115 30.189Z" fill="white"/>
<path d="M13.8417 37.2334C13.4443 37.6938 13.246 38.2763 13.2861 38.8663C13.3262 39.4563 13.6017 40.0109 14.0582 40.4207C14.7269 41.015 16.1899 41.3672 16.9398 41.4281C16.9398 41.4281 11.4727 41.0923 9.63232 38.5752C10.4283 37.8085 12.498 36.7654 13.1157 36.0298C13.7334 35.2943 15.0437 33.8649 15.9161 34.5811" fill="#2494D1"/>
<path d="M15.047 34.3908C15.047 34.3908 16.0914 28.8394 11.5557 27.251C12.5332 29.306 14.5567 33.7756 13.5871 35.4517C12.6176 37.1278 15.047 34.3908 15.047 34.3908" fill="#2494D1"/>
<path d="M17.1612 42.3929C14.1124 42.3929 11.0462 40.8698 8.29193 37.9902C8.24413 37.9388 8.20543 37.8806 8.1773 37.8178C6.54069 37.0838 4.99322 35.5889 3.99979 33.5978C2.2374 30.0317 2.94108 26.2174 5.56795 25.0836C6.88616 24.5145 8.4575 24.6884 9.98904 25.574C11.4394 26.4105 12.6955 27.8028 13.5313 29.4849C14.3496 31.1387 14.6362 32.8489 14.4452 34.32C15.2016 33.6635 16.2013 33.3061 17.2341 33.323C18.2669 33.3399 19.2525 33.7298 19.9839 34.4106L22.2477 36.5117C22.3548 36.6249 22.4117 36.7718 22.4069 36.9227C22.4021 37.0737 22.336 37.2172 22.2219 37.3243C22.1078 37.4313 21.9544 37.4938 21.7927 37.4991C21.631 37.5044 21.4733 37.452 21.3514 37.3527L19.086 35.2502C18.576 34.7757 17.8852 34.5093 17.1652 34.5093C16.4451 34.5093 15.7544 34.7757 15.2444 35.2502L13.0298 37.3081C13.0098 37.3262 12.9885 37.3431 12.9662 37.3587C12.672 37.6224 12.3331 37.8388 11.9632 37.9991C11.4758 38.2068 10.9467 38.3157 10.4109 38.3186C12.1287 39.8045 14.4563 41.2071 17.1612 41.2071C17.3301 41.2071 17.4921 41.2698 17.6115 41.3812C17.7309 41.4927 17.798 41.6439 17.798 41.8015C17.798 41.9591 17.7309 42.1103 17.6115 42.2218C17.4921 42.3333 17.3301 42.3959 17.1612 42.3959V42.3929ZM5.15402 33.0986C6.62347 36.0704 9.43501 37.7807 11.4298 36.9203C13.3865 36.0763 13.8179 32.8995 12.3851 29.9826C11.6543 28.5071 10.5685 27.2991 9.32835 26.5829C8.17093 25.9142 7.02785 25.7656 6.10924 26.1609C4.15263 27.0049 3.72118 30.1832 5.16198 33.0986H5.15402Z" fill="#144A8F"/>
<path d="M29.5472 44.07C28.592 44.07 27.589 43.8292 26.5223 43.3508C26.3773 43.2788 26.2676 43.1574 26.2162 43.0118C26.1649 42.8662 26.1758 42.7077 26.2467 42.5694C26.3176 42.4311 26.443 42.3237 26.5967 42.2697C26.7504 42.2157 26.9205 42.2192 27.0716 42.2794C29.0887 43.1799 30.4467 42.9451 31.4879 42.428C30.9386 41.9823 30.4865 41.6331 30.4849 41.6331C30.3719 41.5421 30.2968 41.4169 30.2726 41.2795C30.2484 41.1421 30.2767 41.0011 30.3525 40.8812C30.4284 40.7612 30.5469 40.6699 30.6875 40.6232C30.8281 40.5765 30.9817 40.5774 31.1217 40.6256C32.3141 41.0714 33.3776 41.0536 34.3711 40.59C35.6272 40.0045 36.5378 38.798 37.1428 37.7177C36.1876 38.0669 34.8359 38.217 32.9764 37.8113C29.0425 36.9495 26.5159 39.9659 26.4109 40.0952C26.3064 40.214 26.1567 40.2904 25.9932 40.3084C25.8297 40.3264 25.665 40.2846 25.5338 40.1918C25.4026 40.0989 25.315 39.9622 25.2895 39.8104C25.2639 39.6586 25.3023 39.5034 25.3967 39.3775C25.5225 39.2289 28.5108 35.6152 33.2678 36.6553C37.0584 37.4844 38.0614 35.5929 38.1028 35.5126C38.1701 35.3776 38.2892 35.2711 38.4366 35.2141C38.584 35.1572 38.749 35.1539 38.8988 35.2051C39.0476 35.2563 39.1705 35.3575 39.2435 35.4889C39.3165 35.6203 39.3344 35.7723 39.2936 35.9153C39.2427 36.0907 38.0041 40.2244 34.941 41.6494C34.3468 41.9311 33.6961 42.0935 33.0306 42.1264C33.0854 42.1892 33.1258 42.2617 33.1495 42.3397C33.1732 42.4176 33.1796 42.4992 33.1682 42.5794C33.1569 42.6597 33.1281 42.737 33.0836 42.8065C33.0391 42.8761 32.9799 42.9364 32.9096 42.9838C31.827 43.7104 30.7221 44.07 29.5472 44.07Z" fill="#144A8F"/>
<path d="M14.8814 49.959H9.67383V51.9709H14.8814V49.959Z" fill="#EB2126"/>
<path d="M22.9482 50.8613H17.7422V52.8732H22.9482V50.8613Z" fill="#EB2126"/>
<path d="M20.2589 53.1339C20.09 53.1339 19.928 53.0713 19.8086 52.9599C19.6892 52.8484 19.6221 52.6972 19.6221 52.5396V51.7194C19.6221 51.5617 19.6892 51.4105 19.8086 51.2991C19.928 51.1876 20.09 51.125 20.2589 51.125C20.4278 51.125 20.5898 51.1876 20.7092 51.2991C20.8286 51.4105 20.8957 51.5617 20.8957 51.7194V52.5396C20.8957 52.6972 20.8286 52.8484 20.7092 52.9599C20.5898 53.0713 20.4278 53.1339 20.2589 53.1339V53.1339Z" fill="#144A8F"/>
<path d="M9.76424 49.7408C9.76424 49.7408 10.4838 49.7408 11.0379 49.7111C11.213 49.7037 11.3388 49.9236 11.2719 50.1257C11.0156 50.9073 11.2369 51.5388 11.0426 51.7825C10.8102 52.0693 9.5127 51.625 9.5127 51.625L9.76424 49.7408Z" fill="#A62126"/>
<path d="M17.667 50.7259C17.667 50.7259 18.3802 50.6382 18.9263 50.5476C19.0982 50.5193 19.2447 50.7229 19.2129 50.9309C19.0648 51.7363 19.3721 52.3366 19.2129 52.6011C19.0202 52.9146 17.6734 52.6249 17.6734 52.6249L17.667 50.7259Z" fill="#A62126"/>
<path d="M14.7872 16.8311C14.7872 16.8311 17.4523 18.9233 19.2752 18.4656C20.3769 18.1878 19.2131 20.3973 14.9417 19.8431C10.4967 19.2636 12.8004 15.0332 12.8004 15.0332L14.7872 16.8311Z" fill="#EB2126"/>
<path d="M15.3715 12.4959C15.6771 13.1705 17.9999 14.1899 19.6158 14.1037C19.7226 14.0966 19.8289 14.1232 19.9175 14.1793C20.0062 14.2353 20.072 14.3176 20.1046 14.4128C20.4915 15.5807 20.5042 16.9254 20.1794 17.4663C19.861 17.9834 12.7701 16.7649 12.7398 13.9744C12.7096 11.1839 13.9068 11.1289 13.9068 11.1289L15.3715 12.4959Z" fill="#EB2126"/>
<path d="M15.4178 7.83179C15.6582 8.47519 17.4748 9.49749 18.6975 9.60002C18.8412 9.61269 18.978 9.6641 19.0911 9.74799C19.2041 9.83189 19.2886 9.94464 19.3343 10.0725C19.6527 10.9462 19.7466 11.8898 19.8978 12.7338C19.9934 13.2628 13.2813 12.1008 13.2559 9.31621C13.2304 6.53162 14.2111 6.4707 14.2111 6.4707L15.4178 7.83179Z" fill="#EB2126"/>
<path d="M19.4074 18.0267C17.3775 18.0267 15.5562 17.2317 14.8892 16.9033C13.6521 16.2911 12.291 15.3149 12.1524 14.4085C12.1378 14.2561 12.1867 14.1043 12.289 13.9847C12.3912 13.8651 12.539 13.7869 12.7015 13.7664C12.8639 13.7459 13.0286 13.7847 13.1612 13.8747C13.2938 13.9647 13.3841 14.0989 13.4133 14.2495C13.4563 14.4828 14.1791 15.2406 15.6533 15.9345C16.4589 16.3134 19.2657 17.4665 21.5694 16.3907C21.6445 16.3504 21.7277 16.3249 21.8138 16.3157C21.8998 16.3064 21.9871 16.3137 22.07 16.337C22.153 16.3603 22.23 16.3992 22.2963 16.4512C22.3627 16.5033 22.4169 16.5674 22.4557 16.6397C22.4946 16.712 22.5172 16.791 22.5222 16.8717C22.5272 16.9524 22.5145 17.0333 22.4849 17.1093C22.4553 17.1853 22.4094 17.2549 22.3499 17.3137C22.2905 17.3726 22.2188 17.4195 22.1393 17.4516C21.2894 17.8401 20.3537 18.0371 19.4074 18.0267V18.0267ZM19.0364 13.569C17.6889 13.5431 16.3681 13.2133 15.1869 12.6076C14.1138 12.0771 12.9278 11.2257 12.8116 10.4263C12.7951 10.2732 12.8428 10.1201 12.9448 9.99918C13.0468 9.87827 13.195 9.79899 13.3583 9.77801C13.5217 9.75703 13.6874 9.79599 13.8205 9.88669C13.9537 9.97738 14.044 10.1128 14.0724 10.2643C14.1314 10.4634 14.8255 11.1707 16.2185 11.7636C17.0352 12.1113 19.1224 12.832 20.8593 12.0177C21.0086 11.9574 21.177 11.9527 21.3298 12.0046C21.4827 12.0565 21.6085 12.1611 21.6814 12.2968C21.7543 12.4325 21.7688 12.5891 21.7219 12.7345C21.675 12.8799 21.5703 13.003 21.4293 13.0786C20.6834 13.4137 19.8641 13.5816 19.0364 13.569V13.569Z" fill="#144A8F"/>
<path d="M18.7021 6.99132C18.7336 7.11296 18.7136 7.24127 18.6463 7.3495C18.5789 7.45773 18.4695 7.53754 18.3407 7.57231C17.8461 7.7337 17.328 7.8234 16.8043 7.83829C14.9974 7.87841 14.2603 5.83083 14.2603 5.83083C14.2603 5.83083 14.9655 1.90062 16.5512 1.94073C17.0893 1.95411 18.2945 5.40883 18.7021 6.99281" fill="#EB2126"/>
<path d="M17.164 21.5084C14.241 21.5084 11.7749 19.0968 11.7749 17.5811C11.7749 17.4801 12.3767 11.2467 13.6567 6.42349C13.663 6.36936 13.6775 6.31634 13.6997 6.26599C14.5084 3.27486 15.5815 0.866211 16.9395 0.866211C20.5407 0.866211 22.553 17.4147 22.553 17.5811C22.553 19.0968 20.0917 21.5084 17.164 21.5084ZM14.6374 7.79498C13.7411 11.6583 13.0453 16.2884 13.0453 17.5811C13.0453 18.3761 14.8268 20.3211 17.1624 20.3211C19.4979 20.3211 21.2794 18.3761 21.2794 17.5811C21.2794 17.0522 20.6935 13.0432 19.7892 9.20956C19.7701 9.12486 19.7494 9.04165 19.7303 8.95993C18.4885 9.25711 16.9841 9.04908 15.5528 8.34179C15.2325 8.18268 14.9264 7.99982 14.6374 7.79498V7.79498ZM14.9638 6.45767C15.1468 6.68947 15.7773 7.20062 16.7882 7.56764C17.3805 7.78458 18.4471 8.06987 19.4422 7.80835C17.9823 2.22284 16.949 2.05493 16.9395 2.05493C16.3186 2.05345 15.6069 3.96283 14.9638 6.45618V6.45767Z" fill="#144A8F"/>
<path d="M26.481 30.189C26.481 30.4829 26.3876 30.7702 26.2126 31.0146C26.0377 31.2589 25.7891 31.4494 25.4982 31.5618C25.2073 31.6743 24.8871 31.7037 24.5783 31.6464C24.2695 31.589 23.9858 31.4475 23.7632 31.2397C23.5405 31.0319 23.3889 30.7672 23.3275 30.4789C23.266 30.1907 23.2976 29.8919 23.4181 29.6204C23.5386 29.3489 23.7426 29.1168 24.0044 28.9535C24.2662 28.7903 24.574 28.7031 24.8889 28.7031C25.3111 28.7031 25.7161 28.8597 26.0147 29.1383C26.3132 29.417 26.481 29.7949 26.481 30.189Z" fill="white"/>
<path d="M17.1895 43.8598L17.2452 43.732C17.804 43.6324 18.6223 43.9786 18.8468 44.466L19.5616 46.4096C19.658 46.6725 19.6707 46.9558 19.5982 47.2253L18.7719 50.3205L18.4615 46.7929L17.1895 43.8598Z" fill="#2494D1"/>
<path d="M12.1556 52.4774C11.9867 52.4774 11.8247 52.4148 11.7053 52.3033C11.5858 52.1918 11.5187 52.0407 11.5187 51.883V51.1534C11.5187 50.9958 11.5858 50.8446 11.7053 50.7332C11.8247 50.6217 11.9867 50.5591 12.1556 50.5591C12.3244 50.5591 12.4864 50.6217 12.6059 50.7332C12.7253 50.8446 12.7924 50.9958 12.7924 51.1534V51.883C12.7924 52.0407 12.7253 52.1918 12.6059 52.3033C12.4864 52.4148 12.3244 52.4774 12.1556 52.4774ZM14.4481 50.1282H9.67197C9.50308 50.1282 9.3411 50.0656 9.22168 49.9541C9.10225 49.8426 9.03516 49.6914 9.03516 49.5338C9.03516 49.3762 9.10225 49.225 9.22168 49.1135C9.3411 49.0021 9.50308 48.9395 9.67197 48.9395H14.4481C14.617 48.9395 14.779 49.0021 14.8984 49.1135C15.0178 49.225 15.0849 49.3762 15.0849 49.5338C15.0849 49.6914 15.0178 49.8426 14.8984 49.9541C14.779 50.0656 14.617 50.1282 14.4481 50.1282Z" fill="#144A8F"/>
<path d="M22.6392 50.9104H18.1114C17.9425 50.9104 17.7806 50.8478 17.6611 50.7363C17.5417 50.6249 17.4746 50.4737 17.4746 50.316C17.4746 50.1584 17.5417 50.0072 17.6611 49.8958C17.7806 49.7843 17.9425 49.7217 18.1114 49.7217H22.6392C22.8081 49.7217 22.9701 49.7843 23.0895 49.8958C23.2089 50.0072 23.276 50.1584 23.276 50.316C23.276 50.4737 23.2089 50.6249 23.0895 50.7363C22.9701 50.8478 22.8081 50.9104 22.6392 50.9104Z" fill="#144A8F"/>
<path d="M17.5879 44.614C18.1722 45.1593 19.1895 46.666 18.7692 47.0568C18.3489 47.4476 17.018 47.0954 16.4385 46.5501C15.8589 46.0048 15.6663 45.2692 16.0866 44.8785C16.9479 45.2098 17.0036 44.0686 17.5879 44.614" fill="#2494D1"/>
<path d="M14.3911 52.5639H9.53216C9.44507 52.564 9.35888 52.5474 9.27892 52.5152C9.19897 52.483 9.12693 52.4359 9.06728 52.3766C9.00769 52.3172 8.96182 52.2469 8.93252 52.1703C8.90321 52.0936 8.8911 52.0121 8.89693 51.9309L9.38728 45.0348C9.39178 44.9768 9.40518 44.9198 9.42708 44.8654L11.3582 40.0615C11.4231 39.9214 11.5433 39.81 11.6938 39.7504C11.8443 39.6908 12.0136 39.6874 12.1666 39.7411C12.3197 39.7948 12.4448 39.9013 12.5159 40.0387C12.5871 40.176 12.599 40.3337 12.5491 40.479L10.6514 45.1968L10.212 51.3781H13.7686L13.8593 47.5445C13.8616 47.466 13.8806 47.3887 13.915 47.3171L15.0295 44.9947C15.0607 44.9197 15.1079 44.8514 15.1683 44.7939C15.2286 44.7365 15.3009 44.6911 15.3806 44.6605C15.4603 44.6298 15.5458 44.6146 15.632 44.6158C15.7182 44.6169 15.8033 44.6344 15.882 44.6671C15.9608 44.6998 16.0316 44.7471 16.0901 44.8061C16.1487 44.8651 16.1939 44.9347 16.2228 45.0104C16.2518 45.0862 16.2639 45.1667 16.2586 45.247C16.2532 45.3273 16.2305 45.4057 16.1917 45.4776L15.1361 47.6901L15.0342 51.9844C15.0301 52.1404 14.9603 52.2887 14.8399 52.3972C14.7196 52.5056 14.5583 52.5655 14.3911 52.5639Z" fill="#144A8F"/>
<path d="M18.0686 49.127H14.7842V50.9635H18.0686V49.127Z" fill="#EB2126"/>
<path d="M18.0706 51.5575H14.7862C14.6173 51.5575 14.4554 51.4949 14.3359 51.3834C14.2165 51.272 14.1494 51.1208 14.1494 50.9632V49.1266C14.1494 48.969 14.2165 48.8178 14.3359 48.7063C14.4554 48.5948 14.6173 48.5322 14.7862 48.5322H18.0706C18.2395 48.5322 18.4015 48.5948 18.5209 48.7063C18.6403 48.8178 18.7074 48.969 18.7074 49.1266V50.9647C18.707 51.122 18.6397 51.2728 18.5204 51.384C18.401 51.4951 18.2392 51.5575 18.0706 51.5575ZM15.4215 50.3688H17.4338V49.718H15.4215V50.3688Z" fill="#144A8F"/>
<path d="M22.7494 53.1328H17.8905C17.8018 53.1331 17.714 53.1161 17.6328 53.083C17.5515 53.0498 17.4786 53.0012 17.4186 52.9402C17.3587 52.8792 17.313 52.8072 17.2846 52.7288C17.2562 52.6504 17.2457 52.5673 17.2537 52.4849L17.8093 46.886L16.6949 44.5249C16.635 44.3818 16.6369 44.2225 16.7001 44.0806C16.7634 43.9388 16.883 43.8252 17.034 43.7639C17.185 43.7026 17.3555 43.6982 17.5099 43.7518C17.6642 43.8053 17.7903 43.9125 17.8618 44.0509L19.032 46.5517C19.0764 46.6449 19.0934 46.7475 19.0813 46.8489L18.5766 51.9529H22.1906L23.2397 45.5636C23.249 45.4838 23.2754 45.4065 23.3175 45.3365C23.3596 45.2665 23.4165 45.2052 23.4846 45.1563C23.5528 45.1073 23.6309 45.0718 23.7142 45.0518C23.7975 45.0318 23.8843 45.0277 23.9693 45.0399C24.0543 45.052 24.1358 45.0801 24.2088 45.1225C24.2819 45.1649 24.345 45.2206 24.3944 45.2863C24.4437 45.3521 24.4783 45.4264 24.496 45.505C24.5137 45.5835 24.5142 45.6646 24.4974 45.7434L23.754 50.3764C23.7847 50.3749 23.8155 50.3749 23.8463 50.3764H24.6566C24.697 50.2553 24.7777 50.1494 24.8871 50.0741C24.9966 49.9989 25.1289 49.9583 25.2648 49.9583C25.4007 49.9583 25.533 49.9989 25.6425 50.0741C25.7519 50.1494 25.8327 50.2553 25.873 50.3764H26.6531C26.5353 41.6794 23.8431 39.3347 23.8145 39.3124C23.6887 39.2085 23.6119 39.0625 23.6008 38.9062C23.5898 38.7498 23.6454 38.5956 23.7556 38.4773C23.8648 38.3603 24.0187 38.2879 24.1843 38.2754C24.35 38.2629 24.5144 38.3113 24.6423 38.4104C24.7761 38.5174 27.9283 41.1192 27.9283 50.9693C27.9283 51.1269 27.8612 51.2781 27.7418 51.3896C27.6223 51.501 27.4604 51.5636 27.2915 51.5636H23.8399C23.7441 51.5637 23.6495 51.5439 23.5629 51.5057L23.3782 52.635C23.3537 52.7741 23.277 52.9005 23.1618 52.9917C23.0466 53.0829 22.9004 53.1329 22.7494 53.1328V53.1328ZM16.2618 51.2694C16.0929 51.2694 15.9309 51.2068 15.8115 51.0953C15.6921 50.9839 15.625 50.8327 15.625 50.6751V50.5458C15.625 50.3882 15.6921 50.237 15.8115 50.1255C15.9309 50.0141 16.0929 49.9514 16.2618 49.9514C16.4307 49.9514 16.5927 50.0141 16.7121 50.1255C16.8315 50.237 16.8986 50.3882 16.8986 50.5458V50.678C16.8978 50.8352 16.8303 50.9856 16.711 51.0964C16.5917 51.2072 16.4302 51.2694 16.2618 51.2694V51.2694Z" fill="#144A8F"/>
<path d="M12.081 40.5507L10.0225 45.0768L9.67383 49.5345H14.45L15.3797 49.0456L18.0718 49.1333L18.1132 50.322H23.117L23.4768 49.1333H27.2563C27.2563 49.1333 26.1976 40.4422 24.3907 39.2803C17.5306 43.631 12.0794 40.5552 12.0794 40.5552" fill="white"/>
<path d="M24.4831 45.625L24.7617 48.9371H23.4355L24.4831 45.625Z" fill="#2494D1"/>
<path d="M11.3711 41.7988C11.3711 41.7988 15.5231 44.1138 20.5014 41.7988C24.4815 39.9518 12.0811 40.5507 12.0811 40.5507L11.3711 41.7988Z" fill="#2494D1"/>
<path d="M27.2866 50.965H23.2285L23.4753 49.127H27.2564C27.2564 49.127 27.2962 50.3662 27.2898 50.965" fill="#EB2126"/>
<path d="M27.2864 51.5579H23.2283C23.1379 51.5585 23.0483 51.5411 22.9656 51.5069C22.8829 51.4727 22.809 51.4224 22.7487 51.3594C22.6885 51.2964 22.6433 51.2222 22.6162 51.1416C22.5891 51.0611 22.5807 50.9761 22.5915 50.8922L22.8431 49.0601C22.8626 48.9157 22.9382 48.783 23.0555 48.6871C23.1729 48.5912 23.3239 48.5389 23.4799 48.5401H27.2562C27.4216 48.54 27.5805 48.5999 27.6993 48.7073C27.8182 48.8146 27.8876 48.9608 27.893 49.1151C27.893 49.1151 27.9328 50.3707 27.9264 50.9769C27.9227 51.1327 27.8535 51.281 27.7338 51.3896C27.6141 51.4983 27.4534 51.5587 27.2864 51.5579V51.5579ZM23.9432 50.3692H26.6496C26.6496 50.1478 26.6401 49.9234 26.6353 49.7184H24.0371L23.9432 50.3692Z" fill="#144A8F"/>
<path d="M25.9033 39.7297C25.9033 39.7297 28.7133 36.2631 33.1216 37.2289C37.53 38.1947 38.681 35.7549 38.681 35.7549C38.681 35.7549 36.4904 43.2379 30.88 41.174C30.88 41.174 31.7413 41.8486 32.5358 42.4979C30.853 43.6257 29.3262 44.2958 26.3061 42.5989" fill="#2494D1"/>
<path d="M25.5225 40.3216C25.5225 40.3216 28.3706 36.43 31.9798 37.2175C35.5889 38.0051 37.7636 37.1729 37.7636 37.1729C37.7636 37.1729 35.2514 41.9754 31.2363 39.7554C30.5374 39.2889 29.6013 39.3929 29.1443 39.9872C28.6874 40.5816 28.8833 41.4434 29.5822 41.91C28.525 42.3097 27.1177 41.8 26.3631 41.3305" fill="white"/>
<path d="M13.2464 41.0529C13.2464 41.0529 13.6874 39.9934 12.0826 40.5506C10.4778 41.1078 9.44141 49.5537 9.44141 49.5537H10.161C10.5558 49.5537 11.3487 49.4839 11.3216 49.1169C11.3216 49.1169 11.371 46.6205 11.5572 45.2283C11.9298 43.9489 13.2464 41.0529 13.2464 41.0529Z" fill="#2494D1"/>
<path d="M32.5499 21.0927C32.5499 29.1597 25.6611 41.8002 17.1644 41.8002C8.66767 41.8002 1.78369 29.1597 1.78369 21.0927C1.78369 13.0257 8.67245 9.7998 17.1692 9.7998C25.6659 9.7998 32.5546 13.0316 32.5546 21.0927" fill="white"/>
<path d="M17.1645 42.3927C8.3207 42.3927 1.14697 29.504 1.14697 21.0923C1.14697 13.535 6.98657 9.20508 17.1693 9.20508C27.3519 9.20508 33.1899 13.5409 33.1899 21.0923C33.1852 29.504 26.0083 42.3927 17.1645 42.3927ZM17.1645 10.3864C12.7291 10.3864 2.41424 11.4265 2.41424 21.0923C2.41424 28.8517 9.16448 41.207 17.1645 41.207C25.1645 41.207 31.9147 28.8517 31.9147 21.0923C31.9147 11.4295 21.5983 10.3864 17.1645 10.3864V10.3864Z" fill="#144A8F"/>
<path d="M3.98406 19.748C3.98406 19.748 2.47162 19.9739 1.72814 19.6856C0.728337 19.2978 2.35222 18.1328 2.35222 18.1328L3.98406 19.748Z" fill="#2494D1"/>
<path d="M20.8644 18.2424C20.8644 20.0404 19.5907 20.6407 17.2027 21.4877C14.4962 21.4877 9.03711 20.0404 9.03711 18.2424C9.03711 16.4445 14.9977 14.9854 17.7042 14.9854C20.4107 14.9854 20.8596 16.443 20.8596 18.2424" fill="#2494D1"/>
<path d="M19.487 34.4325C19.487 34.4325 18.6464 31.1635 21.2796 30.0654C20.7813 31.3225 19.7545 34.0506 20.3977 35.0135C21.0408 35.9763 19.487 34.4325 19.487 34.4325" fill="#2494D1"/>
<path d="M17.1645 42.3927C8.3207 42.3927 1.14697 29.504 1.14697 21.0923C1.14697 13.535 6.98657 9.20508 17.1693 9.20508C27.3519 9.20508 33.1899 13.5409 33.1899 21.0923C33.1852 29.504 26.0083 42.3927 17.1645 42.3927ZM17.1645 10.3864C12.7291 10.3864 2.41424 11.4265 2.41424 21.0923C2.41424 28.8517 9.16448 41.207 17.1645 41.207C25.1645 41.207 31.9147 28.8517 31.9147 21.0923C31.9147 11.4295 21.5983 10.3864 17.1645 10.3864V10.3864Z" fill="#144A8F"/>
<path d="M12.2402 23.9156C12.2402 23.9156 13.0999 27.3331 18.8472 27.8458C19.2325 27.88 19.4601 27.4386 19.2532 27.134C18.9825 26.7343 18.1196 26.0865 18.1069 25.556C19.3805 25.6942 21.4502 26.2707 22.5391 25.7209C22.6138 25.6827 22.6757 25.6258 22.7176 25.5566C22.7596 25.4874 22.7801 25.4086 22.7768 25.3291C22.7735 25.2497 22.7465 25.1726 22.6989 25.1067C22.6513 25.0407 22.585 24.9884 22.5073 24.9557C21.802 24.6585 21.837 23.55 21.5107 22.9824" fill="#2494D1"/>
<path d="M12.4106 22.8291C12.4106 22.8291 12.9058 26.5959 20.0636 26.11C19.6385 25.5959 19.1864 25.0446 19.1673 24.2957C20.5874 24.4443 22.3816 24.4844 23.2859 23.4963C22.4421 23.3581 21.4964 22.7534 21.1048 22.0684" fill="white"/>
<path d="M18.8186 26.748C12.3597 26.748 11.7993 23.0674 11.777 22.9024C11.7673 22.7518 11.8193 22.6034 11.9226 22.4872C12.0258 22.3711 12.1725 22.2959 12.3329 22.277C12.4933 22.2581 12.6554 22.2969 12.7864 22.3854C12.9173 22.474 13.0072 22.6057 13.0379 22.7539C13.0586 22.8861 13.5522 25.5622 18.8202 25.5622H18.8934C18.6672 25.1781 18.5423 24.7492 18.5289 24.3111C18.5278 24.2274 18.5457 24.1444 18.5813 24.0676C18.617 23.9907 18.6696 23.9218 18.7358 23.8653C18.8033 23.8086 18.8829 23.766 18.9694 23.7404C19.0559 23.7148 19.1472 23.7067 19.2373 23.7167C20.3836 23.8415 21.2656 23.8133 21.9024 23.6305C21.3381 23.3247 20.8689 22.8868 20.5412 22.3601C20.4815 22.2243 20.4777 22.0727 20.5306 21.9345C20.5835 21.7962 20.6894 21.6812 20.8277 21.6114C20.9661 21.5417 21.1273 21.5222 21.2801 21.5567C21.433 21.5912 21.5667 21.6773 21.6556 21.7984C21.9486 22.3096 22.7255 22.8148 23.3862 22.9232C23.4961 22.9418 23.5989 22.9871 23.6842 23.0545C23.7695 23.122 23.8343 23.2091 23.872 23.3073C23.9098 23.4055 23.9192 23.5112 23.8993 23.6138C23.8794 23.7165 23.8309 23.8124 23.7587 23.8921C22.8497 24.8876 21.3181 25.0347 19.984 24.9693C20.1478 25.2487 20.3397 25.5129 20.5571 25.7584C20.6268 25.8433 20.6707 25.9443 20.684 26.0506C20.6973 26.1569 20.6797 26.2646 20.6329 26.3623C20.5861 26.46 20.5119 26.544 20.4181 26.6057C20.3244 26.6673 20.2145 26.7041 20.1002 26.7123C19.6534 26.7371 19.2262 26.749 18.8186 26.748Z" fill="#144A8F"/>
<path d="M21.9167 17.5815C21.9167 18.7554 19.7898 20.9144 17.1645 20.9144C14.5392 20.9144 12.4106 18.7554 12.4106 17.5815C12.4106 16.4076 14.3131 1.46094 16.94 1.46094C19.5669 1.46094 21.9167 16.4091 21.9167 17.5815" fill="white"/>
<path d="M17.1644 21.5084C14.2415 21.5084 11.7754 19.0968 11.7754 17.5811C11.7754 17.4103 13.3818 0.866211 16.94 0.866211C20.5412 0.866211 22.5535 17.4147 22.5535 17.5811C22.5535 19.0968 20.0922 21.5084 17.1644 21.5084ZM16.94 2.05345C15.3081 2.05345 13.0474 15.2453 13.0474 17.5811C13.0474 18.3761 14.8289 20.3211 17.1644 20.3211C19.5 20.3211 21.2815 18.3761 21.2815 17.5811C21.2815 17.0522 20.6956 13.0432 19.7913 9.20956C18.1483 2.25405 16.9511 2.05345 16.94 2.05345Z" fill="#144A8F"/>
<path d="M20.0205 38.6084C20.0874 38.9234 19.5333 38.5921 18.9602 38.6976C18.3871 38.8031 18.005 39.3068 17.9445 38.9948C17.884 38.6827 18.2215 38.0245 18.7946 37.9175C19.3678 37.8105 19.9536 38.2949 20.0205 38.6114" fill="#144A8F"/>
<path d="M14.361 38.6084C14.2941 38.9234 14.8481 38.5921 15.4213 38.6976C15.9944 38.8031 16.3765 39.3068 16.437 38.9948C16.4975 38.6827 16.16 38.0245 15.5868 37.9175C15.0137 37.8105 14.4278 38.2949 14.361 38.6114" fill="#144A8F"/>
<path d="M8.31089 12.7323C8.31089 12.7323 4.55368 10.9968 1.07985 11.2048C-0.153983 14.5377 1.25975 17.8706 3.94552 19.1692" fill="white"/>
<path d="M3.93779 19.7642C3.83586 19.7638 3.73548 19.7409 3.64485 19.6973C0.561073 18.201 -0.80012 14.4669 0.478288 11.0107C0.519369 10.9003 0.594449 10.8036 0.69413 10.7327C0.793811 10.6619 0.913664 10.6201 1.03869 10.6125C4.64943 10.3896 8.43371 12.1266 8.59291 12.2009C8.73446 12.2758 8.83994 12.3984 8.88772 12.5435C8.9355 12.6887 8.92195 12.8454 8.84984 12.9815C8.77774 13.1176 8.65255 13.2228 8.49997 13.2755C8.34739 13.3282 8.17899 13.3244 8.02933 13.2648C7.9959 13.25 4.68605 11.7492 1.55132 11.7789C0.704357 14.5724 1.81401 17.4714 4.23072 18.6438C4.35642 18.7055 4.4564 18.8047 4.51478 18.9255C4.57316 19.0464 4.58658 19.182 4.55291 19.3107C4.51924 19.4395 4.44041 19.5541 4.32895 19.6363C4.2175 19.7184 4.07981 19.7635 3.93779 19.7642V19.7642Z" fill="#144A8F"/>
<path d="M2.30125 13.4297C2.21687 13.926 2.32513 16.0033 4.30563 17.458C4.32138 17.4736 4.34258 17.4836 4.36545 17.486C4.38832 17.4884 4.41136 17.4832 4.43048 17.4712C4.4496 17.4593 4.46355 17.4414 4.46984 17.4207C4.47613 17.4 4.47436 17.378 4.46483 17.3584C4.34002 17.0367 4.25821 16.7018 4.22125 16.3614C4.21968 16.3414 4.22417 16.3213 4.23421 16.3036C4.24425 16.2859 4.25944 16.2711 4.27804 16.261C4.29663 16.251 4.31789 16.246 4.33938 16.2466C4.36087 16.2473 4.38172 16.2536 4.39956 16.2648C4.58105 16.3792 4.80394 16.4594 5.23538 16.3748C5.26758 16.3683 5.29769 16.3548 5.32329 16.3354C5.34888 16.3161 5.36924 16.2914 5.38272 16.2633C5.3962 16.2352 5.40242 16.2046 5.40089 16.1739C5.39936 16.1432 5.39011 16.1132 5.37389 16.0865C5.27665 15.9516 5.20902 15.8001 5.17488 15.6407C5.17064 15.6137 5.17284 15.5861 5.18134 15.5599C5.18983 15.5338 5.20441 15.5097 5.22402 15.4894C5.24364 15.4691 5.26781 15.4531 5.29482 15.4425C5.32182 15.4319 5.351 15.4271 5.38026 15.4282C6.13488 15.4535 6.72394 15.5412 7.19518 15.2261" fill="#2494D1"/>
<path d="M6.92285 14.7804C5.61997 14.2115 4.24361 13.8024 2.82812 13.5635Z" fill="white"/>
<path d="M6.9228 15.3727C6.82519 15.3722 6.72893 15.3514 6.64101 15.3118C5.39329 14.7688 4.07596 14.3778 2.72141 14.1483C2.56069 14.1164 2.41943 14.0277 2.32716 13.9008C2.23489 13.7739 2.19875 13.6186 2.2263 13.4674C2.25385 13.3162 2.34295 13.1808 2.47498 13.0895C2.60701 12.9982 2.77174 12.958 2.93474 12.9774C4.41144 13.2248 5.84699 13.6519 7.20459 14.2479C7.33202 14.308 7.43411 14.4063 7.49448 14.527C7.55485 14.6478 7.57 14.784 7.5375 14.9137C7.50499 15.0434 7.42672 15.1592 7.31525 15.2425C7.20377 15.3257 7.06556 15.3716 6.9228 15.3727V15.3727Z" fill="#144A8F"/>
<path d="M26.0161 12.7323C26.0161 12.7323 29.7749 10.9968 33.2488 11.2048C34.4826 14.5377 33.0689 17.8706 30.3831 19.1692" fill="white"/>
<path d="M30.391 19.764C30.2488 19.7636 30.1109 19.7188 29.9992 19.6367C29.8874 19.5547 29.8083 19.4401 29.7745 19.3113C29.7406 19.1824 29.7539 19.0467 29.8122 18.9257C29.8706 18.8047 29.9706 18.7054 30.0964 18.6436C32.51 17.4712 33.6244 14.5722 32.7774 11.7817C29.6236 11.7342 26.3329 13.2498 26.301 13.2646C26.1514 13.3242 25.983 13.328 25.8304 13.2753C25.6778 13.2226 25.5526 13.1174 25.4805 12.9813C25.4084 12.8452 25.3949 12.6885 25.4426 12.5433C25.4904 12.3982 25.5959 12.2756 25.7374 12.2007C25.8966 12.1279 29.6905 10.3968 33.2933 10.6123C33.4183 10.6199 33.5381 10.6617 33.6378 10.7325C33.7375 10.8034 33.8126 10.9001 33.8537 11.0105C35.1273 14.4667 33.7709 18.2008 30.6855 19.6971C30.5945 19.7412 30.4935 19.7641 30.391 19.764Z" fill="#144A8F"/>
<path d="M32.0326 13.4297C32.117 13.926 32.0087 16.0033 30.0282 17.458C30.0125 17.4736 29.9913 17.4836 29.9684 17.486C29.9455 17.4884 29.9225 17.4832 29.9034 17.4712C29.8843 17.4593 29.8703 17.4414 29.864 17.4207C29.8577 17.4 29.8595 17.378 29.869 17.3584C29.9931 17.0365 30.0749 16.7017 30.1126 16.3614C30.1142 16.3414 30.1097 16.3213 30.0996 16.3036C30.0896 16.2859 30.0744 16.2711 30.0558 16.261C30.0372 16.251 30.016 16.246 29.9945 16.2466C29.973 16.2473 29.9521 16.2536 29.9343 16.2648C29.7528 16.3792 29.5299 16.4594 29.0985 16.3748C29.0663 16.3683 29.0362 16.3548 29.0106 16.3354C28.985 16.3161 28.9646 16.2914 28.9511 16.2633C28.9377 16.2352 28.9314 16.2046 28.933 16.1739C28.9345 16.1432 28.9437 16.1132 28.96 16.0865C29.0565 15.9513 29.1241 15.7999 29.159 15.6407C29.1632 15.6137 29.161 15.5861 29.1525 15.5599C29.144 15.5338 29.1294 15.5097 29.1098 15.4894C29.0902 15.4691 29.066 15.4531 29.039 15.4425C29.012 15.4319 28.9829 15.4271 28.9536 15.4282C28.199 15.4535 27.6099 15.5412 27.1387 15.2261" fill="#2494D1"/>
<path d="M27.4043 14.7804C28.7077 14.2113 30.0846 13.8022 31.5006 13.5635Z" fill="white"/>
<path d="M27.4059 15.3727C27.263 15.3719 27.1246 15.3263 27.0129 15.2432C26.9011 15.16 26.8226 15.0442 26.7899 14.9144C26.7571 14.7846 26.7722 14.6483 26.8325 14.5274C26.8929 14.4065 26.995 14.308 27.1226 14.2479C28.4812 13.6516 29.9178 13.2245 31.3956 12.9774C31.5586 12.958 31.7233 12.9982 31.8554 13.0895C31.9874 13.1808 32.0765 13.3162 32.104 13.4674C32.1316 13.6186 32.0954 13.7739 32.0032 13.9008C31.9109 14.0277 31.7696 14.1164 31.6089 14.1483C30.2539 14.3779 28.9361 14.769 27.6877 15.3118C27.5998 15.3514 27.5036 15.3722 27.4059 15.3727V15.3727Z" fill="#144A8F"/>
<path d="M29.751 33.3479C28.1319 36.6169 24.9446 38.4564 22.6314 37.4594C20.3182 36.4623 19.7562 33.0017 21.3737 29.7327C22.9912 26.4637 26.1801 24.6227 28.4933 25.6212C30.8065 26.6197 31.3701 30.0789 29.751 33.3479Z" fill="white"/>
<path d="M23.988 38.3261C23.4281 38.3285 22.8743 38.2164 22.3657 37.9977C21.0459 37.4286 20.1703 36.1997 19.8997 34.537C19.6434 32.9649 19.9634 31.17 20.7976 29.4849C22.5616 25.9188 26.1357 23.9514 28.7578 25.0837C31.3799 26.2159 32.0883 30.0362 30.3259 33.5964C29.4901 35.2814 28.2324 36.6708 26.7836 37.5073C25.8459 38.0512 24.8907 38.3261 23.988 38.3261ZM27.1562 25.9485C25.3301 25.9485 23.149 27.5651 21.9518 29.9827C21.2211 31.4597 20.9377 33.014 21.1558 34.3587C21.3596 35.6143 21.9789 36.5252 22.8975 36.9204C23.8161 37.3157 24.9671 37.1671 26.1166 36.4984C27.3552 35.7822 28.441 34.5756 29.1717 33.0987C30.6157 30.1833 30.1826 27.0064 28.226 26.161C27.8902 26.0183 27.5251 25.9458 27.1562 25.9485Z" fill="#144A8F"/>
<path d="M4.57789 33.3485C6.1954 36.6175 9.38266 38.457 11.6959 37.46C14.0091 36.4629 14.5727 33.0023 12.9536 29.7333C11.3345 26.4643 8.15202 24.6247 5.83401 25.6233C3.516 26.6218 2.95878 30.081 4.57789 33.35" fill="white"/>
<path d="M10.3392 38.3261C9.43653 38.3261 8.48131 38.0512 7.54201 37.5074C6.09325 36.6708 4.83554 35.2785 3.99972 33.5965C2.23733 30.0303 2.93942 26.2175 5.56788 25.0837C8.19633 23.95 11.7673 25.9247 13.5281 29.485C14.3623 31.17 14.6807 32.9649 14.4244 34.537C14.1537 36.1998 13.2781 37.4286 11.9599 37.9977C11.4518 38.2161 10.8986 38.3282 10.3392 38.3261V38.3261ZM7.17265 25.9485C6.80316 25.9455 6.43744 26.018 6.10121 26.161C4.14459 27.0065 3.71315 30.1833 5.15395 33.0987C5.88469 34.5757 6.97046 35.7822 8.21066 36.4984C9.36808 37.173 10.5112 37.3216 11.4298 36.9204C12.3484 36.5192 12.9661 35.6143 13.1715 34.3587C13.3896 33.014 13.1078 31.4597 12.3754 29.9827C11.1766 27.5652 8.99872 25.9485 7.17265 25.9485V25.9485Z" fill="#144A8F"/>
<path d="M4.57789 33.3485C6.1954 36.6175 9.38266 38.457 11.6959 37.46C14.0091 36.4629 14.5727 33.0023 12.9536 29.7333C11.3345 26.4643 8.15202 24.6247 5.83401 25.6233C3.516 26.6218 2.95878 30.081 4.57789 33.35" fill="white"/>
<path d="M10.3392 38.3261C9.43653 38.3261 8.48131 38.0512 7.54201 37.5074C6.09325 36.6708 4.83554 35.2785 3.99972 33.5965C2.23733 30.0303 2.93942 26.2175 5.56788 25.0837C8.19633 23.95 11.7673 25.9247 13.5281 29.485C14.3623 31.17 14.6807 32.9649 14.4244 34.537C14.1537 36.1998 13.2781 37.4286 11.9599 37.9977C11.4518 38.2161 10.8986 38.3282 10.3392 38.3261V38.3261ZM7.17265 25.9485C6.80316 25.9455 6.43744 26.018 6.10121 26.161C4.14459 27.0065 3.71315 30.1833 5.15395 33.0987C5.88469 34.5757 6.97046 35.7822 8.21066 36.4984C9.36808 37.173 10.5112 37.3216 11.4298 36.9204C12.3484 36.5192 12.9661 35.6143 13.1715 34.3587C13.3896 33.014 13.1078 31.4597 12.3754 29.9827C11.1766 27.5652 8.99872 25.9485 7.17265 25.9485V25.9485Z" fill="#144A8F"/>
<path d="M13.1797 30.7837C13.0819 30.9917 12.9344 31.1761 12.7484 31.3225C12.5624 31.469 12.3429 31.5737 12.1067 31.6287C11.8706 31.6836 11.6241 31.6873 11.3862 31.6394C11.1483 31.5915 10.9253 31.4934 10.7344 31.3525C10.5435 31.2117 10.3897 31.0319 10.2849 30.8269C10.1801 30.6219 10.127 30.3972 10.1298 30.17C10.1325 29.9429 10.191 29.7194 10.3008 29.5167C10.4106 29.314 10.5687 29.1374 10.7629 29.0006C10.6993 29.0006 10.6388 28.9828 10.5735 28.9828C9.98264 28.9734 9.40386 29.1394 8.92062 29.4569C8.43738 29.7744 8.07466 30.2269 7.88476 30.7491C7.69486 31.2714 7.68759 31.8365 7.86401 32.3629C8.04043 32.8893 8.39142 33.3498 8.86635 33.678C9.34129 34.0062 9.91563 34.1851 10.5066 34.189C11.0975 34.1928 11.6745 34.0214 12.1543 33.6995C12.6341 33.3775 12.9919 32.9216 13.1762 32.3976C13.3605 31.8736 13.3617 31.3084 13.1797 30.7837V30.7837Z" fill="#144A8F"/>
<path d="M13.8417 37.2334C13.4443 37.6938 13.246 38.2763 13.2861 38.8663C13.3262 39.4563 13.6017 40.0109 14.0582 40.4207C14.7269 41.015 16.1899 41.3672 16.9398 41.4281C16.9398 41.4281 11.4727 41.0923 9.63232 38.5752C10.4283 37.8085 12.498 36.7654 13.1157 36.0298C13.7334 35.2943 15.0437 33.8649 15.9161 34.5811" fill="#2494D1"/>
<path d="M15.047 34.3908C15.047 34.3908 16.0914 28.8394 11.5557 27.251C12.5332 29.306 14.5567 33.7756 13.5871 35.4517C12.6176 37.1278 15.047 34.3908 15.047 34.3908" fill="#2494D1"/>
<path d="M17.1612 42.3929C14.1124 42.3929 11.0462 40.8698 8.29193 37.9902C8.24413 37.9388 8.20543 37.8806 8.1773 37.8178C6.54069 37.0838 4.99322 35.5889 3.99979 33.5978C2.2374 30.0317 2.94108 26.2174 5.56795 25.0836C6.88616 24.5145 8.4575 24.6884 9.98904 25.574C11.4394 26.4105 12.6955 27.8028 13.5313 29.4849C14.3496 31.1387 14.6362 32.8489 14.4452 34.32C15.2016 33.6635 16.2013 33.3061 17.2341 33.323C18.2669 33.3399 19.2525 33.7298 19.9839 34.4106L22.2477 36.5117C22.3548 36.6249 22.4117 36.7718 22.4069 36.9227C22.4021 37.0737 22.336 37.2172 22.2219 37.3243C22.1078 37.4313 21.9544 37.4938 21.7927 37.4991C21.631 37.5044 21.4733 37.452 21.3514 37.3527L19.086 35.2502C18.576 34.7757 17.8852 34.5093 17.1652 34.5093C16.4451 34.5093 15.7544 34.7757 15.2444 35.2502L13.0298 37.3081C13.0098 37.3262 12.9885 37.3431 12.9662 37.3587C12.672 37.6224 12.3331 37.8388 11.9632 37.9991C11.4758 38.2068 10.9467 38.3157 10.4109 38.3186C12.1287 39.8045 14.4563 41.2071 17.1612 41.2071C17.3301 41.2071 17.4921 41.2698 17.6115 41.3812C17.7309 41.4927 17.798 41.6439 17.798 41.8015C17.798 41.9591 17.7309 42.1103 17.6115 42.2218C17.4921 42.3333 17.3301 42.3959 17.1612 42.3959V42.3929ZM5.15402 33.0986C6.62347 36.0704 9.43501 37.7807 11.4298 36.9203C13.3865 36.0763 13.8179 32.8995 12.3851 29.9826C11.6543 28.5071 10.5685 27.2991 9.32835 26.5829C8.17093 25.9142 7.02785 25.7656 6.10924 26.1609C4.15263 27.0049 3.72118 30.1832 5.16198 33.0986H5.15402Z" fill="#144A8F"/>
<path d="M29.4215 44.0318C28.2815 44.0158 27.1599 43.762 26.1387 43.2889C25.9955 43.2161 25.8877 43.0949 25.8374 42.9502C25.7871 42.8055 25.7982 42.6482 25.8684 42.5109C25.9386 42.3736 26.0626 42.2667 26.2147 42.2121C26.3669 42.1575 26.5357 42.1595 26.6863 42.2175C28.3962 42.9798 30.0615 43.0422 31.4625 42.4137C30.9196 41.9798 30.4786 41.6321 30.477 41.6321C30.364 41.5411 30.2889 41.416 30.2647 41.2785C30.2405 41.1411 30.2688 41.0001 30.3446 40.8802C30.4205 40.7602 30.539 40.6689 30.6796 40.6222C30.8202 40.5755 30.9738 40.5764 31.1138 40.6247C32.3062 41.0704 33.3697 41.0526 34.3632 40.589C35.6193 40.0035 36.5299 38.797 37.1349 37.7167C36.1797 38.0659 34.828 38.216 32.9685 37.8104C29.0187 36.9441 26.0448 40.3825 26.0161 40.4166C25.9084 40.5308 25.7579 40.602 25.5956 40.6158C25.4333 40.6295 25.2715 40.5846 25.1436 40.4903C25.0157 40.3961 24.9313 40.2596 24.908 40.1091C24.8846 39.9586 24.9239 39.8054 25.0179 39.6811C25.158 39.5147 28.5108 35.6142 33.2599 36.6543C37.0505 37.4835 38.0535 35.5919 38.0949 35.5117C38.1622 35.3767 38.2813 35.2701 38.4287 35.2132C38.5761 35.1562 38.7411 35.153 38.8909 35.2041C39.0397 35.2554 39.1625 35.3566 39.2356 35.4879C39.3086 35.6193 39.3265 35.7713 39.2857 35.9143C39.2348 36.0897 37.9962 40.2235 34.9331 41.6484C34.3389 41.9301 33.6882 42.0926 33.0227 42.1254C33.0775 42.1882 33.1179 42.2608 33.1416 42.3387C33.1653 42.4166 33.1717 42.4982 33.1603 42.5785C33.149 42.6587 33.1202 42.736 33.0757 42.8056C33.0313 42.8751 32.972 42.9354 32.9017 42.9828C31.8899 43.6676 30.6713 44.0349 29.4215 44.0318V44.0318Z" fill="#144A8F"/>
<path d="M14.8814 49.959H9.67383V51.9709H14.8814V49.959Z" fill="#EB2126"/>
<path d="M22.9482 50.8613H17.7422V52.8732H22.9482V50.8613Z" fill="#EB2126"/>
<path d="M20.2589 53.1339C20.09 53.1339 19.928 53.0713 19.8086 52.9599C19.6892 52.8484 19.6221 52.6972 19.6221 52.5396V51.7194C19.6221 51.5617 19.6892 51.4105 19.8086 51.2991C19.928 51.1876 20.09 51.125 20.2589 51.125C20.4278 51.125 20.5898 51.1876 20.7092 51.2991C20.8286 51.4105 20.8957 51.5617 20.8957 51.7194V52.5396C20.8957 52.6972 20.8286 52.8484 20.7092 52.9599C20.5898 53.0713 20.4278 53.1339 20.2589 53.1339V53.1339Z" fill="#144A8F"/>
<path d="M9.76424 49.7408C9.76424 49.7408 10.4838 49.7408 11.0379 49.7111C11.213 49.7037 11.3388 49.9236 11.2719 50.1257C11.0156 50.9073 11.2369 51.5388 11.0426 51.7825C10.8102 52.0693 9.5127 51.625 9.5127 51.625L9.76424 49.7408Z" fill="#A62126"/>
<path d="M17.667 50.7259C17.667 50.7259 18.3802 50.6382 18.9263 50.5476C19.0982 50.5193 19.2447 50.7229 19.2129 50.9309C19.0648 51.7363 19.3721 52.3366 19.2129 52.6011C19.0202 52.9146 17.6734 52.6249 17.6734 52.6249L17.667 50.7259Z" fill="#A62126"/>
<path d="M14.7872 16.8311C14.7872 16.8311 17.4523 18.9233 19.2752 18.4656C20.3769 18.1878 19.2131 20.3973 14.9417 19.8431C10.4967 19.2636 12.8004 15.0332 12.8004 15.0332L14.7872 16.8311Z" fill="#EB2126"/>
<path d="M15.3715 12.4959C15.6771 13.1705 17.9999 14.1899 19.6158 14.1037C19.7226 14.0966 19.8289 14.1232 19.9175 14.1793C20.0062 14.2353 20.072 14.3176 20.1046 14.4128C20.4915 15.5807 20.5042 16.9254 20.1794 17.4663C19.861 17.9834 12.7701 16.7649 12.7398 13.9744C12.7096 11.1839 13.9068 11.1289 13.9068 11.1289L15.3715 12.4959Z" fill="#EB2126"/>
<path d="M15.4178 7.83179C15.6582 8.47519 17.4748 9.49749 18.6975 9.60002C18.8412 9.61269 18.978 9.6641 19.0911 9.74799C19.2041 9.83189 19.2886 9.94464 19.3343 10.0725C19.6527 10.9462 19.7466 11.8898 19.8978 12.7338C19.9934 13.2628 13.2813 12.1008 13.2559 9.31621C13.2304 6.53162 14.2111 6.4707 14.2111 6.4707L15.4178 7.83179Z" fill="#EB2126"/>
<path d="M19.4074 18.0267C17.3775 18.0267 15.5562 17.2317 14.8892 16.9033C13.6521 16.2911 12.291 15.3149 12.1524 14.4085C12.1378 14.2561 12.1867 14.1043 12.289 13.9847C12.3912 13.8651 12.539 13.7869 12.7015 13.7664C12.8639 13.7459 13.0286 13.7847 13.1612 13.8747C13.2938 13.9647 13.3841 14.0989 13.4133 14.2495C13.4563 14.4828 14.1791 15.2406 15.6533 15.9345C16.4589 16.3134 19.2657 17.4665 21.5694 16.3907C21.6445 16.3504 21.7277 16.3249 21.8138 16.3157C21.8998 16.3064 21.9871 16.3137 22.07 16.337C22.153 16.3603 22.23 16.3992 22.2963 16.4512C22.3627 16.5033 22.4169 16.5674 22.4557 16.6397C22.4946 16.712 22.5172 16.791 22.5222 16.8717C22.5272 16.9524 22.5145 17.0333 22.4849 17.1093C22.4553 17.1853 22.4094 17.2549 22.3499 17.3137C22.2905 17.3726 22.2188 17.4195 22.1393 17.4516C21.2894 17.8401 20.3537 18.0371 19.4074 18.0267V18.0267ZM19.0364 13.569C17.6889 13.5431 16.3681 13.2133 15.1869 12.6076C14.1138 12.0771 12.9278 11.2257 12.8116 10.4263C12.7951 10.2732 12.8428 10.1201 12.9448 9.99918C13.0468 9.87827 13.195 9.79899 13.3583 9.77801C13.5217 9.75703 13.6874 9.79599 13.8205 9.88669C13.9537 9.97738 14.044 10.1128 14.0724 10.2643C14.1314 10.4634 14.8255 11.1707 16.2185 11.7636C17.0352 12.1113 19.1224 12.832 20.8593 12.0177C21.0086 11.9574 21.177 11.9527 21.3298 12.0046C21.4827 12.0565 21.6085 12.1611 21.6814 12.2968C21.7543 12.4325 21.7688 12.5891 21.7219 12.7345C21.675 12.8799 21.5703 13.003 21.4293 13.0786C20.6834 13.4137 19.8641 13.5816 19.0364 13.569V13.569Z" fill="#144A8F"/>
<path d="M18.7021 6.99132C18.7336 7.11296 18.7136 7.24127 18.6463 7.3495C18.5789 7.45773 18.4695 7.53754 18.3407 7.57231C17.8461 7.7337 17.328 7.8234 16.8043 7.83829C14.9974 7.87841 14.2603 5.83083 14.2603 5.83083C14.2603 5.83083 14.9655 1.90062 16.5512 1.94073C17.0893 1.95411 18.2945 5.40883 18.7021 6.99281" fill="#EB2126"/>
<path d="M17.164 21.5084C14.241 21.5084 11.7749 19.0968 11.7749 17.5811C11.7749 17.4801 12.3767 11.2467 13.6567 6.42349C13.663 6.36936 13.6775 6.31634 13.6997 6.26599C14.5084 3.27486 15.5815 0.866211 16.9395 0.866211C20.5407 0.866211 22.553 17.4147 22.553 17.5811C22.553 19.0968 20.0917 21.5084 17.164 21.5084ZM14.6374 7.79498C13.7411 11.6583 13.0453 16.2884 13.0453 17.5811C13.0453 18.3761 14.8268 20.3211 17.1624 20.3211C19.4979 20.3211 21.2794 18.3761 21.2794 17.5811C21.2794 17.0522 20.6935 13.0432 19.7892 9.20956C19.7701 9.12486 19.7494 9.04165 19.7303 8.95993C18.4885 9.25711 16.9841 9.04908 15.5528 8.34179C15.2325 8.18268 14.9264 7.99982 14.6374 7.79498V7.79498ZM14.9638 6.45767C15.1468 6.68947 15.7773 7.20062 16.7882 7.56764C17.3805 7.78458 18.4471 8.06987 19.4422 7.80835C17.9823 2.22284 16.949 2.05493 16.9395 2.05493C16.3186 2.05345 15.6069 3.96283 14.9638 6.45618V6.45767Z" fill="#144A8F"/>
<path d="M26.3567 30.7622C26.2607 30.9716 26.1145 31.1576 25.9292 31.3059C25.744 31.4542 25.5247 31.5607 25.2883 31.6173C25.0519 31.6739 24.8047 31.679 24.5659 31.6322C24.327 31.5854 24.1029 31.488 23.9108 31.3475C23.7187 31.207 23.5638 31.0272 23.4581 30.8219C23.3523 30.6166 23.2985 30.3914 23.3009 30.1636C23.3032 29.9359 23.3617 29.7116 23.4716 29.5083C23.5816 29.305 23.7402 29.128 23.9352 28.991C23.8747 28.991 23.8174 28.9746 23.7553 28.9746C23.2127 28.9746 22.6823 29.1248 22.2312 29.4062C21.78 29.6876 21.4284 30.0875 21.2209 30.5554C21.0133 31.0233 20.9591 31.5382 21.065 32.0348C21.171 32.5315 21.4324 32.9877 21.8162 33.3457C22.2 33.7037 22.6889 33.9474 23.2211 34.046C23.7533 34.1446 24.3049 34.0937 24.8061 33.8997C25.3073 33.7057 25.7356 33.3773 26.0369 32.9561C26.3381 32.5349 26.4987 32.0398 26.4984 31.5333C26.4947 31.2709 26.4469 31.0107 26.3567 30.7622V30.7622Z" fill="#144A8F"/>
<path d="M17.1895 43.8598L17.2452 43.732C17.804 43.6324 18.6223 43.9786 18.8468 44.466L19.5616 46.4096C19.658 46.6725 19.6707 46.9558 19.5982 47.2253L18.7719 50.3205L18.4615 46.7929L17.1895 43.8598Z" fill="#2494D1"/>
<path d="M12.1556 52.4774C11.9867 52.4774 11.8247 52.4148 11.7053 52.3033C11.5858 52.1918 11.5187 52.0407 11.5187 51.883V51.1534C11.5187 50.9958 11.5858 50.8446 11.7053 50.7332C11.8247 50.6217 11.9867 50.5591 12.1556 50.5591C12.3244 50.5591 12.4864 50.6217 12.6059 50.7332C12.7253 50.8446 12.7924 50.9958 12.7924 51.1534V51.883C12.7924 52.0407 12.7253 52.1918 12.6059 52.3033C12.4864 52.4148 12.3244 52.4774 12.1556 52.4774ZM14.4481 50.1282H9.67197C9.50308 50.1282 9.3411 50.0656 9.22168 49.9541C9.10225 49.8426 9.03516 49.6914 9.03516 49.5338C9.03516 49.3762 9.10225 49.225 9.22168 49.1135C9.3411 49.0021 9.50308 48.9395 9.67197 48.9395H14.4481C14.617 48.9395 14.779 49.0021 14.8984 49.1135C15.0178 49.225 15.0849 49.3762 15.0849 49.5338C15.0849 49.6914 15.0178 49.8426 14.8984 49.9541C14.779 50.0656 14.617 50.1282 14.4481 50.1282Z" fill="#144A8F"/>
<path d="M22.6392 50.9104H18.1114C17.9425 50.9104 17.7806 50.8478 17.6611 50.7363C17.5417 50.6249 17.4746 50.4737 17.4746 50.316C17.4746 50.1584 17.5417 50.0072 17.6611 49.8958C17.7806 49.7843 17.9425 49.7217 18.1114 49.7217H22.6392C22.8081 49.7217 22.9701 49.7843 23.0895 49.8958C23.2089 50.0072 23.276 50.1584 23.276 50.316C23.276 50.4737 23.2089 50.6249 23.0895 50.7363C22.9701 50.8478 22.8081 50.9104 22.6392 50.9104Z" fill="#144A8F"/>
<path d="M17.5879 44.614C18.1722 45.1593 19.1895 46.666 18.7692 47.0568C18.3489 47.4476 17.018 47.0954 16.4385 46.5501C15.8589 46.0048 15.6663 45.2692 16.0866 44.8785C16.9479 45.2098 17.0036 44.0686 17.5879 44.614" fill="#2494D1"/>
<path d="M14.3911 52.5639H9.53216C9.44507 52.564 9.35888 52.5474 9.27892 52.5152C9.19897 52.483 9.12693 52.4359 9.06728 52.3766C9.00769 52.3172 8.96182 52.2469 8.93252 52.1703C8.90321 52.0936 8.8911 52.0121 8.89693 51.9309L9.38728 45.0348C9.39178 44.9768 9.40518 44.9198 9.42708 44.8654L11.3582 40.0615C11.4231 39.9214 11.5433 39.81 11.6938 39.7504C11.8443 39.6908 12.0136 39.6874 12.1666 39.7411C12.3197 39.7948 12.4448 39.9013 12.5159 40.0387C12.5871 40.176 12.599 40.3337 12.5491 40.479L10.6514 45.1968L10.212 51.3781H13.7686L13.8593 47.5445C13.8616 47.466 13.8806 47.3887 13.915 47.3171L15.0295 44.9947C15.0607 44.9197 15.1079 44.8514 15.1683 44.7939C15.2286 44.7365 15.3009 44.6911 15.3806 44.6605C15.4603 44.6298 15.5458 44.6146 15.632 44.6158C15.7182 44.6169 15.8033 44.6344 15.882 44.6671C15.9608 44.6998 16.0316 44.7471 16.0901 44.8061C16.1487 44.8651 16.1939 44.9347 16.2228 45.0104C16.2518 45.0862 16.2639 45.1667 16.2586 45.247C16.2532 45.3273 16.2305 45.4057 16.1917 45.4776L15.1361 47.6901L15.0342 51.9844C15.0301 52.1404 14.9603 52.2887 14.8399 52.3972C14.7196 52.5056 14.5583 52.5655 14.3911 52.5639Z" fill="#144A8F"/>
<path d="M18.0686 49.127H14.7842V50.9635H18.0686V49.127Z" fill="#EB2126"/>
<path d="M18.0706 51.5575H14.7862C14.6173 51.5575 14.4554 51.4949 14.3359 51.3834C14.2165 51.272 14.1494 51.1208 14.1494 50.9632V49.1266C14.1494 48.969 14.2165 48.8178 14.3359 48.7063C14.4554 48.5948 14.6173 48.5322 14.7862 48.5322H18.0706C18.2395 48.5322 18.4015 48.5948 18.5209 48.7063C18.6403 48.8178 18.7074 48.969 18.7074 49.1266V50.9647C18.707 51.122 18.6397 51.2728 18.5204 51.384C18.401 51.4951 18.2392 51.5575 18.0706 51.5575ZM15.4215 50.3688H17.4338V49.718H15.4215V50.3688Z" fill="#144A8F"/>
<path d="M22.7494 53.1328H17.8905C17.8018 53.1331 17.714 53.1161 17.6328 53.083C17.5515 53.0498 17.4786 53.0012 17.4186 52.9402C17.3587 52.8792 17.313 52.8072 17.2846 52.7288C17.2562 52.6504 17.2457 52.5673 17.2537 52.4849L17.8093 46.886L16.6949 44.5249C16.635 44.3818 16.6369 44.2225 16.7001 44.0806C16.7634 43.9388 16.883 43.8252 17.034 43.7639C17.185 43.7026 17.3555 43.6982 17.5099 43.7518C17.6642 43.8053 17.7903 43.9125 17.8618 44.0509L19.032 46.5517C19.0764 46.6449 19.0934 46.7475 19.0813 46.8489L18.5766 51.9529H22.1906L23.2397 45.5636C23.249 45.4838 23.2754 45.4065 23.3175 45.3365C23.3596 45.2665 23.4165 45.2052 23.4846 45.1563C23.5528 45.1073 23.6309 45.0718 23.7142 45.0518C23.7975 45.0318 23.8843 45.0277 23.9693 45.0399C24.0543 45.052 24.1358 45.0801 24.2088 45.1225C24.2819 45.1649 24.345 45.2206 24.3944 45.2863C24.4437 45.3521 24.4783 45.4264 24.496 45.505C24.5137 45.5835 24.5142 45.6646 24.4974 45.7434L23.754 50.3764C23.7847 50.3749 23.8155 50.3749 23.8463 50.3764H24.6566C24.697 50.2553 24.7777 50.1494 24.8871 50.0741C24.9966 49.9989 25.1289 49.9583 25.2648 49.9583C25.4007 49.9583 25.533 49.9989 25.6425 50.0741C25.7519 50.1494 25.8327 50.2553 25.873 50.3764H26.6531C26.5353 41.6794 23.8431 39.3347 23.8145 39.3124C23.6887 39.2085 23.6119 39.0625 23.6008 38.9062C23.5898 38.7498 23.6454 38.5956 23.7556 38.4773C23.8648 38.3603 24.0187 38.2879 24.1843 38.2754C24.35 38.2629 24.5144 38.3113 24.6423 38.4104C24.7761 38.5174 27.9283 41.1192 27.9283 50.9693C27.9283 51.1269 27.8612 51.2781 27.7418 51.3896C27.6223 51.501 27.4604 51.5636 27.2915 51.5636H23.8399C23.7441 51.5637 23.6495 51.5439 23.5629 51.5057L23.3782 52.635C23.3537 52.7741 23.277 52.9005 23.1618 52.9917C23.0466 53.0829 22.9004 53.1329 22.7494 53.1328V53.1328ZM16.2618 51.2694C16.0929 51.2694 15.9309 51.2068 15.8115 51.0953C15.6921 50.9839 15.625 50.8327 15.625 50.6751V50.5458C15.625 50.3882 15.6921 50.237 15.8115 50.1255C15.9309 50.0141 16.0929 49.9514 16.2618 49.9514C16.4307 49.9514 16.5927 50.0141 16.7121 50.1255C16.8315 50.237 16.8986 50.3882 16.8986 50.5458V50.678C16.8978 50.8352 16.8303 50.9856 16.711 51.0964C16.5917 51.2072 16.4302 51.2694 16.2618 51.2694V51.2694Z" fill="#144A8F"/>
</svg>
