<svg width="80" height="80" viewBox="0 0 80 80" fill="none" xmlns="http://www.w3.org/2000/svg">
<g clip-path="url(#clip0_5798_9119)">
<path d="M0 4C0 1.79086 1.79086 0 4 0H76C78.2091 0 80 1.79086 80 4V76C80 78.2091 78.2091 80 76 80H4C1.79086 80 0 78.2091 0 76V4Z" fill="black"/>
<path d="M66.3809 25.5662C66.9951 24.5632 67.6857 23.3987 68.2743 22.4722C68.5262 22.0449 68.6005 21.5359 68.4813 21.0544C68.3621 20.5729 68.0589 20.1573 67.6368 19.8967L55.3309 12.3232C55.1249 12.1843 54.8935 12.0873 54.6499 12.0378C54.4064 11.9884 54.1555 11.9874 53.9116 12.035C53.6676 12.0825 53.4355 12.1777 53.2283 12.315C53.0212 12.4524 52.8432 12.6292 52.7044 12.8354C52.6791 12.8716 52.6557 12.9092 52.6343 12.948C52.1413 13.7704 51.5081 14.8414 50.8153 15.9867C45.9406 24.0341 41.0403 23.0481 32.1939 18.8257L20.0283 13.0521C19.804 12.9451 19.5607 12.8833 19.3125 12.8703C19.0643 12.8574 18.8159 12.8935 18.5817 12.9766C18.3474 13.0597 18.1318 13.1881 17.9472 13.3546C17.7627 13.521 17.6127 13.7223 17.5059 13.9467L17.4826 13.9977L11.6218 27.2535C11.4229 27.7083 11.4105 28.223 11.5874 28.6869C11.7643 29.1507 12.1162 29.5265 12.5674 29.7334C15.1429 30.9446 20.2642 33.3586 24.8754 35.5835C41.4993 43.6309 55.5966 43.0911 66.3809 25.5662Z" fill="url(#paint0_linear_5798_9119)"/>
<path d="M13.6382 55.6021C13.0241 56.6051 12.3335 57.7696 11.7448 58.6961C11.493 59.1234 11.4186 59.6325 11.5378 60.114C11.657 60.5955 11.9602 61.0111 12.3823 61.2716L24.6903 68.8451C24.9018 68.9759 25.137 69.0638 25.3824 69.1036C25.6279 69.1434 25.8788 69.1345 26.1208 69.0772C26.3627 69.02 26.5911 68.9156 26.7926 68.77C26.9942 68.6244 27.1651 68.4405 27.2956 68.2288L27.3126 68.2012C27.8035 67.3788 28.4388 66.3078 29.1295 65.1625C34.0042 57.1151 38.9045 58.1011 47.7508 62.3235L59.9547 68.1268C60.1795 68.2339 60.4231 68.2956 60.6718 68.3085C60.9204 68.3214 61.1691 68.2851 61.4038 68.2019C61.6384 68.1186 61.8543 67.9899 62.0392 67.8232C62.2241 67.6564 62.3743 67.4549 62.4813 67.2301L62.5047 67.1791L68.3591 53.9297C68.558 53.4749 68.5704 52.9602 68.3935 52.4964C68.2166 52.0325 67.8647 51.6567 67.4135 51.4498C64.838 50.2386 59.7167 47.8225 55.1055 45.5976C38.5198 37.5375 24.4226 38.0581 13.6382 55.6021Z" fill="url(#paint1_linear_5798_9119)"/>
</g>
<defs>
<linearGradient id="paint0_linear_5798_9119" x1="11.9873" y1="8.40687" x2="49.2322" y2="29.812" gradientUnits="userSpaceOnUse">
<stop offset="0.18" stop-color="#0052CC"/>
<stop offset="1" stop-color="#2684FF"/>
</linearGradient>
<linearGradient id="paint1_linear_5798_9119" x1="68.0212" y1="72.7678" x2="30.787" y2="51.3712" gradientUnits="userSpaceOnUse">
<stop offset="0.18" stop-color="#0052CC"/>
<stop offset="1" stop-color="#2684FF"/>
</linearGradient>
<clipPath id="clip0_5798_9119">
<path d="M0 4C0 1.79086 1.79086 0 4 0H76C78.2091 0 80 1.79086 80 4V76C80 78.2091 78.2091 80 76 80H4C1.79086 80 0 78.2091 0 76V4Z" fill="white"/>
</clipPath>
</defs>
</svg>
