<svg width="80" height="80" viewBox="0 0 80 80" fill="none" xmlns="http://www.w3.org/2000/svg">
<g clip-path="url(#clip0_5466_23075)">
<path d="M0 4C0 1.79086 1.79086 0 4 0H76C78.2091 0 80 1.79086 80 4V76C80 78.2091 78.2091 80 76 80H4C1.79086 80 0 78.2091 0 76V4Z" fill="#111928"/>
<rect width="54" height="54" transform="translate(13 11)" fill="white" fill-opacity="0.01" style="mix-blend-mode:multiply"/>
<path d="M61.1003 24.7299L40.8503 12.9174C40.5922 12.7668 40.2988 12.6875 40 12.6875C39.7012 12.6875 39.4078 12.7668 39.1497 12.9174L18.8997 24.7299C18.6449 24.8785 18.4336 25.0913 18.2867 25.3471C18.1398 25.6028 18.0625 25.8926 18.0625 26.1876V49.8126C18.0625 50.1075 18.1398 50.3973 18.2867 50.6531C18.4336 50.9088 18.6449 51.1216 18.8997 51.2702L39.1497 63.0827C39.4078 63.2333 39.7012 63.3126 40 63.3126C40.2988 63.3126 40.5922 63.2333 40.8503 63.0827L61.1003 51.2702C61.3551 51.1216 61.5664 50.9088 61.7133 50.6531C61.8602 50.3973 61.9375 50.1075 61.9375 49.8126V26.1876C61.9375 25.8926 61.8602 25.6028 61.7133 25.3471C61.5664 25.0913 61.3551 24.8785 61.1003 24.7299ZM40 16.3287L56.9013 26.1876L40 36.0464L23.0987 26.1876L40 16.3287ZM21.4375 29.1258L38.3125 38.969V58.6868L21.4375 48.8436V29.1258ZM41.6875 58.6868V38.969L58.5625 29.1258V48.8436L41.6875 58.6868Z" fill="#3F83F8"/>
</g>
<defs>
<clipPath id="clip0_5466_23075">
<path d="M0 4C0 1.79086 1.79086 0 4 0H76C78.2091 0 80 1.79086 80 4V76C80 78.2091 78.2091 80 76 80H4C1.79086 80 0 78.2091 0 76V4Z" fill="white"/>
</clipPath>
</defs>
</svg>
