<svg width="80" height="80" viewBox="0 0 80 80" fill="none" xmlns="http://www.w3.org/2000/svg">
<g clip-path="url(#clip0_5795_8428)">
<path d="M0 4C0 1.79086 1.79086 0 4 0H76C78.2091 0 80 1.79086 80 4V76C80 78.2091 78.2091 80 76 80H4C1.79086 80 0 78.2091 0 76V4Z" fill="black"/>
<g clip-path="url(#clip1_5795_8428)">
<path d="M71.5423 32.633L71.4514 32.4008L62.6564 9.44769C62.4775 8.99782 62.1606 8.61619 61.7513 8.35757C61.3418 8.10334 60.8641 7.98089 60.3828 8.00676C59.9014 8.03263 59.4396 8.20558 59.0597 8.50224C58.684 8.80743 58.4114 9.22096 58.2791 9.68657L52.3406 27.8553H28.294L22.3555 9.68657C22.2268 9.21843 21.9536 8.80282 21.575 8.49888C21.195 8.20221 20.7332 8.02927 20.2519 8.0034C19.7705 7.97752 19.2928 8.09997 18.8833 8.3542C18.4749 8.61387 18.1584 8.99516 17.9782 9.44432L9.16642 32.3874L9.07894 32.6195C7.81286 35.9276 7.65658 39.5576 8.63367 42.9622C9.61076 46.3669 11.6682 49.3616 14.4959 51.4948L14.5262 51.5183L14.6069 51.5755L28.0047 61.6087L34.6329 66.6253L38.6704 69.6736C39.1426 70.0321 39.7193 70.2262 40.3123 70.2262C40.9053 70.2262 41.4819 70.0321 41.9542 69.6736L45.9917 66.6253L52.6199 61.6087L66.0984 51.515L66.132 51.488C68.9533 49.3544 71.006 46.3628 71.9816 42.9628C72.9572 39.5627 72.803 35.9379 71.5423 32.633Z" fill="#E24329"/>
<path d="M71.5424 32.6325L71.4516 32.4004C67.1661 33.28 63.1278 35.0953 59.6251 37.7164L40.3091 52.322C46.8868 57.2982 52.6133 61.6217 52.6133 61.6217L66.0918 51.528L66.1255 51.5011C68.9508 49.3676 71.0067 46.374 71.9836 42.9711C72.9606 39.5681 72.8058 35.9399 71.5424 32.6325Z" fill="#FC6D26"/>
<path d="M28.0046 61.6229L34.6329 66.6395L38.6703 69.6878C39.1426 70.0464 39.7193 70.2405 40.3123 70.2405C40.9052 70.2405 41.4819 70.0464 41.9542 69.6878L45.9917 66.6395L52.6199 61.6229C52.6199 61.6229 46.8866 57.286 40.3089 52.3232C33.7311 57.286 28.0046 61.6229 28.0046 61.6229Z" fill="#FCA326"/>
<path d="M20.9895 37.7172C17.4897 35.0906 13.4522 33.2707 9.16642 32.3877L9.07894 32.6199C7.81286 35.9279 7.65658 39.5579 8.63367 42.9626C9.61076 46.3672 11.6682 49.3619 14.4959 51.4951L14.5262 51.5187L14.6069 51.5759L28.0047 61.609C28.0047 61.609 33.7244 57.2855 40.3089 52.3093L20.9895 37.7172Z" fill="#FC6D26"/>
</g>
</g>
<defs>
<clipPath id="clip0_5795_8428">
<path d="M0 4C0 1.79086 1.79086 0 4 0H76C78.2091 0 80 1.79086 80 4V76C80 78.2091 78.2091 80 76 80H4C1.79086 80 0 78.2091 0 76V4Z" fill="white"/>
</clipPath>
<clipPath id="clip1_5795_8428">
<rect width="80" height="80" fill="white"/>
</clipPath>
</defs>
</svg>
