<svg width="80" height="80" viewBox="0 0 80 80" fill="none" xmlns="http://www.w3.org/2000/svg">
<g clip-path="url(#clip0_6039_10098)">
<path d="M0 4C0 1.79086 1.79086 0 4 0H76C78.2091 0 80 1.79086 80 4V76C80 78.2091 78.2091 80 76 80H4C1.79086 80 0 78.2091 0 76V4Z" fill="#111928"/>
<g clip-path="url(#clip1_6039_10098)">
<g clip-path="url(#clip2_6039_10098)">
<mask id="mask0_6039_10098" style="mask-type:luminance" maskUnits="userSpaceOnUse" x="8" y="8" width="64" height="64">
<path d="M72 8H8V72H72V8Z" fill="white"/>
</mask>
<g mask="url(#mask0_6039_10098)">
<path fill-rule="evenodd" clip-rule="evenodd" d="M8 8C20.8788 8.03684 27.8665 10.2915 40 16C52.1336 10.2915 59.1212 8.03684 72 8V64C59.0688 64.1316 52.0884 66.446 40 72C27.9116 66.446 20.9311 64.1316 8 64V8ZM60.0292 35.6835L60.0852 35.8328C60.8976 37.9589 60.9972 40.2915 60.3684 42.479C59.74 44.6666 58.4172 46.5905 56.6 47.9608L56.576 47.9794L47.9145 54.462L43.6478 57.686L41.0558 59.646C40.7517 59.8756 40.3809 60 39.9998 60C39.6186 60 39.2479 59.8756 38.9438 59.646L36.3518 57.686L32.0851 54.462L23.4851 48.0168L23.4371 47.9794L23.4158 47.9634C21.5983 46.5926 20.2757 44.6681 19.6475 42.48C19.0194 40.292 19.1196 37.959 19.9331 35.8328L19.9918 35.6862L25.6424 20.937C25.7569 20.6474 25.9605 20.4018 26.2238 20.2356C26.4204 20.1104 26.6435 20.0329 26.8754 20.0092C27.1073 19.9856 27.3415 20.0164 27.5593 20.0993C27.7772 20.1822 27.9726 20.3148 28.1301 20.4867C28.2876 20.6585 28.4028 20.8647 28.4664 21.089L32.2824 32.7715H47.7358L51.552 21.089C51.6148 20.8644 51.73 20.6578 51.8872 20.4856C52.0448 20.3134 52.2404 20.1806 52.4584 20.0976C52.6764 20.0147 52.9108 19.9839 53.1428 20.0079C53.3748 20.0319 53.598 20.1098 53.7944 20.2356C54.0576 20.4018 54.2612 20.6474 54.376 20.937L60.0292 35.6835Z" fill="#FC6D26"/>
</g>
</g>
</g>
</g>
<defs>
<clipPath id="clip0_6039_10098">
<path d="M0 4C0 1.79086 1.79086 0 4 0H76C78.2091 0 80 1.79086 80 4V76C80 78.2091 78.2091 80 76 80H4C1.79086 80 0 78.2091 0 76V4Z" fill="white"/>
</clipPath>
<clipPath id="clip1_6039_10098">
<rect width="80" height="80" fill="white"/>
</clipPath>
<clipPath id="clip2_6039_10098">
<rect width="64" height="64" fill="white" transform="translate(8 8)"/>
</clipPath>
</defs>
</svg>
