<svg width="80" height="80" viewBox="0 0 80 80" fill="none" xmlns="http://www.w3.org/2000/svg">
<g clip-path="url(#clip0_5795_8436)">
<path d="M0 4C0 1.79086 1.79086 0 4 0H76C78.2091 0 80 1.79086 80 4V76C80 78.2091 78.2091 80 76 80H4C1.79086 80 0 78.2091 0 76V4Z" fill="black"/>
<g clip-path="url(#clip1_5795_8436)">
<path d="M67.0797 39.3471C67.0797 54.671 54.93 67.1053 39.9344 67.1053C24.9389 67.1053 12.7892 54.671 12.7892 39.3471C12.7892 24.0231 24.9389 11.5889 39.9344 11.5889C54.93 11.5889 67.0797 24.0231 67.0797 39.3471Z" fill="#D33833"/>
<path d="M13.9056 46.2206C13.9056 46.2206 11.9354 17.2803 38.6209 16.4484L36.7601 13.3398L22.29 18.1997L18.1525 22.9501L14.5405 29.8678L12.4827 37.9238L13.0956 43.3091" fill="#EF3D3A"/>
<path d="M21.3487 20.4103C16.5982 25.292 13.6429 32.0127 13.6429 39.4557C13.6429 46.8988 16.5982 53.6194 21.3487 58.5012C26.121 63.3829 32.6665 66.382 39.9344 66.382C47.2023 66.382 53.7478 63.3829 58.5201 58.5012C63.2705 53.6194 66.2259 46.8988 66.2259 39.4557C66.2259 32.0127 63.2705 25.292 58.5201 20.4103C53.7478 15.5504 47.2023 12.5294 39.9344 12.5294C32.6884 12.5294 26.121 15.5285 21.3487 20.4103ZM20.1446 59.6614C15.0877 54.4951 11.9573 47.3366 11.9573 39.4557C11.9573 31.5748 15.0877 24.4164 20.1446 19.2281C25.2015 14.0618 32.2068 10.8438 39.9344 10.8438C47.662 10.8438 54.6673 14.0618 59.7241 19.2281C64.781 24.3945 67.9115 31.5529 67.9115 39.4557C67.9115 47.3366 64.781 54.4951 59.7241 59.6614C54.6673 64.8496 47.662 68.0458 39.9344 68.0458C32.2068 68.0458 25.2015 64.8496 20.1446 59.6614Z" fill="#231F20"/>
<path d="M51.3616 39.5002L47.2242 40.1131L41.6419 40.748L38.0298 40.8355L34.5053 40.7261L31.8127 39.8942L29.4265 37.311L27.5658 32.0352L27.1498 30.8969L24.6761 30.065L23.2313 27.6788L22.2024 24.2638L23.3407 21.2647L26.0334 20.3234L28.2006 21.3523L29.2295 23.629L30.4773 23.4319L30.8932 22.9065L30.4773 20.5204L30.3679 17.5213L30.9808 13.3838L30.9589 11.0195L32.8416 7.99855L36.1472 5.61239L41.9265 3.13867L48.3406 4.08L53.9229 8.108L56.5061 12.2455L58.1698 15.2446L58.5858 22.6876L57.338 29.1018L55.0613 34.7935L52.9159 37.8364" fill="#F0D6B7"/>
<path d="M47.859 57.3851L33.0823 57.9981V60.4718L34.3302 69.1627L33.7172 69.8851L23.3845 66.3606L22.6621 65.1128L21.6332 53.4228L19.2032 46.4176L18.6779 44.7538L26.9528 39.0621L29.536 38.0332L31.8127 40.8353L33.7829 42.5866L36.0596 43.309L37.0885 43.6155L38.3363 49.0008L39.2776 50.1391L41.6637 49.3072L40 52.5253L48.9755 56.7722L47.859 57.3851Z" fill="#335061"/>
<path d="M23.3407 21.3087L26.0334 20.3674L28.2006 21.3963L29.2295 23.673L30.4773 23.476L30.7838 22.2281L30.1708 19.842L30.7838 14.1503L30.2584 11.0417L32.1192 8.87444L36.1472 5.67831L35.0088 4.12402L29.3171 6.92611L26.9309 8.78688L25.5955 11.6765L23.5378 14.4786L22.9248 17.7842L23.3407 21.3087Z" fill="#6D6B6D"/>
<path d="M27.5877 11.5887C27.5877 11.5887 29.142 7.75773 35.3372 5.89697C41.5325 4.0362 35.6437 4.5616 35.6437 4.5616L28.9231 7.14477L26.3399 9.72795L25.2015 11.7857L27.5877 11.5887Z" fill="#DCD9D8"/>
<path d="M24.4791 20.5862C24.4791 20.5862 22.3118 13.3402 30.5868 12.3113L30.2803 11.0635L24.5885 12.3988L22.9248 17.7841L23.3407 21.3086L24.4791 20.5862Z" fill="#DCD9D8"/>
<path d="M27.7847 30.1963L29.1419 28.8828C29.1419 28.8828 29.7549 28.9485 29.8643 29.6709C29.9738 30.3933 30.2803 36.9169 34.7242 40.4195C35.1402 40.7479 31.4186 39.8941 31.4186 39.8941L28.113 34.7278" fill="#F7E4CD"/>
<path d="M46.8083 28.2261C46.8083 28.2261 47.0491 25.0957 47.9029 25.3365C48.7566 25.5773 48.7566 26.431 48.7566 26.431C48.7566 26.431 46.6988 27.7445 46.8083 28.2261Z" fill="#F7E4CD"/>
<path d="M55.3897 16.7549C55.3897 16.7549 53.6822 17.1051 53.5289 18.6156C53.3757 20.1261 55.3897 18.9221 55.6962 18.8127" fill="#F7E4CD"/>
<path d="M42.8897 16.8643C42.8897 16.8643 40.613 17.1707 40.613 18.6156C40.613 20.0604 43.1962 19.9509 43.9186 19.338" fill="#F7E4CD"/>
<path d="M28.8355 23.585C28.8355 23.585 24.917 21.1989 24.501 23.4756C24.0851 25.7523 23.1657 27.3941 25.114 29.7803L23.7786 29.3644L22.5308 26.1682L22.1149 23.0597L24.501 20.5859L27.1937 20.783L28.7479 22.0308L28.8355 23.585Z" fill="#F7E4CD"/>
<path d="M30.6962 17.0617C30.6962 17.0617 32.4475 7.95486 41.3354 6.20356C48.6471 4.75873 52.5 6.51004 53.9448 8.17378C53.9448 8.17378 47.4212 0.424249 41.226 2.78851C35.0307 5.17467 30.4773 9.50915 30.5868 12.2893C30.7619 17.0617 30.6962 17.0617 30.6962 17.0617Z" fill="#F7E4CD"/>
<path d="M54.6673 9.20277C54.6673 9.20277 51.6682 9.09331 51.5587 11.7859C51.5587 11.7859 51.5587 12.2019 51.7557 12.6178C51.7557 12.6178 54.1419 9.92518 55.5867 11.37" fill="#F7E4CD"/>
<path d="M41.5543 12.9023C41.5543 12.9023 41.0289 8.7867 37.5263 11.1729C35.2496 12.7271 35.4685 14.8944 35.8626 15.3103C36.2785 15.7262 36.169 16.5581 36.4755 15.9889C36.782 15.4198 36.6944 13.559 37.8328 13.0336C38.9492 12.5082 40.8319 11.939 41.5543 12.9023Z" fill="#F7E4CD"/>
<path d="M31.8346 40.835L22.1149 45.1694C22.1149 45.1694 26.1429 61.1939 24.0851 66.1632L22.6403 65.6378L22.5308 59.5302L19.8382 47.9715L18.6998 44.7754L28.8355 37.9453L31.8346 40.835Z" fill="#49728B"/>
<path d="M32.8197 49.7012L34.1989 51.3868V57.582H32.557C32.557 57.582 32.36 53.2476 32.36 52.7222C32.36 52.1968 32.557 50.336 32.557 50.336" fill="#49728B"/>
<path d="M32.8635 58.5234L28.2007 58.7205L29.5361 59.6618L32.8416 60.1872" fill="#49728B"/>
<path d="M48.7784 57.4942L52.6094 57.3848L53.5507 66.8856L49.6322 67.411L48.7784 57.4942Z" fill="#335061"/>
<path d="M49.8074 57.4948L55.5867 57.1883C55.5867 57.1883 57.9728 51.1901 57.9728 50.8836C57.9728 50.5771 60.0306 42.1927 60.0306 42.1927L55.3678 37.3328L54.4264 36.501L51.9527 38.9747V48.585L49.8074 57.4948Z" fill="#335061"/>
<path d="M52.3905 56.7725L48.7784 57.4949L49.3038 60.3845C50.6392 60.9975 52.9159 59.3556 52.9159 59.3556" fill="#49728B"/>
<path d="M52.5 38.6678L59.746 44.0531L59.9431 41.5794L54.4702 36.5225L52.5 38.6678Z" fill="#49728B"/>
<path d="M36.4537 77.8535L34.3084 69.1626L33.2357 62.7485L33.0605 57.998L42.7584 57.4727H48.7785L48.2312 68.3308L49.1726 76.7151L49.0631 78.2694L41.2041 78.8824L36.4537 77.8535Z" fill="white"/>
<path d="M47.4431 57.3854C47.4431 57.3854 46.9177 68.1341 48.472 75.796C48.472 75.796 45.3634 77.7662 40.8319 78.2697L49.5228 77.9633L50.5517 77.3503L49.3039 60.4064L48.9755 56.7725" fill="#DCD9D8"/>
<path d="M53.7041 66.076L57.7321 64.9376L65.3721 64.5217L66.5105 60.9972L64.4527 54.8895L62.0665 54.583L58.761 55.6119L55.6086 57.1662L53.923 56.8597L52.6095 57.3851" fill="white"/>
<path d="M53.6383 63.9961C53.6383 63.9961 56.3309 62.7483 56.7469 62.8578L55.6085 57.166L56.9439 56.6406C56.9439 56.6406 57.8852 62.0259 57.8852 62.6389C57.8852 62.6389 63.6645 62.9453 64.1899 62.9453C64.1899 62.9453 65.4377 60.5592 65.1313 58.0855L66.2696 61.391L66.3791 63.2518L64.7153 65.7255L62.8546 66.1415L59.746 66.032L58.7171 64.6966L55.105 65.222L53.9667 65.638" fill="#DCD9D8"/>
<path d="M49.5665 56.6626L47.2898 50.8833L44.9037 47.4683C44.9037 47.4683 45.4291 46.0234 46.1515 46.0234H48.5376L50.8143 46.8553L50.6173 50.6863L49.5665 56.6626Z" fill="white"/>
<path d="M50.0263 54.693C50.0263 54.693 47.1366 49.1107 47.1366 48.2788C47.1366 48.2788 47.662 47.031 48.3844 47.3375C49.1069 47.644 50.6611 48.4758 50.6611 48.4758V46.5056L47.1366 45.7832L44.7505 46.0897L48.7785 55.6343L49.6104 55.7438" fill="#DCD9D8"/>
<path d="M37.3731 41.0544L34.5054 40.7479L31.8127 39.916V40.8573L33.1262 42.3022L37.2637 44.1629" fill="white"/>
<path d="M32.7541 41.3604C32.7541 41.3604 35.9502 42.6957 37.001 42.3892L37.1104 43.637L34.2208 43.0241L32.4695 41.7763L32.7541 41.3604Z" fill="#DCD9D8"/>
<path d="M53.704 46.3742C51.9527 46.3304 50.3547 46.1115 48.9755 45.7175C49.0631 45.1483 48.8879 44.601 49.0412 44.1851C49.4352 43.9005 50.0701 43.9005 50.6611 43.8348C50.1576 43.594 49.4352 43.4846 48.866 43.6378C48.8442 43.2438 48.669 43.003 48.5596 42.6965C49.5447 42.3462 51.8652 40.0476 53.1786 40.7919C53.8135 41.1641 54.0762 43.2219 54.12 44.2508C54.1637 45.0826 54.0324 45.9145 53.704 46.3742Z" fill="#D33833"/>
<path d="M53.704 46.3742C51.9527 46.3304 50.3547 46.1115 48.9755 45.7175C49.0631 45.1483 48.8879 44.601 49.0412 44.1851C49.4352 43.9005 50.0701 43.9005 50.6611 43.8348C50.1576 43.594 49.4352 43.4846 48.866 43.6378C48.8442 43.2438 48.669 43.003 48.5596 42.6965C49.5447 42.3462 51.8652 40.0476 53.1786 40.7919C53.8135 41.1641 54.0762 43.2219 54.12 44.2508C54.1637 45.0826 54.0324 45.9145 53.704 46.3742Z" fill="black" stroke="#D33833" stroke-width="3.83693"/>
<path d="M45.3197 43.5058C45.3197 43.6372 45.3197 43.7685 45.2978 43.8999C44.7505 44.2501 43.8748 44.2501 43.2619 44.5566C44.1375 44.6004 44.8381 44.8193 45.451 45.1039C45.4291 45.4323 45.4291 45.7825 45.4072 46.1109C44.4002 46.7895 43.4808 47.8184 42.2987 48.4752C41.7295 48.7816 39.7812 49.5697 39.1901 49.4165C38.8617 49.3289 38.818 48.913 38.6866 48.5189C38.402 47.6871 37.7453 46.3298 37.6796 45.0601C37.6139 43.462 37.4388 40.7694 39.1682 41.0978C40.5693 41.3605 42.1892 41.9953 43.2619 42.5864C43.9405 42.9804 44.3127 43.4183 45.3197 43.5058Z" fill="#D33833"/>
<path d="M45.3197 43.5058C45.3197 43.6372 45.3197 43.7685 45.2978 43.8999C44.7505 44.2501 43.8748 44.2501 43.2619 44.5566C44.1375 44.6004 44.8381 44.8193 45.451 45.1039C45.4291 45.4323 45.4291 45.7825 45.4072 46.1109C44.4002 46.7895 43.4808 47.8184 42.2987 48.4752C41.7295 48.7816 39.7812 49.5697 39.1901 49.4165C38.8617 49.3289 38.818 48.913 38.6866 48.5189C38.402 47.6871 37.7453 46.3298 37.6796 45.0601C37.6139 43.462 37.4388 40.7694 39.1682 41.0978C40.5693 41.3605 42.1892 41.9953 43.2619 42.5864C43.9405 42.9804 44.3127 43.4183 45.3197 43.5058Z" fill="black" stroke="#D33833" stroke-width="3.83693"/>
<path d="M46.3047 45.4108C46.1515 44.5351 45.9763 44.2943 46.042 43.5281C48.3844 41.9738 48.8003 46.1989 46.3047 45.4108Z" fill="#D33833"/>
<path d="M46.3047 45.4108C46.1515 44.5351 45.9763 44.2943 46.042 43.5281C48.3844 41.9738 48.8003 46.1989 46.3047 45.4108Z" fill="black" stroke="#D33833" stroke-width="3.83693"/>
<path d="M49.676 46.1107C49.676 46.1107 48.9536 45.0818 49.479 44.7753C50.0044 44.4688 50.5079 44.7753 50.8143 44.2499C51.1208 43.7245 50.8143 43.4181 50.9238 42.8051C51.0333 42.1921 51.5368 42.0827 52.0621 41.9732C52.5875 41.8638 54.0324 41.6668 54.2294 42.1703L53.6164 40.3095L52.3686 39.8936L48.4501 42.1703L48.2531 43.3086V45.5853" fill="#EF3D3A"/>
<path d="M38.818 49.5259C38.6866 47.9059 38.5553 46.3078 38.4239 44.6879C38.205 42.2798 38.9931 42.6958 41.0947 42.6958C41.423 42.6958 43.0649 43.0679 43.1743 43.3087C43.7435 44.469 42.233 44.2063 43.8311 45.0819C45.1664 45.8043 47.5526 44.6441 47.0053 43.0022C46.6988 42.6301 45.4291 42.8928 44.9694 42.652C44.1594 42.2361 43.3495 41.8201 42.5395 41.4042C41.5106 40.8788 39.1463 40.0907 38.0518 40.835C35.2716 42.7177 38.2269 47.4462 39.212 49.4164" fill="#EF3D3A"/>
<path d="M41.5543 12.9022C38.7303 12.2455 37.3293 14.0844 36.4755 15.9889C35.7093 15.8138 36.0158 14.763 36.2128 14.2376C36.7163 12.8584 38.7522 10.9977 40.416 11.2604C41.1165 11.3479 42.0797 12.0047 41.5543 12.9022Z" fill="#231F20"/>
<path d="M55.2802 16.0977H55.4115C56.0464 17.4111 56.5937 18.8122 57.4037 19.9943C56.8564 21.264 53.3319 22.3586 53.3756 20.1257C54.1418 19.7973 55.4553 20.06 56.134 19.6222C55.7399 18.5495 55.1926 17.63 55.2802 16.0977Z" fill="#231F20"/>
<path d="M42.9773 16.1416C43.5903 17.2581 43.7873 18.4183 44.6411 19.2502C45.0351 19.6223 45.7794 20.082 45.4073 21.1328C45.3197 21.3736 44.6849 21.9209 44.3127 22.0304C42.9773 22.4244 39.8469 22.1179 40.8977 20.4323C42.0141 20.4761 43.5027 21.1547 44.3346 20.3447C43.6998 19.3377 42.5614 17.3237 42.9773 16.1416Z" fill="#231F20"/>
<path d="M54.7767 27.3942C52.7627 28.6858 50.5079 30.1088 47.1804 29.7804C46.4799 29.1674 46.1953 27.7883 46.8958 26.8907C47.2461 27.5037 47.0271 28.642 48.0341 28.8172C49.9168 29.1455 52.1059 27.6569 53.4632 27.1534C54.2951 25.7305 53.3975 25.227 52.6313 24.3076C51.077 22.4468 49.0193 20.1263 49.0849 17.3461C49.7198 16.8864 49.7636 18.0466 49.8511 18.2437C50.6611 20.1263 52.697 22.5563 54.1637 24.1762C54.5359 24.5703 55.1269 24.9643 55.1926 25.227C55.3896 25.9713 54.6891 26.8907 54.7767 27.3942Z" fill="#231F20"/>
<path d="M28.1131 26.0372C27.4782 25.665 27.325 24.0889 26.5807 24.0451C25.508 23.9794 25.705 26.1029 25.705 27.3507C24.9826 26.6939 24.8513 24.6361 25.3767 23.5854C24.7637 23.2789 24.501 23.9137 24.1508 24.1326C24.6105 20.9584 28.8136 22.6659 28.1131 26.0372Z" fill="#231F20"/>
<path d="M56.0464 28.7295C55.105 30.5246 53.7697 32.4948 51.0114 32.5605C50.9457 31.9913 50.9019 31.0938 51.0114 30.7435C53.1348 30.5246 54.4483 29.4519 56.0464 28.7295Z" fill="#231F20"/>
<path d="M42.8241 29.8896C44.5754 30.8091 47.8153 30.9185 50.2234 30.8529C50.3547 31.3783 50.3547 32.035 50.3547 32.6698C47.268 32.8012 43.6341 32.035 42.8241 29.8896Z" fill="#231F20"/>
<path d="M42.4957 31.5977C43.7216 34.6624 47.9028 34.3122 51.4273 34.2246C51.2741 34.6187 50.9457 35.1003 50.5079 35.2535C49.3695 35.7132 46.261 36.0635 44.6848 35.2316C43.6997 34.7062 43.0429 33.5022 42.4957 32.8017C42.2548 32.4733 40.9414 31.6195 42.4957 31.5977Z" fill="#231F20"/>
<path d="M54.6235 48.4757C53.2005 50.9275 51.8214 53.445 50.1357 55.5904C50.8363 53.5107 51.1427 50.0081 51.2522 47.3373C52.7408 46.6368 54.0105 47.4906 54.6235 48.4757Z" fill="#81B0C4"/>
<path d="M62.3073 57.2754C60.7092 57.6038 59.5928 59.158 58.0166 59.0486C58.8923 57.8446 60.3809 57.3192 62.3073 57.2754Z" fill="#231F20"/>
<path d="M63.0079 59.7718C61.6944 59.9032 60.162 60.1221 58.8485 60.0126C59.4834 59.0494 61.8914 59.3997 63.0079 59.7718Z" fill="#231F20"/>
<path d="M63.4676 61.9386C62.0009 61.9605 60.1839 61.9386 58.7828 61.8292C59.6147 60.9316 62.5263 61.5008 63.4676 61.9386Z" fill="#231F20"/>
<path d="M51.8652 67.849C52.0841 69.6879 52.8065 71.5486 52.719 73.5626C51.909 73.8253 51.4493 74.0661 50.3547 74.0661C50.289 72.3586 50.0482 69.7317 50.1139 68.0898C50.6393 68.1336 51.4274 67.7177 51.8652 67.849Z" fill="#DCD9D8"/>
<path d="M49.5009 40.7041C48.7566 41.1857 48.1436 41.7768 47.4212 42.3022C45.845 42.3897 44.9913 42.1927 43.8529 41.2952C43.8748 41.2295 43.9843 41.2514 43.9843 41.1638C45.6699 41.9081 47.8152 40.8573 49.5009 40.7041Z" fill="#F0D6B7"/>
<path d="M40.7006 52.1531C41.1603 50.161 42.9773 49.1102 44.6191 48.0156C46.3047 50.161 47.3336 52.9193 48.472 55.59C45.7793 54.78 43.0429 53.4885 40.7006 52.1531Z" fill="#81B0C4"/>
<path d="M50.1138 68.1119C50.0481 69.7538 50.2671 72.3588 50.3546 74.0883C51.4492 74.0883 51.9089 73.8475 52.7189 73.5848C52.8064 71.5708 52.084 69.71 51.8651 67.8711C51.4273 67.7179 50.6392 68.1338 50.1138 68.1119ZM33.2137 58.83C33.9361 65.4193 34.965 70.9359 36.8696 76.7809C41.0946 78.0725 46.1734 78.1819 49.9168 77.0217C49.2382 73.738 49.5227 69.7319 49.1287 66.2074C48.8222 63.5585 48.9755 60.9097 48.5595 58.217C44.028 57.2757 37.6358 57.9981 33.2137 58.83ZM49.6322 58.2608C49.5884 61.0848 49.7636 63.8869 49.9825 66.7109C51.077 66.5576 51.7994 66.4482 52.8064 66.2074C52.4781 63.4929 52.5219 60.4062 51.8432 57.9981C51.077 58.02 50.3984 57.9981 49.6322 58.2608ZM55.1269 57.8011C54.6015 57.6917 54.0105 57.8011 53.5289 57.8011C53.7697 60.0997 54.3169 62.6391 54.514 65.069C55.2802 65.0909 55.6961 64.7188 56.3309 64.6093C56.3747 62.4859 56.1558 59.5524 55.1269 57.8011ZM63.4675 65.4193C65.0875 65.0252 66.0945 63.055 65.6348 61.0191C65.3283 59.6619 64.8029 57.0787 64.2118 56.203C63.7959 55.5682 62.6357 54.7144 61.6943 55.3055C60.1838 56.2687 57.535 56.5533 56.4404 57.7135C56.9877 59.5524 57.1628 62.048 57.3817 64.3685C59.2644 64.478 61.563 63.8431 63.1392 64.5217C62.0446 64.872 60.6435 64.872 59.7022 65.3974C60.4903 65.7696 62.2854 65.7039 63.4675 65.4193ZM48.4501 55.5901C47.3117 52.9193 46.2828 50.161 44.5972 48.0157C42.9553 49.1103 41.1603 50.161 40.6787 52.1532C43.0429 53.4885 45.7793 54.7801 48.4501 55.5901ZM51.2522 47.3371C51.1427 50.0078 50.8362 53.5104 50.1357 55.5901C51.8213 53.4228 53.2005 50.9272 54.6234 48.4754C54.0105 47.4903 52.7408 46.6365 51.2522 47.3371ZM48.0779 46.2206C47.4431 46.1549 46.8958 46.9649 46.0639 46.6146C45.8669 46.8336 45.6918 47.0525 45.4947 47.2714C47.3336 49.5043 48.1874 52.6567 49.6103 55.2617C50.3765 52.7442 50.2889 50.0078 50.4641 47.2714C49.4133 47.3152 48.8222 46.2863 48.0779 46.2206ZM46.042 43.528C45.9764 44.2942 46.1515 44.535 46.3047 45.4106C48.8003 46.1987 48.3844 41.9737 46.042 43.528ZM43.2618 42.6085C42.1892 42.0175 40.5692 41.3826 39.1681 41.1199C37.4387 40.7916 37.6139 43.4842 37.6795 45.0823C37.7452 46.3519 38.402 47.6873 38.6865 48.5411C38.8179 48.9351 38.8617 49.3511 39.19 49.4386C39.7811 49.57 41.7513 48.8038 42.2986 48.4973C43.4807 47.8625 44.4002 46.8336 45.4072 46.133C45.4291 45.8047 45.4291 45.4544 45.451 45.126C44.838 44.8196 44.1594 44.6225 43.2618 44.5788C43.8529 44.2723 44.7504 44.2723 45.2977 43.922C45.2977 43.7907 45.2977 43.6593 45.3196 43.528C44.3126 43.4185 43.9405 42.9807 43.2618 42.6085ZM32.9729 40.7478C32.0754 41.6672 35.4904 42.8931 36.5631 42.9588C36.5631 42.3896 36.8915 41.8423 36.8258 41.4264C35.5342 41.2075 33.8486 41.3607 32.9729 40.7478ZM44.0061 41.1637C44.0061 41.2513 43.8967 41.2294 43.8748 41.2951C45.035 42.1926 45.8888 42.3896 47.4431 42.3021C48.1436 41.7986 48.7784 41.1856 49.5227 40.704C47.8152 40.8572 45.6699 41.908 44.0061 41.1637ZM54.1199 44.2285C54.0761 43.2215 53.8134 41.1418 53.1786 40.7697C51.8651 40.0035 49.5446 42.3239 48.5595 42.6742C48.669 42.9807 48.8441 43.2215 48.866 43.6155C49.4571 43.4623 50.1576 43.5718 50.6611 43.8126C50.07 43.8782 49.4352 43.8782 49.0411 44.1628C48.9098 44.5788 49.0849 45.126 48.9755 45.6952C50.3546 46.0893 51.9527 46.2863 53.704 46.3519C54.0324 45.9141 54.1637 45.0823 54.1199 44.2285ZM31.4624 41.6234C31.1778 41.4264 29.2733 38.9527 29.0106 39.0621C25.5736 40.4194 22.3556 42.7618 19.4878 44.9947C22.2243 50.8835 23.3407 58.0857 23.5377 65.0252C26.6682 66.492 29.4265 68.6154 33.6953 68.8343C33.1918 65.3536 32.754 62.2232 32.4694 58.9395C31.3967 58.4797 29.8643 58.9614 28.8573 58.8081C28.8573 57.6041 30.3897 58.2827 30.5211 57.4727C30.6086 56.8598 29.6673 56.816 29.9738 55.8528C30.7619 56.1374 31.1778 56.7722 32.0097 57.013C32.7759 55.3493 32.0097 52.394 32.1191 50.9929C32.141 50.7302 32.2505 49.5481 32.8416 49.7451C33.3669 49.9202 32.8197 52.9193 32.8634 54.2328C32.9072 55.4587 32.7102 56.619 33.2137 57.3852C37.3293 56.816 41.5105 56.4657 45.9764 56.3344C44.9912 55.9185 43.831 55.5244 42.5613 54.802C41.8608 54.408 39.6935 53.598 39.4965 52.9412C39.1681 51.8905 40.3284 51.3432 40.5254 50.4456C38.4457 51.584 38.0517 49.3511 37.5482 47.7968C37.1104 46.3738 36.8477 45.3012 36.7382 44.4912C34.9212 43.5718 32.9948 42.718 31.4624 41.6234ZM52.3029 39.3467C55.1707 37.9676 55.6961 44.535 54.5578 46.6584C54.7329 47.2933 55.3239 47.5341 55.5648 48.1033C53.9667 50.971 52.1935 53.6418 50.5516 56.4657C51.7557 55.6995 53.507 56.3344 54.9299 55.7652C55.4553 55.5682 55.8274 54.3642 56.2215 53.401C57.3161 50.774 58.4544 47.4465 58.9579 44.9509C59.0674 44.3817 59.3957 43.1339 59.3082 42.6304C59.1768 41.711 57.9509 41.0324 57.3161 40.4851C56.1558 39.4343 55.4334 38.5367 54.2075 37.5516C53.7478 38.274 52.697 38.7557 52.3029 39.3467ZM24.9169 13.9309C23.5596 15.4414 23.8442 18.2435 23.9975 20.2575C26.4712 18.7032 29.733 20.3888 29.7111 23.0158C30.8932 22.9939 30.1489 21.5491 29.93 20.6078C29.2295 17.5649 31.1121 14.2812 30.0176 11.501C27.8941 11.6761 26.1647 12.5299 24.9169 13.9309ZM34.6804 5.19626C31.5938 6.07191 27.6314 8.32672 26.3617 11.1069C27.3468 10.9537 28.0255 10.4721 28.9887 10.4064C29.3608 10.3845 29.8424 10.5596 30.2584 10.4502C31.0903 10.2313 31.8127 8.34861 32.4475 7.64809C33.0605 6.96946 33.8048 6.66298 34.3083 6.05002C34.6366 5.89678 35.1183 5.89678 35.1401 5.41517C35.0088 5.26193 34.8556 5.15248 34.6804 5.19626ZM50.7706 6.02813C47.5525 4.21115 42.1235 2.85389 38.7084 4.56141C35.9501 5.94056 32.2286 8.21726 30.9589 11.085C32.141 13.8652 30.6086 16.4046 30.4992 19.2286C30.4554 20.7391 31.1997 22.0307 31.2654 23.6725C30.8494 24.3512 29.6235 24.4168 28.7698 24.3731C28.4852 22.9282 27.9817 21.3083 26.4931 21.1331C24.3915 20.8923 22.8372 22.6436 22.7497 24.4606C22.6402 26.606 24.3915 30.1524 26.8871 29.9116C27.8503 29.824 28.0911 28.8608 29.1419 28.8608C29.7111 29.9991 28.2663 30.3494 28.113 31.1594C28.0692 31.3783 28.2225 32.1883 28.3319 32.5823C28.7917 34.4431 29.7987 36.873 30.7838 38.2959C32.0535 40.1129 34.5272 40.3756 37.1979 40.5507C37.6795 39.5219 39.4308 39.6094 40.5692 39.8721C39.19 39.3248 37.9203 38.0114 36.8696 36.8511C35.6655 35.5157 34.4396 34.0928 34.3739 32.3415C36.6725 35.5157 38.5552 38.2959 42.7145 39.697C45.8669 40.7478 49.5446 39.2154 51.9746 37.5079C52.9816 36.8073 53.5726 35.669 54.2951 34.662C56.9658 30.8091 58.2136 25.3363 57.9509 20.0167C57.8414 17.8276 57.8414 15.6384 57.0971 14.1717C56.3309 12.6393 53.7259 11.2383 52.1935 12.6393C51.9089 11.1288 53.4632 10.2094 55.2802 10.7567C53.9886 9.07102 52.6313 7.07891 50.7706 6.02813ZM56.7688 55.5244C59.2863 54.2766 63.971 52.175 65.5253 55.5244C66.1164 56.7722 66.795 58.8519 67.0796 60.1435C67.4955 61.9386 66.6199 65.7477 64.7591 66.3387C63.1173 66.8641 61.2127 66.8422 59.2425 66.4482C59.0017 66.2512 58.7609 65.9228 58.5639 65.5725C57.1628 65.5287 55.8274 65.6382 54.7329 66.2293C54.8423 67.2801 54.1418 67.4333 53.4632 67.6522C52.9816 69.6005 54.4483 72.1399 54.098 73.8912C53.8572 75.1609 52.3029 75.358 51.1646 75.5769C51.1208 76.2774 51.2084 76.8685 51.2959 77.4595C51.0332 78.4227 49.873 78.97 48.7566 79.1014C45.1007 79.5392 39.5622 79.7362 36.0596 78.4665C35.0745 76.0585 34.3083 73.1469 33.4983 70.4105C30.0832 70.7827 27.3031 68.9438 24.698 67.7179C23.8004 67.3019 22.5526 67.0611 22.2024 66.3387C21.874 65.6382 22.0053 64.3028 21.9178 63.055C21.7208 59.837 21.5237 56.7284 20.6919 53.4447C20.3197 51.9561 19.6411 50.6645 19.1814 49.2416C18.7435 47.9281 17.9992 46.2863 17.8022 44.9728C17.5176 43.0245 19.3565 42.915 20.5167 42.0612C22.3337 40.7478 23.7567 40.0254 25.7269 38.8432C26.3179 38.493 28.0692 37.6173 28.2663 37.2014C28.6603 36.3914 27.5876 35.253 27.3031 34.6182C26.8433 33.6112 26.6025 32.7574 26.5369 31.7723C24.895 31.5096 23.6253 30.5245 22.881 29.43C21.6332 27.5911 20.7575 24.1979 21.8521 21.6366C21.9397 21.4396 22.3556 21.0237 22.4213 20.7172C22.5526 20.1043 22.1805 19.2943 22.1586 18.6375C22.0491 15.2882 22.7278 12.3985 24.9826 11.3915C25.902 7.73565 29.1857 6.53163 32.2724 4.71465C33.4326 4.03602 34.7023 3.59819 36.0158 3.11658C40.7224 1.38717 47.9685 1.71554 51.887 4.67087C53.5508 5.91867 56.1996 8.56752 57.1409 10.494C59.6584 15.5509 59.4614 24.0228 57.7101 30.1962C57.4693 31.028 57.1409 32.232 56.6593 33.239C56.3309 33.9396 55.3021 35.3187 55.4115 35.9317C55.5429 36.5665 57.7758 38.2522 58.2574 38.7119C59.1111 39.5437 60.753 40.6383 60.8843 41.6891C61.0376 42.8056 60.4027 44.3379 60.0744 45.4106C59.0236 49.0008 57.9728 52.3064 56.7688 55.5244Z" fill="#231F20"/>
<path d="M40.0219 30.6561C40.1533 30.481 40.8976 30.1964 41.9484 30.6999C41.9484 30.6999 40.7006 30.8969 40.81 32.9766L40.2846 32.8671C40.3065 32.889 39.7592 31.0063 40.0219 30.6561Z" fill="#F7E4CD"/>
<path d="M49.085 48.4315C49.085 48.738 48.8223 49.0007 48.5158 49.0007C48.2094 49.0007 47.9467 48.738 47.9467 48.4315C47.9467 48.125 48.2094 47.8623 48.5158 47.8623C48.8442 47.8623 49.085 48.125 49.085 48.4315Z" fill="#1D1919"/>
<path d="M49.6541 51.0809C49.6541 51.3874 49.3914 51.6501 49.0849 51.6501C48.7784 51.6501 48.5157 51.3874 48.5157 51.0809C48.5157 50.7744 48.7784 50.5117 49.0849 50.5117C49.4133 50.5117 49.6541 50.7525 49.6541 51.0809Z" fill="#1D1919"/>
</g>
</g>
<defs>
<clipPath id="clip0_5795_8436">
<path d="M0 4C0 1.79086 1.79086 0 4 0H76C78.2091 0 80 1.79086 80 4V76C80 78.2091 78.2091 80 76 80H4C1.79086 80 0 78.2091 0 76V4Z" fill="white"/>
</clipPath>
<clipPath id="clip1_5795_8436">
<rect width="80" height="80" fill="white"/>
</clipPath>
</defs>
</svg>
