<svg width="80" height="80" viewBox="0 0 80 80" fill="none" xmlns="http://www.w3.org/2000/svg">
<g clip-path="url(#clip0_5798_9135)">
<path d="M0 4C0 1.79086 1.79086 0 4 0H76C78.2091 0 80 1.79086 80 4V76C80 78.2091 78.2091 80 76 80H4C1.79086 80 0 78.2091 0 76V4Z" fill="black"/>
<g clip-path="url(#clip1_5798_9135)">
<path fill-rule="evenodd" clip-rule="evenodd" d="M69.2137 51.4322L67.673 48.9748C66.8193 49.7841 65.7743 50.2465 64.7554 50.2465C64.2875 50.2465 64.0407 50.1893 63.0218 49.9292C62.004 49.6392 61.2877 49.5525 60.4904 49.5525C56.8845 49.5525 54.5457 51.5189 54.5457 54.5549C54.5457 56.7518 55.5367 58.1111 57.5735 58.6604C56.7477 58.863 55.8391 59.2968 55.4265 59.7888C55.1238 60.1356 54.9865 60.5973 54.9865 61.1464C54.9865 61.6102 55.0967 62.0146 55.2613 62.3614C55.4535 62.6795 55.7289 62.9398 56.0597 63.0839C56.7192 63.3442 57.793 63.5175 59.4441 63.547C60.2978 63.547 60.8206 63.5759 61.0133 63.5759C62.0318 63.6339 62.5542 63.8065 62.9399 64.0095C63.3248 64.241 63.6001 64.7615 63.6001 65.3392C63.6001 65.9177 63.2423 66.4959 62.7196 66.8431C62.2244 67.19 61.4258 67.3349 60.3801 67.3349C58.6735 67.3349 57.738 66.6985 57.738 65.5127C57.738 64.9922 57.793 64.8762 57.9031 64.5585H54.4906C54.3532 64.8472 54.161 65.2522 54.161 66.0623C54.161 67.0746 54.5457 67.9416 55.3163 68.6935C56.5828 69.937 58.6467 70.2834 60.6555 70.2834C62.8567 70.2834 64.9765 69.7635 66.2143 68.3748C66.9844 67.5075 67.3423 66.5535 67.3423 65.3106C67.3423 63.9806 66.9575 62.9684 66.132 62.1591C65.1403 61.2042 64.0131 60.8572 61.8665 60.8287L59.8843 60.8001C59.4995 60.8001 59.2798 60.6561 59.2798 60.4533C59.2798 60.0481 59.8017 59.701 60.7376 59.2389C61.0133 59.2675 61.1232 59.2675 61.2877 59.2675C64.2875 59.2675 66.4895 57.4173 66.4895 54.8731C66.4895 53.8896 66.2143 53.1385 65.6632 52.4447C66.132 52.5019 66.2692 52.5312 66.6271 52.5312C67.6449 52.5312 68.4153 52.2129 69.2137 51.4322ZM71.4832 37.0822C71.4832 35.4195 70.4561 33.8791 68.7095 32.6136C68.867 33.1217 68.9555 33.6382 68.9555 34.1649C68.9555 38.9261 62.295 42.9998 52.8524 44.6866C53.9205 44.8067 55.0283 44.8725 56.1676 44.8725C64.6264 44.8725 71.4832 41.3844 71.4832 37.0822ZM66.0401 34.4924C66.0401 39.0617 55.8005 42.7653 43.1689 42.7653C30.5381 42.7653 20.2991 39.0617 20.2991 34.4924C20.2991 33.0532 21.3151 31.7005 23.1015 30.5224C22.8254 31.0276 22.679 31.5503 22.679 32.0859C22.679 36.3068 31.685 39.7285 42.7952 39.7285C53.9057 39.7285 62.9126 36.3068 62.9126 32.0859C62.9126 31.2878 62.588 30.5171 61.9898 29.7929C64.5411 31.1281 66.0401 32.7468 66.0401 34.4924ZM22.826 27.1785C18.2124 28.3037 15.0786 30.5071 15.0786 33.041C15.0786 34.6096 16.2806 36.0499 18.2878 37.1878C17.685 36.2249 17.3568 35.2119 17.3568 34.1649C17.3568 31.5293 19.4019 29.1054 22.826 27.1785ZM67.9415 19.7496C67.5172 19.2399 66.9359 19.2415 66.4774 19.6561C66.0344 20.242 66.0218 20.6589 66.3362 20.9826C66.6714 21.3287 67.3666 21.6268 67.8671 21.2303C68.3678 20.8322 68.3659 20.2592 67.9415 19.7496ZM62.1301 21.6493C63.5618 19.6564 66.3007 23.1804 63.196 23.6708C61.9537 23.8673 59.8559 25.2237 58.9557 27.3646C57.6845 30.533 58.2346 32.878 56.0493 34.2885C51.389 37.2939 37.0316 38.428 30.8494 34.5725C26.0033 31.5505 27.6661 26.7593 13.8043 16.2002C11.9915 14.8202 14.1384 13.355 15.4962 14.2928C16.8539 15.2317 15.6112 15.4809 18.3496 18.2162C23.8808 23.7388 23.8252 18.7738 24.6987 20.6517C26.5355 24.6009 30.5875 28.5782 30.5875 28.5782C34.6455 31.2146 37.886 31.7909 43.8718 27.7484C47.6679 25.1849 46.115 31.8256 55.4246 27.0396C58.8197 25.2936 58.6784 26.4513 62.1301 21.6493ZM21.7372 16.5831C21.5027 16.2536 20.8054 16.1019 20.3389 16.5704C19.8732 17.0388 20.1023 17.5019 20.3716 17.7803C20.7579 18.179 21.4127 18.1462 21.8022 17.9296C22.1934 17.7135 22.1111 17.1087 21.7372 16.5831ZM12.1134 12.9175C12.4175 12.5844 12.8014 11.954 12.1419 10.7476C11.6605 9.86439 10.0687 9.50356 9.50683 9.84035C8.94683 10.1783 8.26173 11.4824 9.19984 12.0562C10.4086 12.7966 11.201 13.9156 12.1134 12.9175ZM69.505 11.279C69.0793 10.6616 68.1808 10.7734 67.2914 11.4177C66.4014 12.0613 66.5698 13.2849 66.864 13.5698C67.38 14.0708 68.7556 13.7326 69.076 13.3738C69.9015 12.4522 69.9304 11.8962 69.505 11.279ZM64.3843 15.1978C65.6582 14.5983 67.6615 16.547 64.7622 18.0099C60.6185 20.1017 60.1793 22.697 57.5614 24.3472C53.1589 27.1226 54.506 24.4593 47.4239 23.4513C44.6966 23.063 43.8192 26.0998 41.6901 25.2222C36.7815 23.1985 33.3532 23.586 30.1739 26.167C29.0231 25.6604 27.8189 23.7043 27.347 22.92C28.6359 21.66 28.1155 19.5541 27.3876 18.3993C26.6606 17.2445 25.7799 17.5722 24.8131 16.5097C23.8455 15.4487 25.1777 12.6792 26.4167 14.8067C31.059 22.7787 34.1067 19.4627 37.8987 18.9872C41.5379 18.5311 44.7548 20.5096 45.7411 14.9056C45.9032 13.9897 46.7972 13.7705 46.8884 15.2852C46.9792 16.801 47.5491 20.4918 49.55 20.9682C51.5505 21.4439 53.1388 20.5005 53.6072 19.9769C54.0759 19.4532 54.3212 19.5293 54.5268 20.8287C54.7332 22.1291 55.2405 23.925 58.0497 21.9245C63.7952 17.8326 62.1512 16.2494 64.3843 15.1978ZM47.307 11.4531C47.3255 10.7982 47.0276 10.3876 46.3804 10.4107C45.7334 10.4342 45.5014 10.7592 45.5223 11.3913C45.6838 12.5878 45.8854 12.5592 46.3145 12.6697C46.7437 12.7804 47.2884 12.1074 47.307 11.4531ZM24.2728 12.5776C24.5546 12.223 24.5816 11.7562 24.2077 11.23C23.9735 10.9008 22.8775 10.6751 22.4124 11.1434C21.9459 11.6121 22.3703 12.3484 22.7333 12.46C23.4055 12.6667 23.7041 13.2918 24.2728 12.5776ZM62.6922 54.5835C62.6922 55.9427 61.8936 56.6939 60.4351 56.6939C59.1415 56.6939 58.2609 56.0875 58.2609 54.5835C58.2609 53.1956 59.0593 52.3861 60.4629 52.3861C61.8664 52.3861 62.6922 53.1956 62.6922 54.5835ZM52.1241 62.8819C53.3362 61.4356 53.8854 59.7009 53.8854 57.1569C53.8854 54.757 53.3903 53.1384 52.2624 51.7497C51.051 50.2465 49.483 49.5241 47.4733 49.5241C43.676 49.5241 41.1441 52.6169 41.1441 57.273C41.1441 61.9276 43.6481 64.9348 47.4733 64.9348C49.6474 64.9348 51.051 64.1543 52.1241 62.8819ZM49.8679 57.1283C49.8679 60.6271 49.1804 62.1296 47.5844 62.1296C46.8681 62.1296 46.0433 61.7256 45.7126 60.9162C45.4102 60.1632 45.2439 58.891 45.2439 57.1858C45.2439 55.7111 45.382 54.6705 45.6297 53.8896C45.9321 52.9646 46.6476 52.3861 47.5284 52.3861C48.1887 52.3861 48.7666 52.6753 49.1246 53.1671C49.62 53.8316 49.8679 55.1326 49.8679 57.1283ZM14.7706 67.2759L16.5582 69.3577C18.2925 68.6639 20.4665 67.1034 21.0167 64.646C21.2093 63.8359 21.2914 63.3154 21.2914 60.7123V44.6254H17.3847V61.1464C17.3847 63.3154 17.3022 64.1246 16.9991 64.8472C16.6415 65.6572 15.76 66.6399 14.7706 67.2759ZM23.7986 44.5797H23.3973V64.6166H27.2498V55.7395H32.1209V52.4447H27.2498V47.8464H33.3312L33.5672 46.097C29.9129 45.8181 26.5919 45.2311 23.7986 44.5797ZM36.6064 49.4659C36.9369 50.0738 37.1287 50.7384 37.1843 51.5771C37.7076 50.8251 38.5882 50.0443 39.2758 49.6967C39.5793 49.5525 40.074 49.4659 40.4869 49.4659C41.037 49.4659 41.2845 49.5241 41.8624 49.784L40.8444 53.1956C40.4869 52.9937 40.1843 52.9067 39.7715 52.9067C38.9458 52.9067 38.2026 53.3118 37.5144 54.1498V64.6166H33.8271V54.7275C33.8271 52.7325 33.6068 51.2292 33.3042 50.3915L36.6064 49.4659Z" fill="#40BE46"/>
</g>
</g>
<defs>
<clipPath id="clip0_5798_9135">
<path d="M0 4C0 1.79086 1.79086 0 4 0H76C78.2091 0 80 1.79086 80 4V76C80 78.2091 78.2091 80 76 80H4C1.79086 80 0 78.2091 0 76V4Z" fill="white"/>
</clipPath>
<clipPath id="clip1_5798_9135">
<rect width="64" height="62" fill="white" transform="translate(8 9)"/>
</clipPath>
</defs>
</svg>
