<svg width="80" height="80" viewBox="0 0 80 80" fill="none" xmlns="http://www.w3.org/2000/svg">
<g clip-path="url(#clip0_5798_9124)">
<path d="M0 4C0 1.79086 1.79086 0 4 0H76C78.2091 0 80 1.79086 80 4V76C80 78.2091 78.2091 80 76 80H4C1.79086 80 0 78.2091 0 76V4Z" fill="black"/>
<path d="M67.2481 11H37.8115C37.8115 18.3166 43.7669 24.272 51.0835 24.272H56.5284V29.4617C56.5284 36.7782 62.4838 42.7336 69.8004 42.7336V13.5523C69.8004 12.106 68.6093 11 67.2481 11Z" fill="#0082FF"/>
<path d="M52.6996 25.6338H23.2631C23.2631 32.9504 29.2184 38.9058 36.535 38.9058H41.9799V44.1805C41.9799 51.4971 47.9353 57.4525 55.2519 57.4525V28.2712C55.2519 26.8249 54.0608 25.6338 52.6996 25.6338Z" fill="url(#paint0_linear_5798_9124)"/>
<path d="M38.1513 40.2656H8.71472C8.71472 47.5822 14.6701 53.5376 21.9867 53.5376H27.3465V58.7273C27.3465 66.0439 33.3019 71.9992 40.6185 71.9992V42.7329C40.7036 41.4567 39.5125 40.2656 38.1513 40.2656Z" fill="url(#paint1_linear_5798_9124)"/>
</g>
<defs>
<linearGradient id="paint0_linear_5798_9124" x1="54.599" y1="25.6957" x2="42.0842" y2="38.6019" gradientUnits="userSpaceOnUse">
<stop offset="0.18" stop-color="#0050D3"/>
<stop offset="1" stop-color="#0082FF"/>
</linearGradient>
<linearGradient id="paint1_linear_5798_9124" x1="40.8715" y1="40.4336" x2="26.4" y2="54.5138" gradientUnits="userSpaceOnUse">
<stop offset="0.18" stop-color="#0050D3"/>
<stop offset="1" stop-color="#0082FF"/>
</linearGradient>
<clipPath id="clip0_5798_9124">
<path d="M0 4C0 1.79086 1.79086 0 4 0H76C78.2091 0 80 1.79086 80 4V76C80 78.2091 78.2091 80 76 80H4C1.79086 80 0 78.2091 0 76V4Z" fill="white"/>
</clipPath>
</defs>
</svg>
