<svg width="80" height="80" viewBox="0 0 80 80" fill="none" xmlns="http://www.w3.org/2000/svg">
<g clip-path="url(#clip0_5798_9067)">
<path d="M0 4C0 1.79086 1.79086 0 4 0H76C78.2091 0 80 1.79086 80 4V76C80 78.2091 78.2091 80 76 80H4C1.79086 80 0 78.2091 0 76V4Z" fill="black"/>
<g clip-path="url(#clip1_5798_9067)">
<path d="M9.69781 28.7412C14.3088 15.1206 27.1959 6.64191 40.8555 7.01162L36.4774 12.1848C28.3739 13.6499 21.3768 19.1834 18.6268 27.3072C14.5351 39.3941 21.3932 52.6365 33.9448 56.8859C46.4965 61.1346 59.9882 54.7807 64.0798 42.6946C66.8209 34.5977 64.6475 25.9827 59.1408 19.8995L58.8043 13.1073C69.8428 21.1192 74.9057 35.6585 70.3021 49.2573C64.6365 65.9926 46.4774 74.9664 29.7421 69.3012C13.0068 63.6357 4.03264 45.4765 9.69781 28.7412ZM49.2963 9.98094C49.46 9.91004 49.6485 9.89485 49.8304 9.9564C50.0089 10.0168 50.1464 10.1395 50.234 10.2899L50.252 10.3191L50.2679 10.3526C50.31 10.4328 50.3458 10.5248 50.3626 10.6378C50.3956 10.8604 50.4104 11.384 50.4164 11.9202L50.4178 12.0666C50.4193 12.2372 50.4199 12.4064 50.42 12.565V12.6981C50.4197 13.1317 50.416 13.4567 50.416 13.4567L50.5418 18.19L50.7276 23.6538L50.9594 33.1488C50.9594 33.1488 50.9595 33.1506 50.9595 33.154L50.9597 33.1694C50.9597 33.1728 50.9597 33.1767 50.9598 33.1809L50.9598 33.2111C50.958 33.7533 50.8468 37.7232 48.0306 40.4822C45.0025 43.4488 41.2828 43.1772 38.8628 42.3584C36.4428 41.5387 33.3235 39.495 32.72 35.2989C32.2071 31.7326 34.1032 28.7348 34.6836 27.9157L34.7223 27.8615C34.8013 27.752 34.8475 27.6944 34.8475 27.6944L40.7994 20.2929L44.2662 16.0657L47.2413 12.3819C47.2413 12.3819 47.6788 11.7959 48.1291 11.2187L48.2192 11.1036C48.3693 10.9125 48.5176 10.7267 48.6484 10.5684L48.7247 10.4769C48.8356 10.3451 48.9299 10.2391 48.996 10.175C49.0731 10.1002 49.1522 10.0515 49.2297 10.0137L49.2866 9.98484L49.2963 9.98094Z" fill="#0058CC"/>
</g>
</g>
<defs>
<clipPath id="clip0_5798_9067">
<path d="M0 4C0 1.79086 1.79086 0 4 0H76C78.2091 0 80 1.79086 80 4V76C80 78.2091 78.2091 80 76 80H4C1.79086 80 0 78.2091 0 76V4Z" fill="white"/>
</clipPath>
<clipPath id="clip1_5798_9067">
<rect width="64" height="64" fill="white" transform="translate(8 7)"/>
</clipPath>
</defs>
</svg>
