<svg width="80" height="80" viewBox="0 0 80 80" fill="none" xmlns="http://www.w3.org/2000/svg">
<g clip-path="url(#clip0_5798_9093)">
<path d="M0 4C0 1.79086 1.79086 0 4 0H76C78.2091 0 80 1.79086 80 4V76C80 78.2091 78.2091 80 76 80H4C1.79086 80 0 78.2091 0 76V4Z" fill="black"/>
<path d="M36 31.5001V12.5001H41V15.0001C41 15.0001 42 13.0002 43.5 12.5001C45 12 46.5 12 46.5 12V17.0001C46.5 17.0001 43.7766 16.579 42.5 17.5001C41.7083 18.0714 41 19.5001 41 19.5001V31.5001H36Z" fill="#00BB6C" stroke="#00BB6C"/>
<path d="M17 17.5H10.5V33L39.5 50L69 33V17.5H62.5V30L39.5 43L17 30V17.5Z" fill="#F5F5F5" stroke="#F5F5F5"/>
<path d="M39.5 55.5L10 38V46L39.5 63.5L69.5 46V38.5V38L39.5 55.5Z" fill="#00BB6C"/>
<path d="M39.5 67.5L10 50V58L39.5 75.5L69.5 58V50.5V50L39.5 67.5Z" fill="#F5F5F5"/>
</g>
<defs>
<clipPath id="clip0_5798_9093">
<path d="M0 4C0 1.79086 1.79086 0 4 0H76C78.2091 0 80 1.79086 80 4V76C80 78.2091 78.2091 80 76 80H4C1.79086 80 0 78.2091 0 76V4Z" fill="white"/>
</clipPath>
</defs>
</svg>
