<svg width="80" height="80" viewBox="0 0 80 80" fill="none" xmlns="http://www.w3.org/2000/svg">
<g clip-path="url(#clip0_5798_9106)">
<path d="M0 4C0 1.79086 1.79086 0 4 0H76C78.2091 0 80 1.79086 80 4V76C80 78.2091 78.2091 80 76 80H4C1.79086 80 0 78.2091 0 76V4Z" fill="black"/>
<g clip-path="url(#clip1_5798_9106)">
<mask id="mask0_5798_9106" style="mask-type:luminance" maskUnits="userSpaceOnUse" x="13" y="6" width="394" height="81">
<path d="M406.869 6.99023H13V86.5323H406.869V6.99023Z" fill="white"/>
</mask>
<g mask="url(#mask0_5798_9106)">
<path d="M53.5286 51.7241C52.6033 50.0431 51.7688 48.3136 51.029 46.543C53.7783 45.3436 56.2552 43.5978 58.3095 41.4115C61.5234 38.2684 63.13 33.8286 63.13 28.0918C63.13 21.4417 60.9546 16.2739 56.6035 12.5883C52.2243 8.89467 46.6476 6.92871 40.9218 7.05988H13V70.5822H26.5889V47.7539H31.7566L34.9108 47.6744C36.0813 50.5231 38.69 56.786 40.2076 60.1208L53.5286 51.7241ZM26.5889 19.7346H39.0965C45.3785 19.7346 48.5197 22.2721 48.5197 27.3473C48.5197 32.7996 45.015 35.5224 38.0055 35.516H26.5889V19.7346Z" fill="#E2401B"/>
<path d="M67.5737 66.0161L64.0129 63.4951L49.2833 73.0432L54.4411 75.0482L63.4275 75.0285L69.9442 70.3833L67.5737 66.0161Z" fill="#E2401B"/>
<path d="M55.7901 55.4062L42.1318 64.0115L45.9706 70.0264L60.5018 60.8652L55.7901 55.4062Z" fill="#E2401B"/>
</g>
</g>
</g>
<defs>
<clipPath id="clip0_5798_9106">
<path d="M0 4C0 1.79086 1.79086 0 4 0H76C78.2091 0 80 1.79086 80 4V76C80 78.2091 78.2091 80 76 80H4C1.79086 80 0 78.2091 0 76V4Z" fill="white"/>
</clipPath>
<clipPath id="clip1_5798_9106">
<rect width="57" height="68" fill="white" transform="translate(13 7)"/>
</clipPath>
</defs>
</svg>
