<svg width="80" height="80" viewBox="0 0 80 80" fill="none" xmlns="http://www.w3.org/2000/svg">
<g clip-path="url(#clip0_5798_9073)">
<path d="M0 4C0 1.79086 1.79086 0 4 0H76C78.2091 0 80 1.79086 80 4V76C80 78.2091 78.2091 80 76 80H4C1.79086 80 0 78.2091 0 76V4Z" fill="black"/>
<path d="M41.8283 43.1771C40.6475 43.9795 39.0349 43.6717 38.2319 42.4909C37.4289 41.31 37.7373 39.6969 38.9181 38.8927C40.0984 38.0903 41.7116 38.3987 42.5145 39.5795C43.3181 40.7597 43.0104 42.3735 41.8283 43.1771ZM43.4307 38.9567C42.284 37.2669 39.9834 36.8298 38.2954 37.9777C36.6062 39.1256 36.1678 41.4256 37.3163 43.1136C38.3319 44.6094 40.2499 45.122 41.8475 44.4256L43.278 46.749L44.4133 45.9777L42.9834 43.6543C44.2193 42.425 44.4481 40.4508 43.4307 38.9567ZM4 44.1354C4.53174 44.4229 5.3509 44.6384 6.27066 44.6384C8.28264 44.6384 9.303 43.6756 9.303 42.3534C9.28863 41.333 8.74252 40.6576 7.40599 40.1977C6.54371 39.9103 6.27066 39.7235 6.27066 39.3929C6.27066 39.048 6.57246 38.8324 7.10419 38.8324C7.69342 38.8324 8.31138 39.0624 8.62755 39.2205L9.0012 37.7258C8.57006 37.5103 7.8515 37.3091 7.03234 37.3091C5.29341 37.3091 4.17246 38.3007 4.17246 39.6229C4.15808 40.442 4.71856 41.2324 6.18443 41.7211C6.98922 41.9797 7.20479 42.1666 7.20479 42.5259C7.20479 42.8851 6.93174 43.1007 6.27066 43.1007C5.62395 43.1007 4.79042 42.8276 4.38802 42.5833L4 44.1354ZM13.1689 44.6528C15.0371 44.6528 16.8623 43.4744 16.8623 40.9163C16.8623 38.7893 15.4252 37.3091 13.2838 37.3091C11.0132 37.3091 9.51857 38.7606 9.51857 41.0312C9.51857 43.3019 11.0994 44.6528 13.1545 44.6528H13.1689ZM13.1976 43.0863C12.2779 43.0863 11.7749 42.1809 11.7749 40.9881C11.7749 39.939 12.1773 38.8755 13.212 38.8755C14.2036 38.8755 14.606 39.939 14.606 40.9738C14.606 42.2384 14.0743 43.0863 13.212 43.0863H13.1976ZM17.4946 44.4947H19.6791V40.442C19.6791 40.2408 19.6934 40.0396 19.7509 39.8959C19.909 39.4935 20.2683 39.0767 20.8719 39.0767C21.6623 39.0767 21.9785 39.6947 21.9785 40.6001V44.4947H24.1629V40.3414C24.1629 38.272 23.085 37.3091 21.6479 37.3091C20.4695 37.3091 19.7653 37.9845 19.4779 38.4444H19.4347L19.3341 37.4672H17.4371C17.4659 38.0995 17.4946 38.8324 17.4946 39.7091V44.4947ZM31.0467 40.3414C31.0467 38.6887 30.3138 37.3091 27.9713 37.3091C26.6922 37.3091 25.7294 37.6684 25.2407 37.9414L25.6431 39.3354C26.103 39.0624 26.8647 38.8181 27.5833 38.8181C28.6611 38.8181 28.8623 39.3498 28.8623 39.7235V39.8097C26.3761 39.8097 24.7377 40.672 24.7377 42.4971C24.7377 43.6181 25.5856 44.6528 27.0084 44.6528C27.8419 44.6528 28.5605 44.351 29.0204 43.7905H29.0635L29.1928 44.4947H31.1617C31.0755 44.1067 31.0467 43.46 31.0467 42.7989V40.3414ZM28.9342 41.9366C28.9342 42.066 28.9198 42.1953 28.891 42.3103C28.7473 42.7558 28.2874 43.1151 27.7557 43.1151C27.2671 43.1151 26.8934 42.842 26.8934 42.2815C26.8934 41.448 27.7845 41.175 28.9342 41.175V41.9366ZM32.0671 44.4947H34.2515V40.945C34.2515 40.7582 34.2659 40.6001 34.2946 40.4564C34.4383 39.7666 34.9845 39.3498 35.7892 39.3498C36.0336 39.3498 36.206 39.3785 36.3785 39.4073V37.3522C36.2204 37.3235 36.1198 37.3091 35.9186 37.3091C35.2288 37.3091 34.3809 37.7402 34.0216 38.7749H33.9641L33.8779 37.4672H32.0096C32.0527 38.0708 32.0671 38.7462 32.0671 39.7809V44.4947ZM50.6381 37.578H49.3734V41.8319C49.3734 42.0762 49.3303 42.3061 49.2584 42.4786C49.0285 43.0534 48.4393 43.6427 47.5914 43.6427C46.4561 43.6427 46.0393 42.7373 46.0393 41.4151V37.578H44.7746V41.6451C44.7746 44.0738 46.0824 44.6918 47.1746 44.6918C48.4105 44.6918 49.1578 43.9588 49.474 43.3983H49.5028L49.5746 44.5337H50.6956C50.6525 43.9876 50.6381 43.3552 50.6381 42.6223V37.578ZM52.0177 42.7373C52.0177 43.3552 52.0034 44.0594 51.9602 44.5337H53.0525L53.1243 43.384H53.1531C53.6848 44.3037 54.4752 44.6918 55.4812 44.6918C57.0333 44.6918 58.6141 43.4558 58.6141 40.9552C58.6141 38.857 57.407 37.4199 55.6824 37.4199C54.5614 37.4199 53.7567 37.9085 53.3111 38.6846H53.2824V34.3301H52.0177V42.7373ZM53.2824 40.4954C53.2824 40.2942 53.3111 40.1217 53.3543 39.9636C53.5986 39.0151 54.4034 38.4115 55.2656 38.4115C56.6165 38.4115 57.3351 39.6043 57.3351 41.0127C57.3351 42.6079 56.5591 43.6858 55.2225 43.6858C54.3171 43.6858 53.5698 43.0822 53.3255 42.2055C53.2968 42.0618 53.2824 41.9037 53.2824 41.7457V40.4954ZM65.0668 41.2858C65.0956 41.1421 65.11 40.9552 65.11 40.6965C65.11 39.4175 64.5207 37.4199 62.2501 37.4199C60.2237 37.4199 58.9734 39.0726 58.9734 41.1708C58.9734 43.2546 60.2668 44.6774 62.3938 44.6774C63.5004 44.6774 64.2764 44.4331 64.7219 44.2319L64.492 43.3265C64.0321 43.5277 63.4716 43.6858 62.5662 43.6858C61.3016 43.6858 60.2237 42.9816 60.195 41.2858H65.0668ZM60.2094 40.3804C60.31 39.5037 60.8561 38.3253 62.1495 38.3253C63.5579 38.3253 63.9028 39.5756 63.8884 40.3804H60.2094Z" fill="white"/>
<path d="M73.8475 44.5092H72.9637C72.9637 37.39 67.0894 31.5984 59.8696 31.5984V30.7145C67.5774 30.7145 73.8475 36.9014 73.8475 44.5092ZM74.4583 39.7606C73.3978 35.2948 69.7786 31.5672 65.2409 30.2642L65.4445 29.5558C70.2337 30.9313 74.0535 34.869 75.1744 39.59L74.4583 39.7606ZM75.4535 35.5696C74.3601 33.1852 72.4954 31.1055 70.2074 29.7145L70.5134 29.2109C72.9026 30.6636 74.8457 32.8331 75.9882 35.3235L75.4535 35.5696Z" fill="#499CD2"/>
</g>
<defs>
<clipPath id="clip0_5798_9073">
<path d="M0 4C0 1.79086 1.79086 0 4 0H76C78.2091 0 80 1.79086 80 4V76C80 78.2091 78.2091 80 76 80H4C1.79086 80 0 78.2091 0 76V4Z" fill="white"/>
</clipPath>
</defs>
</svg>
