<svg width="151" height="34" viewBox="0 0 151 34" fill="none" xmlns="http://www.w3.org/2000/svg">
<path d="M0 8C0 3.58172 3.58172 0 8 0H143C147.418 0 151 3.58172 151 8V26C151 30.4183 147.418 34 143 34H8C3.58172 34 0 30.4183 0 26V8Z" fill="#3F83F8"/>
<rect width="12" height="12" transform="translate(12 11)" fill="white" fill-opacity="0.01" style="mix-blend-mode:multiply"/>
<path d="M23.25 17.75C23.2508 17.3745 23.1575 17.0048 22.9788 16.6745C22.8001 16.3443 22.5415 16.064 22.2267 15.8593C21.912 15.6546 21.5509 15.5319 21.1766 15.5024C20.8022 15.4729 20.4265 15.5376 20.0835 15.6906C19.7406 15.8435 19.4414 16.0799 19.2132 16.3781C18.985 16.6763 18.835 17.0269 18.777 17.3979C18.719 17.7689 18.7548 18.1485 18.8811 18.5021C19.0073 18.8558 19.2201 19.1722 19.5 19.4225V22.25L21 21.5403L22.5 22.25V19.4225C22.7358 19.2123 22.9244 18.9546 23.0537 18.6664C23.1829 18.3782 23.2498 18.0659 23.25 17.75ZM21.75 21.065L21 20.71L20.25 21.065V19.8687C20.7347 20.0438 21.2653 20.0438 21.75 19.8687V21.065ZM21 19.25C20.7033 19.25 20.4133 19.162 20.1666 18.9972C19.92 18.8324 19.7277 18.5981 19.6142 18.324C19.5006 18.0499 19.4709 17.7483 19.5288 17.4574C19.5867 17.1664 19.7296 16.8991 19.9393 16.6893C20.1491 16.4796 20.4164 16.3367 20.7074 16.2788C20.9983 16.2209 21.2999 16.2506 21.574 16.3642C21.8481 16.4777 22.0824 16.67 22.2472 16.9166C22.412 17.1633 22.5 17.4533 22.5 17.75C22.4996 18.1477 22.3414 18.529 22.0602 18.8102C21.779 19.0914 21.3977 19.2496 21 19.25Z" fill="white"/>
<path d="M18 16.25H15.375V17H18V16.25Z" fill="white"/>
<path d="M19.125 14H15.375V14.75H19.125V14Z" fill="white"/>
<path d="M14.25 22.25C14.0512 22.2498 13.8605 22.1707 13.7199 22.0301C13.5793 21.8895 13.5002 21.6988 13.5 21.5V12.5C13.5002 12.3012 13.5793 12.1105 13.7199 11.9699C13.8605 11.8293 14.0512 11.7502 14.25 11.75H20.25C20.4488 11.7502 20.6395 11.8293 20.7801 11.9699C20.9207 12.1105 20.9998 12.3012 21 12.5V14H20.25V12.5H14.25V21.5H18V22.25H14.25Z" fill="white"/>
<path d="M33.7216 12.2727L36.1506 19.3807H36.2486L38.6776 12.2727H40.1009L36.9602 21H35.4389L32.2983 12.2727H33.7216ZM41.2589 21V14.4545H42.533V21H41.2589ZM41.9023 13.4446C41.6808 13.4446 41.4904 13.3707 41.3313 13.223C41.1751 13.0724 41.0969 12.8935 41.0969 12.6861C41.0969 12.4759 41.1751 12.2969 41.3313 12.1491C41.4904 11.9986 41.6808 11.9233 41.9023 11.9233C42.1239 11.9233 42.3129 11.9986 42.4691 12.1491C42.6282 12.2969 42.7077 12.4759 42.7077 12.6861C42.7077 12.8935 42.6282 13.0724 42.4691 13.223C42.3129 13.3707 42.1239 13.4446 41.9023 13.4446ZM47.0682 21.1321C46.4233 21.1321 45.8679 20.9943 45.402 20.7188C44.9389 20.4403 44.581 20.0497 44.3281 19.5469C44.0781 19.0412 43.9531 18.4489 43.9531 17.7699C43.9531 17.0994 44.0781 16.5085 44.3281 15.9972C44.581 15.4858 44.9332 15.0866 45.3849 14.7997C45.8395 14.5128 46.3707 14.3693 46.9787 14.3693C47.348 14.3693 47.706 14.4304 48.0526 14.5526C48.3991 14.6747 48.7102 14.8665 48.9858 15.1278C49.2614 15.3892 49.4787 15.7287 49.6378 16.1463C49.7969 16.5611 49.8764 17.0653 49.8764 17.6591V18.1108H44.6733V17.1562H48.6278C48.6278 16.821 48.5597 16.5241 48.4233 16.2656C48.2869 16.0043 48.0952 15.7983 47.848 15.6477C47.6037 15.4972 47.3168 15.4219 46.9872 15.4219C46.6293 15.4219 46.3168 15.5099 46.0497 15.6861C45.7855 15.8594 45.581 16.0866 45.4361 16.3679C45.294 16.6463 45.223 16.9489 45.223 17.2756V18.0213C45.223 18.4588 45.2997 18.831 45.4531 19.1378C45.6094 19.4446 45.8267 19.679 46.1051 19.8409C46.3835 20 46.7088 20.0795 47.081 20.0795C47.3224 20.0795 47.5426 20.0455 47.7415 19.9773C47.9403 19.9062 48.1122 19.8011 48.2571 19.6619C48.402 19.5227 48.5128 19.3509 48.5895 19.1463L49.7955 19.3636C49.6989 19.7187 49.5256 20.0298 49.2756 20.2969C49.0284 20.5611 48.7173 20.767 48.3423 20.9148C47.9702 21.0597 47.5455 21.1321 47.0682 21.1321ZM52.6974 21L50.7713 14.4545H52.0881L53.3707 19.2614H53.4347L54.7216 14.4545H56.0384L57.3168 19.2401H57.3807L58.6548 14.4545H59.9716L58.0497 21H56.75L55.4205 16.2741H55.3224L53.9929 21H52.6974ZM71.7074 15.1108H70.3778C70.3267 14.8267 70.2315 14.5767 70.0923 14.3608C69.9531 14.1449 69.7827 13.9616 69.581 13.8111C69.3793 13.6605 69.1534 13.5469 68.9034 13.4702C68.6563 13.3935 68.3935 13.3551 68.1151 13.3551C67.6122 13.3551 67.1619 13.4815 66.7642 13.7344C66.3693 13.9872 66.0568 14.358 65.8267 14.8466C65.5994 15.3352 65.4858 15.9318 65.4858 16.6364C65.4858 17.3466 65.5994 17.946 65.8267 18.4347C66.0568 18.9233 66.3707 19.2926 66.7685 19.5426C67.1662 19.7926 67.6136 19.9176 68.1108 19.9176C68.3864 19.9176 68.6477 19.8807 68.8949 19.8068C69.1449 19.7301 69.3707 19.6179 69.5724 19.4702C69.7741 19.3224 69.9446 19.142 70.0838 18.929C70.2259 18.7131 70.3239 18.4659 70.3778 18.1875L71.7074 18.1918C71.6364 18.6207 71.4986 19.0156 71.294 19.3764C71.0923 19.7344 70.8324 20.044 70.5142 20.3054C70.1989 20.5639 69.8381 20.7642 69.4318 20.9062C69.0256 21.0483 68.5824 21.1193 68.1023 21.1193C67.3466 21.1193 66.6733 20.9403 66.0824 20.5824C65.4915 20.2216 65.0256 19.706 64.6847 19.0355C64.3466 18.3651 64.1776 17.5653 64.1776 16.6364C64.1776 15.7045 64.348 14.9048 64.6889 14.2372C65.0298 13.5668 65.4957 13.0526 66.0866 12.6946C66.6776 12.3338 67.3494 12.1534 68.1023 12.1534C68.5653 12.1534 68.9972 12.2202 69.3977 12.3537C69.8011 12.4844 70.1634 12.6776 70.4844 12.9332C70.8054 13.1861 71.071 13.4957 71.2812 13.8622C71.4915 14.2259 71.6335 14.642 71.7074 15.1108ZM75.9379 21.1321C75.3242 21.1321 74.7887 20.9915 74.3313 20.7102C73.8739 20.429 73.5188 20.0355 73.266 19.5298C73.0131 19.0241 72.8867 18.4332 72.8867 17.7571C72.8867 17.0781 73.0131 16.4844 73.266 15.9759C73.5188 15.4673 73.8739 15.0724 74.3313 14.7912C74.7887 14.5099 75.3242 14.3693 75.9379 14.3693C76.5515 14.3693 77.087 14.5099 77.5444 14.7912C78.0018 15.0724 78.3569 15.4673 78.6097 15.9759C78.8626 16.4844 78.989 17.0781 78.989 17.7571C78.989 18.4332 78.8626 19.0241 78.6097 19.5298C78.3569 20.0355 78.0018 20.429 77.5444 20.7102C77.087 20.9915 76.5515 21.1321 75.9379 21.1321ZM75.9421 20.0625C76.3398 20.0625 76.6694 19.9574 76.9308 19.7472C77.1921 19.5369 77.3853 19.2571 77.5103 18.9077C77.6381 18.5582 77.7021 18.1733 77.7021 17.7528C77.7021 17.3352 77.6381 16.9517 77.5103 16.6023C77.3853 16.25 77.1921 15.9673 76.9308 15.7543C76.6694 15.5412 76.3398 15.4347 75.9421 15.4347C75.5415 15.4347 75.2092 15.5412 74.945 15.7543C74.6836 15.9673 74.489 16.25 74.3612 16.6023C74.2362 16.9517 74.1737 17.3352 74.1737 17.7528C74.1737 18.1733 74.2362 18.5582 74.3612 18.9077C74.489 19.2571 74.6836 19.5369 74.945 19.7472C75.2092 19.9574 75.5415 20.0625 75.9421 20.0625ZM81.6854 17.1136V21H80.4112V14.4545H81.6342V15.5199H81.7152C81.8658 15.1733 82.1016 14.8949 82.4226 14.6847C82.7464 14.4744 83.1541 14.3693 83.6456 14.3693C84.0916 14.3693 84.4822 14.4631 84.8175 14.6506C85.1527 14.8352 85.4126 15.1108 85.5973 15.4773C85.782 15.8437 85.8743 16.2969 85.8743 16.8366V21H84.6001V16.9901C84.6001 16.5156 84.4766 16.1449 84.2294 15.8778C83.9822 15.608 83.6428 15.473 83.2109 15.473C82.9155 15.473 82.6527 15.5369 82.4226 15.6648C82.1953 15.7926 82.0149 15.9801 81.8814 16.2273C81.7507 16.4716 81.6854 16.767 81.6854 17.1136ZM90.6385 14.4545V15.4773H87.0632V14.4545H90.6385ZM88.022 12.8864H89.2962V19.0781C89.2962 19.3253 89.3331 19.5114 89.407 19.6364C89.4808 19.7585 89.576 19.8423 89.6925 19.8878C89.8118 19.9304 89.9411 19.9517 90.0803 19.9517C90.1825 19.9517 90.272 19.9446 90.3487 19.9304C90.4254 19.9162 90.4851 19.9048 90.5277 19.8963L90.7578 20.9489C90.6839 20.9773 90.5788 21.0057 90.4425 21.0341C90.3061 21.0653 90.1357 21.0824 89.9311 21.0852C89.5959 21.0909 89.2834 21.0312 88.9936 20.9062C88.7038 20.7812 88.4695 20.5881 88.2905 20.3267C88.1115 20.0653 88.022 19.7372 88.022 19.3423V12.8864ZM92.0479 21V14.4545H93.2795V15.4943H93.3477C93.467 15.142 93.6772 14.8651 93.9783 14.6634C94.2823 14.4588 94.6261 14.3565 95.0096 14.3565C95.0891 14.3565 95.1829 14.3594 95.2908 14.3651C95.4016 14.3707 95.4883 14.3778 95.5508 14.3864V15.6051C95.4996 15.5909 95.4087 15.5753 95.2781 15.5582C95.1474 15.5384 95.0167 15.5284 94.886 15.5284C94.5849 15.5284 94.3164 15.5923 94.0806 15.7202C93.8477 15.8452 93.663 16.0199 93.5266 16.2443C93.3903 16.4659 93.3221 16.7187 93.3221 17.0028V21H92.0479ZM98.4996 21.1449C98.0849 21.1449 97.7099 21.0682 97.3746 20.9148C97.0394 20.7585 96.7738 20.5327 96.5778 20.2372C96.3846 19.9418 96.288 19.5795 96.288 19.1506C96.288 18.7812 96.359 18.4773 96.5011 18.2386C96.6431 18 96.8349 17.8111 97.0763 17.6719C97.3178 17.5327 97.5877 17.4276 97.886 17.3565C98.1843 17.2855 98.4883 17.2315 98.7979 17.1946C99.19 17.1491 99.5082 17.1122 99.7525 17.0838C99.9968 17.0526 100.174 17.0028 100.285 16.9347C100.396 16.8665 100.451 16.7557 100.451 16.6023V16.5724C100.451 16.2003 100.346 15.9119 100.136 15.7074C99.9286 15.5028 99.619 15.4006 99.207 15.4006C98.7781 15.4006 98.44 15.4957 98.1928 15.6861C97.9485 15.8736 97.7795 16.0824 97.6857 16.3125L96.4883 16.0398C96.6303 15.642 96.8377 15.321 97.1104 15.0767C97.386 14.8295 97.7028 14.6506 98.0607 14.5398C98.4187 14.4261 98.7951 14.3693 99.19 14.3693C99.4513 14.3693 99.7283 14.4006 100.021 14.4631C100.316 14.5227 100.592 14.6335 100.848 14.7955C101.106 14.9574 101.318 15.1889 101.483 15.4901C101.647 15.7884 101.73 16.1761 101.73 16.6534V21H100.485V20.1051H100.434C100.352 20.2699 100.228 20.4318 100.064 20.5909C99.8988 20.75 99.6871 20.8821 99.4286 20.9872C99.1701 21.0923 98.8604 21.1449 98.4996 21.1449ZM98.7766 20.1222C99.1289 20.1222 99.43 20.0526 99.68 19.9134C99.9329 19.7741 100.125 19.5923 100.255 19.3679C100.389 19.1406 100.456 18.8977 100.456 18.6392V17.7955C100.41 17.8409 100.322 17.8835 100.191 17.9233C100.064 17.9602 99.9173 17.9929 99.7525 18.0213C99.5877 18.0469 99.4272 18.071 99.271 18.0938C99.1147 18.1136 98.984 18.1307 98.8789 18.1449C98.6317 18.1761 98.4059 18.2287 98.2013 18.3026C97.9996 18.3764 97.8377 18.483 97.7156 18.6222C97.5962 18.7585 97.5366 18.9403 97.5366 19.1676C97.5366 19.483 97.6531 19.7216 97.886 19.8835C98.119 20.0426 98.4158 20.1222 98.7766 20.1222ZM106.184 21.1321C105.55 21.1321 105.005 20.9886 104.548 20.7017C104.093 20.4119 103.744 20.0128 103.499 19.5043C103.255 18.9957 103.133 18.4134 103.133 17.7571C103.133 17.0923 103.258 16.5057 103.508 15.9972C103.758 15.4858 104.11 15.0866 104.565 14.7997C105.019 14.5128 105.555 14.3693 106.171 14.3693C106.668 14.3693 107.112 14.4616 107.501 14.6463C107.89 14.8281 108.204 15.0838 108.442 15.4134C108.684 15.7429 108.827 16.1278 108.873 16.5682H107.633C107.565 16.2614 107.408 15.9972 107.164 15.7756C106.923 15.554 106.599 15.4432 106.192 15.4432C105.837 15.4432 105.526 15.5369 105.259 15.7244C104.995 15.9091 104.789 16.1733 104.641 16.517C104.494 16.858 104.42 17.2614 104.42 17.7273C104.42 18.2045 104.492 18.6165 104.637 18.9631C104.782 19.3097 104.987 19.5781 105.251 19.7685C105.518 19.9588 105.832 20.054 106.192 20.054C106.434 20.054 106.653 20.0099 106.849 19.9219C107.048 19.831 107.214 19.7017 107.347 19.5341C107.484 19.3665 107.579 19.1648 107.633 18.929H108.873C108.827 19.3523 108.69 19.7301 108.46 20.0625C108.229 20.3949 107.921 20.6562 107.535 20.8466C107.151 21.0369 106.701 21.1321 106.184 21.1321ZM113.291 14.4545V15.4773H109.716V14.4545H113.291ZM110.674 12.8864H111.949V19.0781C111.949 19.3253 111.985 19.5114 112.059 19.6364C112.133 19.7585 112.228 19.8423 112.345 19.8878C112.464 19.9304 112.593 19.9517 112.733 19.9517C112.835 19.9517 112.924 19.9446 113.001 19.9304C113.078 19.9162 113.137 19.9048 113.18 19.8963L113.41 20.9489C113.336 20.9773 113.231 21.0057 113.095 21.0341C112.958 21.0653 112.788 21.0824 112.583 21.0852C112.248 21.0909 111.936 21.0312 111.646 20.9062C111.356 20.7812 111.122 20.5881 110.943 20.3267C110.764 20.0653 110.674 19.7372 110.674 19.3423V12.8864ZM119.295 12.2727V21H117.978V12.2727H119.295ZM122.385 17.1136V21H121.11V14.4545H122.333V15.5199H122.414C122.565 15.1733 122.801 14.8949 123.122 14.6847C123.446 14.4744 123.853 14.3693 124.345 14.3693C124.791 14.3693 125.181 14.4631 125.517 14.6506C125.852 14.8352 126.112 15.1108 126.297 15.4773C126.481 15.8437 126.574 16.2969 126.574 16.8366V21H125.299V16.9901C125.299 16.5156 125.176 16.1449 124.929 15.8778C124.681 15.608 124.342 15.473 123.91 15.473C123.615 15.473 123.352 15.5369 123.122 15.6648C122.895 15.7926 122.714 15.9801 122.581 16.2273C122.45 16.4716 122.385 16.767 122.385 17.1136ZM131.397 14.4545V15.4773H127.699V14.4545H131.397ZM128.713 21V13.696C128.713 13.2869 128.802 12.9474 128.981 12.6776C129.16 12.4048 129.397 12.2017 129.693 12.0682C129.988 11.9318 130.309 11.8636 130.656 11.8636C130.912 11.8636 131.13 11.8849 131.312 11.9276C131.494 11.9673 131.629 12.0043 131.717 12.0384L131.419 13.0696C131.359 13.0526 131.282 13.0327 131.189 13.0099C131.095 12.9844 130.981 12.9716 130.848 12.9716C130.538 12.9716 130.316 13.0483 130.183 13.2017C130.052 13.3551 129.987 13.5767 129.987 13.8665V21H128.713ZM135.211 21.1321C134.598 21.1321 134.062 20.9915 133.605 20.7102C133.147 20.429 132.792 20.0355 132.539 19.5298C132.287 19.0241 132.16 18.4332 132.16 17.7571C132.16 17.0781 132.287 16.4844 132.539 15.9759C132.792 15.4673 133.147 15.0724 133.605 14.7912C134.062 14.5099 134.598 14.3693 135.211 14.3693C135.825 14.3693 136.36 14.5099 136.818 14.7912C137.275 15.0724 137.63 15.4673 137.883 15.9759C138.136 16.4844 138.262 17.0781 138.262 17.7571C138.262 18.4332 138.136 19.0241 137.883 19.5298C137.63 20.0355 137.275 20.429 136.818 20.7102C136.36 20.9915 135.825 21.1321 135.211 21.1321ZM135.216 20.0625C135.613 20.0625 135.943 19.9574 136.204 19.7472C136.466 19.5369 136.659 19.2571 136.784 18.9077C136.912 18.5582 136.975 18.1733 136.975 17.7528C136.975 17.3352 136.912 16.9517 136.784 16.6023C136.659 16.25 136.466 15.9673 136.204 15.7543C135.943 15.5412 135.613 15.4347 135.216 15.4347C134.815 15.4347 134.483 15.5412 134.218 15.7543C133.957 15.9673 133.762 16.25 133.635 16.6023C133.51 16.9517 133.447 17.3352 133.447 17.7528C133.447 18.1733 133.51 18.5582 133.635 18.9077C133.762 19.2571 133.957 19.5369 134.218 19.7472C134.483 19.9574 134.815 20.0625 135.216 20.0625Z" fill="white"/>
</svg>
