<svg width="151" height="26" viewBox="0 0 151 26" fill="none" xmlns="http://www.w3.org/2000/svg">
<path d="M0 8C0 3.58172 3.58172 0 8 0H143C147.418 0 151 3.58172 151 8V18C151 22.4183 147.418 26 143 26H8C3.58172 26 0 22.4183 0 18V8Z" fill="#3F83F8"/>
<rect width="12" height="12" transform="translate(12 7)" fill="white" fill-opacity="0.01" style="mix-blend-mode:multiply"/>
<path d="M23.25 13.75C23.2508 13.3745 23.1575 13.0048 22.9788 12.6745C22.8001 12.3443 22.5415 12.064 22.2267 11.8593C21.912 11.6546 21.5509 11.5319 21.1766 11.5024C20.8022 11.4729 20.4265 11.5376 20.0835 11.6906C19.7406 11.8435 19.4414 12.0799 19.2132 12.3781C18.985 12.6763 18.835 13.0269 18.777 13.3979C18.719 13.7689 18.7548 14.1485 18.8811 14.5021C19.0073 14.8558 19.2201 15.1722 19.5 15.4225V18.25L21 17.5403L22.5 18.25V15.4225C22.7358 15.2123 22.9244 14.9546 23.0537 14.6664C23.1829 14.3782 23.2498 14.0659 23.25 13.75ZM21.75 17.065L21 16.71L20.25 17.065V15.8687C20.7347 16.0438 21.2653 16.0438 21.75 15.8687V17.065ZM21 15.25C20.7033 15.25 20.4133 15.162 20.1666 14.9972C19.92 14.8324 19.7277 14.5981 19.6142 14.324C19.5006 14.0499 19.4709 13.7483 19.5288 13.4574C19.5867 13.1664 19.7296 12.8991 19.9393 12.6893C20.1491 12.4796 20.4164 12.3367 20.7074 12.2788C20.9983 12.2209 21.2999 12.2506 21.574 12.3642C21.8481 12.4777 22.0824 12.67 22.2472 12.9166C22.412 13.1633 22.5 13.4533 22.5 13.75C22.4996 14.1477 22.3414 14.529 22.0602 14.8102C21.779 15.0914 21.3977 15.2496 21 15.25Z" fill="white"/>
<path d="M18 12.25H15.375V13H18V12.25Z" fill="white"/>
<path d="M19.125 10H15.375V10.75H19.125V10Z" fill="white"/>
<path d="M14.25 18.25C14.0512 18.2498 13.8605 18.1707 13.7199 18.0301C13.5793 17.8895 13.5002 17.6988 13.5 17.5V8.5C13.5002 8.30115 13.5793 8.11051 13.7199 7.9699C13.8605 7.82929 14.0512 7.75021 14.25 7.75H20.25C20.4488 7.75021 20.6395 7.82929 20.7801 7.9699C20.9207 8.11051 20.9998 8.30115 21 8.5V10H20.25V8.5H14.25V17.5H18V18.25H14.25Z" fill="white"/>
<path d="M33.7216 8.27273L36.1506 15.3807H36.2486L38.6776 8.27273H40.1009L36.9602 17H35.4389L32.2983 8.27273H33.7216ZM41.2589 17V10.4545H42.533V17H41.2589ZM41.9023 9.4446C41.6808 9.4446 41.4904 9.37074 41.3313 9.22301C41.1751 9.07244 41.0969 8.89347 41.0969 8.68608C41.0969 8.47585 41.1751 8.29687 41.3313 8.14915C41.4904 7.99858 41.6808 7.9233 41.9023 7.9233C42.1239 7.9233 42.3129 7.99858 42.4691 8.14915C42.6282 8.29687 42.7077 8.47585 42.7077 8.68608C42.7077 8.89347 42.6282 9.07244 42.4691 9.22301C42.3129 9.37074 42.1239 9.4446 41.9023 9.4446ZM47.0682 17.1321C46.4233 17.1321 45.8679 16.9943 45.402 16.7188C44.9389 16.4403 44.581 16.0497 44.3281 15.5469C44.0781 15.0412 43.9531 14.4489 43.9531 13.7699C43.9531 13.0994 44.0781 12.5085 44.3281 11.9972C44.581 11.4858 44.9332 11.0866 45.3849 10.7997C45.8395 10.5128 46.3707 10.3693 46.9787 10.3693C47.348 10.3693 47.706 10.4304 48.0526 10.5526C48.3991 10.6747 48.7102 10.8665 48.9858 11.1278C49.2614 11.3892 49.4787 11.7287 49.6378 12.1463C49.7969 12.5611 49.8764 13.0653 49.8764 13.6591V14.1108H44.6733V13.1562H48.6278C48.6278 12.821 48.5597 12.5241 48.4233 12.2656C48.2869 12.0043 48.0952 11.7983 47.848 11.6477C47.6037 11.4972 47.3168 11.4219 46.9872 11.4219C46.6293 11.4219 46.3168 11.5099 46.0497 11.6861C45.7855 11.8594 45.581 12.0866 45.4361 12.3679C45.294 12.6463 45.223 12.9489 45.223 13.2756V14.0213C45.223 14.4588 45.2997 14.831 45.4531 15.1378C45.6094 15.4446 45.8267 15.679 46.1051 15.8409C46.3835 16 46.7088 16.0795 47.081 16.0795C47.3224 16.0795 47.5426 16.0455 47.7415 15.9773C47.9403 15.9062 48.1122 15.8011 48.2571 15.6619C48.402 15.5227 48.5128 15.3509 48.5895 15.1463L49.7955 15.3636C49.6989 15.7187 49.5256 16.0298 49.2756 16.2969C49.0284 16.5611 48.7173 16.767 48.3423 16.9148C47.9702 17.0597 47.5455 17.1321 47.0682 17.1321ZM52.6974 17L50.7713 10.4545H52.0881L53.3707 15.2614H53.4347L54.7216 10.4545H56.0384L57.3168 15.2401H57.3807L58.6548 10.4545H59.9716L58.0497 17H56.75L55.4205 12.2741H55.3224L53.9929 17H52.6974ZM71.7074 11.1108H70.3778C70.3267 10.8267 70.2315 10.5767 70.0923 10.3608C69.9531 10.1449 69.7827 9.96165 69.581 9.81108C69.3793 9.66051 69.1534 9.54687 68.9034 9.47017C68.6563 9.39347 68.3935 9.35511 68.1151 9.35511C67.6122 9.35511 67.1619 9.48153 66.7642 9.73438C66.3693 9.98722 66.0568 10.358 65.8267 10.8466C65.5994 11.3352 65.4858 11.9318 65.4858 12.6364C65.4858 13.3466 65.5994 13.946 65.8267 14.4347C66.0568 14.9233 66.3707 15.2926 66.7685 15.5426C67.1662 15.7926 67.6136 15.9176 68.1108 15.9176C68.3864 15.9176 68.6477 15.8807 68.8949 15.8068C69.1449 15.7301 69.3707 15.6179 69.5724 15.4702C69.7741 15.3224 69.9446 15.142 70.0838 14.929C70.2259 14.7131 70.3239 14.4659 70.3778 14.1875L71.7074 14.1918C71.6364 14.6207 71.4986 15.0156 71.294 15.3764C71.0923 15.7344 70.8324 16.044 70.5142 16.3054C70.1989 16.5639 69.8381 16.7642 69.4318 16.9062C69.0256 17.0483 68.5824 17.1193 68.1023 17.1193C67.3466 17.1193 66.6733 16.9403 66.0824 16.5824C65.4915 16.2216 65.0256 15.706 64.6847 15.0355C64.3466 14.3651 64.1776 13.5653 64.1776 12.6364C64.1776 11.7045 64.348 10.9048 64.6889 10.2372C65.0298 9.56676 65.4957 9.05256 66.0866 8.6946C66.6776 8.33381 67.3494 8.15341 68.1023 8.15341C68.5653 8.15341 68.9972 8.22017 69.3977 8.35369C69.8011 8.48437 70.1634 8.67756 70.4844 8.93324C70.8054 9.18608 71.071 9.49574 71.2812 9.86222C71.4915 10.2259 71.6335 10.642 71.7074 11.1108ZM75.9379 17.1321C75.3242 17.1321 74.7887 16.9915 74.3313 16.7102C73.8739 16.429 73.5188 16.0355 73.266 15.5298C73.0131 15.0241 72.8867 14.4332 72.8867 13.7571C72.8867 13.0781 73.0131 12.4844 73.266 11.9759C73.5188 11.4673 73.8739 11.0724 74.3313 10.7912C74.7887 10.5099 75.3242 10.3693 75.9379 10.3693C76.5515 10.3693 77.087 10.5099 77.5444 10.7912C78.0018 11.0724 78.3569 11.4673 78.6097 11.9759C78.8626 12.4844 78.989 13.0781 78.989 13.7571C78.989 14.4332 78.8626 15.0241 78.6097 15.5298C78.3569 16.0355 78.0018 16.429 77.5444 16.7102C77.087 16.9915 76.5515 17.1321 75.9379 17.1321ZM75.9421 16.0625C76.3398 16.0625 76.6694 15.9574 76.9308 15.7472C77.1921 15.5369 77.3853 15.2571 77.5103 14.9077C77.6381 14.5582 77.7021 14.1733 77.7021 13.7528C77.7021 13.3352 77.6381 12.9517 77.5103 12.6023C77.3853 12.25 77.1921 11.9673 76.9308 11.7543C76.6694 11.5412 76.3398 11.4347 75.9421 11.4347C75.5415 11.4347 75.2092 11.5412 74.945 11.7543C74.6836 11.9673 74.489 12.25 74.3612 12.6023C74.2362 12.9517 74.1737 13.3352 74.1737 13.7528C74.1737 14.1733 74.2362 14.5582 74.3612 14.9077C74.489 15.2571 74.6836 15.5369 74.945 15.7472C75.2092 15.9574 75.5415 16.0625 75.9421 16.0625ZM81.6854 13.1136V17H80.4112V10.4545H81.6342V11.5199H81.7152C81.8658 11.1733 82.1016 10.8949 82.4226 10.6847C82.7464 10.4744 83.1541 10.3693 83.6456 10.3693C84.0916 10.3693 84.4822 10.4631 84.8175 10.6506C85.1527 10.8352 85.4126 11.1108 85.5973 11.4773C85.782 11.8437 85.8743 12.2969 85.8743 12.8366V17H84.6001V12.9901C84.6001 12.5156 84.4766 12.1449 84.2294 11.8778C83.9822 11.608 83.6428 11.473 83.2109 11.473C82.9155 11.473 82.6527 11.5369 82.4226 11.6648C82.1953 11.7926 82.0149 11.9801 81.8814 12.2273C81.7507 12.4716 81.6854 12.767 81.6854 13.1136ZM90.6385 10.4545V11.4773H87.0632V10.4545H90.6385ZM88.022 8.88636H89.2962V15.0781C89.2962 15.3253 89.3331 15.5114 89.407 15.6364C89.4808 15.7585 89.576 15.8423 89.6925 15.8878C89.8118 15.9304 89.9411 15.9517 90.0803 15.9517C90.1825 15.9517 90.272 15.9446 90.3487 15.9304C90.4254 15.9162 90.4851 15.9048 90.5277 15.8963L90.7578 16.9489C90.6839 16.9773 90.5788 17.0057 90.4425 17.0341C90.3061 17.0653 90.1357 17.0824 89.9311 17.0852C89.5959 17.0909 89.2834 17.0312 88.9936 16.9062C88.7038 16.7812 88.4695 16.5881 88.2905 16.3267C88.1115 16.0653 88.022 15.7372 88.022 15.3423V8.88636ZM92.0479 17V10.4545H93.2795V11.4943H93.3477C93.467 11.142 93.6772 10.8651 93.9783 10.6634C94.2823 10.4588 94.6261 10.3565 95.0096 10.3565C95.0891 10.3565 95.1829 10.3594 95.2908 10.3651C95.4016 10.3707 95.4883 10.3778 95.5508 10.3864V11.6051C95.4996 11.5909 95.4087 11.5753 95.2781 11.5582C95.1474 11.5384 95.0167 11.5284 94.886 11.5284C94.5849 11.5284 94.3164 11.5923 94.0806 11.7202C93.8477 11.8452 93.663 12.0199 93.5266 12.2443C93.3903 12.4659 93.3221 12.7187 93.3221 13.0028V17H92.0479ZM98.4996 17.1449C98.0849 17.1449 97.7099 17.0682 97.3746 16.9148C97.0394 16.7585 96.7738 16.5327 96.5778 16.2372C96.3846 15.9418 96.288 15.5795 96.288 15.1506C96.288 14.7812 96.359 14.4773 96.5011 14.2386C96.6431 14 96.8349 13.8111 97.0763 13.6719C97.3178 13.5327 97.5877 13.4276 97.886 13.3565C98.1843 13.2855 98.4883 13.2315 98.7979 13.1946C99.19 13.1491 99.5082 13.1122 99.7525 13.0838C99.9968 13.0526 100.174 13.0028 100.285 12.9347C100.396 12.8665 100.451 12.7557 100.451 12.6023V12.5724C100.451 12.2003 100.346 11.9119 100.136 11.7074C99.9286 11.5028 99.619 11.4006 99.207 11.4006C98.7781 11.4006 98.44 11.4957 98.1928 11.6861C97.9485 11.8736 97.7795 12.0824 97.6857 12.3125L96.4883 12.0398C96.6303 11.642 96.8377 11.321 97.1104 11.0767C97.386 10.8295 97.7028 10.6506 98.0607 10.5398C98.4187 10.4261 98.7951 10.3693 99.19 10.3693C99.4513 10.3693 99.7283 10.4006 100.021 10.4631C100.316 10.5227 100.592 10.6335 100.848 10.7955C101.106 10.9574 101.318 11.1889 101.483 11.4901C101.647 11.7884 101.73 12.1761 101.73 12.6534V17H100.485V16.1051H100.434C100.352 16.2699 100.228 16.4318 100.064 16.5909C99.8988 16.75 99.6871 16.8821 99.4286 16.9872C99.1701 17.0923 98.8604 17.1449 98.4996 17.1449ZM98.7766 16.1222C99.1289 16.1222 99.43 16.0526 99.68 15.9134C99.9329 15.7741 100.125 15.5923 100.255 15.3679C100.389 15.1406 100.456 14.8977 100.456 14.6392V13.7955C100.41 13.8409 100.322 13.8835 100.191 13.9233C100.064 13.9602 99.9173 13.9929 99.7525 14.0213C99.5877 14.0469 99.4272 14.071 99.271 14.0938C99.1147 14.1136 98.984 14.1307 98.8789 14.1449C98.6317 14.1761 98.4059 14.2287 98.2013 14.3026C97.9996 14.3764 97.8377 14.483 97.7156 14.6222C97.5962 14.7585 97.5366 14.9403 97.5366 15.1676C97.5366 15.483 97.6531 15.7216 97.886 15.8835C98.119 16.0426 98.4158 16.1222 98.7766 16.1222ZM106.184 17.1321C105.55 17.1321 105.005 16.9886 104.548 16.7017C104.093 16.4119 103.744 16.0128 103.499 15.5043C103.255 14.9957 103.133 14.4134 103.133 13.7571C103.133 13.0923 103.258 12.5057 103.508 11.9972C103.758 11.4858 104.11 11.0866 104.565 10.7997C105.019 10.5128 105.555 10.3693 106.171 10.3693C106.668 10.3693 107.112 10.4616 107.501 10.6463C107.89 10.8281 108.204 11.0838 108.442 11.4134C108.684 11.7429 108.827 12.1278 108.873 12.5682H107.633C107.565 12.2614 107.408 11.9972 107.164 11.7756C106.923 11.554 106.599 11.4432 106.192 11.4432C105.837 11.4432 105.526 11.5369 105.259 11.7244C104.995 11.9091 104.789 12.1733 104.641 12.517C104.494 12.858 104.42 13.2614 104.42 13.7273C104.42 14.2045 104.492 14.6165 104.637 14.9631C104.782 15.3097 104.987 15.5781 105.251 15.7685C105.518 15.9588 105.832 16.054 106.192 16.054C106.434 16.054 106.653 16.0099 106.849 15.9219C107.048 15.831 107.214 15.7017 107.347 15.5341C107.484 15.3665 107.579 15.1648 107.633 14.929H108.873C108.827 15.3523 108.69 15.7301 108.46 16.0625C108.229 16.3949 107.921 16.6562 107.535 16.8466C107.151 17.0369 106.701 17.1321 106.184 17.1321ZM113.291 10.4545V11.4773H109.716V10.4545H113.291ZM110.674 8.88636H111.949V15.0781C111.949 15.3253 111.985 15.5114 112.059 15.6364C112.133 15.7585 112.228 15.8423 112.345 15.8878C112.464 15.9304 112.593 15.9517 112.733 15.9517C112.835 15.9517 112.924 15.9446 113.001 15.9304C113.078 15.9162 113.137 15.9048 113.18 15.8963L113.41 16.9489C113.336 16.9773 113.231 17.0057 113.095 17.0341C112.958 17.0653 112.788 17.0824 112.583 17.0852C112.248 17.0909 111.936 17.0312 111.646 16.9062C111.356 16.7812 111.122 16.5881 110.943 16.3267C110.764 16.0653 110.674 15.7372 110.674 15.3423V8.88636ZM119.295 8.27273V17H117.978V8.27273H119.295ZM122.385 13.1136V17H121.11V10.4545H122.333V11.5199H122.414C122.565 11.1733 122.801 10.8949 123.122 10.6847C123.446 10.4744 123.853 10.3693 124.345 10.3693C124.791 10.3693 125.181 10.4631 125.517 10.6506C125.852 10.8352 126.112 11.1108 126.297 11.4773C126.481 11.8437 126.574 12.2969 126.574 12.8366V17H125.299V12.9901C125.299 12.5156 125.176 12.1449 124.929 11.8778C124.681 11.608 124.342 11.473 123.91 11.473C123.615 11.473 123.352 11.5369 123.122 11.6648C122.895 11.7926 122.714 11.9801 122.581 12.2273C122.45 12.4716 122.385 12.767 122.385 13.1136ZM131.397 10.4545V11.4773H127.699V10.4545H131.397ZM128.713 17V9.69602C128.713 9.28693 128.802 8.94744 128.981 8.67756C129.16 8.40483 129.397 8.2017 129.693 8.06818C129.988 7.93182 130.309 7.86364 130.656 7.86364C130.912 7.86364 131.13 7.88494 131.312 7.92756C131.494 7.96733 131.629 8.00426 131.717 8.03835L131.419 9.0696C131.359 9.05256 131.282 9.03267 131.189 9.00994C131.095 8.98437 130.981 8.97159 130.848 8.97159C130.538 8.97159 130.316 9.0483 130.183 9.2017C130.052 9.35511 129.987 9.5767 129.987 9.86648V17H128.713ZM135.211 17.1321C134.598 17.1321 134.062 16.9915 133.605 16.7102C133.147 16.429 132.792 16.0355 132.539 15.5298C132.287 15.0241 132.16 14.4332 132.16 13.7571C132.16 13.0781 132.287 12.4844 132.539 11.9759C132.792 11.4673 133.147 11.0724 133.605 10.7912C134.062 10.5099 134.598 10.3693 135.211 10.3693C135.825 10.3693 136.36 10.5099 136.818 10.7912C137.275 11.0724 137.63 11.4673 137.883 11.9759C138.136 12.4844 138.262 13.0781 138.262 13.7571C138.262 14.4332 138.136 15.0241 137.883 15.5298C137.63 16.0355 137.275 16.429 136.818 16.7102C136.36 16.9915 135.825 17.1321 135.211 17.1321ZM135.216 16.0625C135.613 16.0625 135.943 15.9574 136.204 15.7472C136.466 15.5369 136.659 15.2571 136.784 14.9077C136.912 14.5582 136.975 14.1733 136.975 13.7528C136.975 13.3352 136.912 12.9517 136.784 12.6023C136.659 12.25 136.466 11.9673 136.204 11.7543C135.943 11.5412 135.613 11.4347 135.216 11.4347C134.815 11.4347 134.483 11.5412 134.218 11.7543C133.957 11.9673 133.762 12.25 133.635 12.6023C133.51 12.9517 133.447 13.3352 133.447 13.7528C133.447 14.1733 133.51 14.5582 133.635 14.9077C133.762 15.2571 133.957 15.5369 134.218 15.7472C134.483 15.9574 134.815 16.0625 135.216 16.0625Z" fill="white"/>
</svg>
