<svg width="158" height="26" viewBox="0 0 158 26" fill="none" xmlns="http://www.w3.org/2000/svg">
<path d="M0 8C0 3.58172 3.58172 0 8 0H150C154.418 0 158 3.58172 158 8V18C158 22.4183 154.418 26 150 26H8C3.58172 26 0 22.4183 0 18V8Z" fill="#E02424"/>
<rect width="12" height="12" transform="translate(12 7)" fill="white" fill-opacity="0.01" style="mix-blend-mode:multiply"/>
<path d="M17.25 13.2213L16.2788 12.25L15.75 12.7787L17.25 14.2787L20.25 11.2787L19.7213 10.75L17.25 13.2213Z" fill="white"/>
<path d="M18 18.25L15.6841 17.0152C15.0238 16.6639 14.4716 16.1395 14.0869 15.4982C13.7021 14.8569 13.4992 14.1229 13.5 13.375V8.5C13.5002 8.30115 13.5793 8.11051 13.7199 7.9699C13.8605 7.82929 14.0512 7.75021 14.25 7.75H21.75C21.9488 7.75021 22.1395 7.82929 22.2801 7.9699C22.4207 8.11051 22.4998 8.30115 22.5 8.5V13.375C22.5008 14.1229 22.2979 14.8569 21.9131 15.4982C21.5284 16.1395 20.9762 16.6639 20.3159 17.0152L18 18.25ZM14.25 8.5V13.375C14.2494 13.9869 14.4154 14.5875 14.7302 15.1122C15.0451 15.6369 15.4968 16.066 16.0371 16.3534L18 17.4L19.9629 16.3534C20.5032 16.066 20.955 15.6369 21.2698 15.1122C21.5846 14.5875 21.7507 13.9869 21.75 13.375V8.5H14.25Z" fill="white"/>
<path d="M38.8651 11.0298C38.7827 10.7713 38.6719 10.5398 38.5327 10.3352C38.3963 10.1278 38.233 9.9517 38.0426 9.80682C37.8523 9.65909 37.6349 9.54687 37.3906 9.47017C37.1491 9.39347 36.8835 9.35511 36.5938 9.35511C36.1023 9.35511 35.6591 9.48153 35.2642 9.73438C34.8693 9.98722 34.5568 10.358 34.3267 10.8466C34.0994 11.3324 33.9858 11.9276 33.9858 12.6321C33.9858 13.3395 34.1009 13.9375 34.331 14.4261C34.5611 14.9148 34.8764 15.2855 35.277 15.5384C35.6776 15.7912 36.1335 15.9176 36.6449 15.9176C37.1193 15.9176 37.5327 15.821 37.8849 15.6278C38.2401 15.4347 38.5142 15.1619 38.7074 14.8097C38.9034 14.4545 39.0014 14.0369 39.0014 13.5568L39.3423 13.6207H36.8452V12.5341H40.2756V13.527C40.2756 14.2599 40.1193 14.8963 39.8068 15.4361C39.4972 15.973 39.0682 16.3878 38.5199 16.6804C37.9744 16.973 37.3494 17.1193 36.6449 17.1193C35.8551 17.1193 35.1619 16.9375 34.5653 16.5739C33.9716 16.2102 33.5085 15.6946 33.1761 15.027C32.8438 14.3565 32.6776 13.5611 32.6776 12.6406C32.6776 11.9446 32.7741 11.3196 32.9673 10.7656C33.1605 10.2116 33.4318 9.74148 33.7812 9.35511C34.1335 8.96591 34.5469 8.66903 35.0213 8.46449C35.4986 8.2571 36.0199 8.15341 36.5852 8.15341C37.0568 8.15341 37.4957 8.22301 37.902 8.36222C38.3111 8.50142 38.6747 8.69886 38.9929 8.95455C39.3139 9.21023 39.5795 9.5142 39.7898 9.86648C40 10.2159 40.142 10.6037 40.2159 11.0298H38.8651ZM44.6658 17.1321C44.021 17.1321 43.4656 16.9943 42.9996 16.7188C42.5366 16.4403 42.1786 16.0497 41.9258 15.5469C41.6758 15.0412 41.5508 14.4489 41.5508 13.7699C41.5508 13.0994 41.6758 12.5085 41.9258 11.9972C42.1786 11.4858 42.5309 11.0866 42.9826 10.7997C43.4371 10.5128 43.9684 10.3693 44.5763 10.3693C44.9457 10.3693 45.3036 10.4304 45.6502 10.5526C45.9968 10.6747 46.3079 10.8665 46.5835 11.1278C46.859 11.3892 47.0763 11.7287 47.2354 12.1463C47.3945 12.5611 47.4741 13.0653 47.4741 13.6591V14.1108H42.271V13.1562H46.2255C46.2255 12.821 46.1573 12.5241 46.021 12.2656C45.8846 12.0043 45.6928 11.7983 45.4457 11.6477C45.2013 11.4972 44.9144 11.4219 44.5849 11.4219C44.2269 11.4219 43.9144 11.5099 43.6474 11.6861C43.3832 11.8594 43.1786 12.0866 43.0337 12.3679C42.8917 12.6463 42.8207 12.9489 42.8207 13.2756V14.0213C42.8207 14.4588 42.8974 14.831 43.0508 15.1378C43.207 15.4446 43.4244 15.679 43.7028 15.8409C43.9812 16 44.3065 16.0795 44.6786 16.0795C44.9201 16.0795 45.1403 16.0455 45.3391 15.9773C45.538 15.9062 45.7099 15.8011 45.8548 15.6619C45.9996 15.5227 46.1104 15.3509 46.1871 15.1463L47.3931 15.3636C47.2965 15.7187 47.1232 16.0298 46.8732 16.2969C46.6261 16.5611 46.315 16.767 45.94 16.9148C45.5678 17.0597 45.1431 17.1321 44.6658 17.1321ZM51.9432 10.4545V11.4773H48.3679V10.4545H51.9432ZM49.3267 8.88636H50.6009V15.0781C50.6009 15.3253 50.6378 15.5114 50.7116 15.6364C50.7855 15.7585 50.8807 15.8423 50.9972 15.8878C51.1165 15.9304 51.2457 15.9517 51.3849 15.9517C51.4872 15.9517 51.5767 15.9446 51.6534 15.9304C51.7301 15.9162 51.7898 15.9048 51.8324 15.8963L52.0625 16.9489C51.9886 16.9773 51.8835 17.0057 51.7472 17.0341C51.6108 17.0653 51.4403 17.0824 51.2358 17.0852C50.9006 17.0909 50.5881 17.0312 50.2983 16.9062C50.0085 16.7812 49.7741 16.5881 49.5952 16.3267C49.4162 16.0653 49.3267 15.7372 49.3267 15.3423V8.88636ZM61.3906 10.5653C61.3452 10.1619 61.1577 9.84943 60.8281 9.62784C60.4986 9.40341 60.0838 9.29119 59.5838 9.29119C59.2259 9.29119 58.9162 9.34801 58.6548 9.46165C58.3935 9.57244 58.1903 9.72585 58.0455 9.92188C57.9034 10.1151 57.8324 10.3352 57.8324 10.5824C57.8324 10.7898 57.8807 10.9687 57.9773 11.1193C58.0767 11.2699 58.206 11.3963 58.3651 11.4986C58.527 11.598 58.7003 11.6818 58.8849 11.75C59.0696 11.8153 59.2472 11.8693 59.4176 11.9119L60.2699 12.1335C60.5483 12.2017 60.8338 12.294 61.1264 12.4105C61.419 12.527 61.6903 12.6804 61.9403 12.8707C62.1903 13.0611 62.392 13.2969 62.5455 13.5781C62.7017 13.8594 62.7798 14.196 62.7798 14.5881C62.7798 15.0824 62.652 15.5213 62.3963 15.9048C62.1435 16.2884 61.7756 16.5909 61.2926 16.8125C60.8125 17.0341 60.2315 17.1449 59.5497 17.1449C58.8963 17.1449 58.331 17.0412 57.8537 16.8338C57.3764 16.6264 57.0028 16.3324 56.733 15.9517C56.4631 15.5682 56.3139 15.1136 56.2855 14.5881H57.6065C57.6321 14.9034 57.7344 15.1662 57.9134 15.3764C58.0952 15.5838 58.3267 15.7386 58.608 15.8409C58.892 15.9403 59.2031 15.9901 59.5412 15.9901C59.9134 15.9901 60.2443 15.9318 60.5341 15.8153C60.8267 15.696 61.0568 15.5312 61.2244 15.321C61.392 15.108 61.4759 14.8594 61.4759 14.5753C61.4759 14.3168 61.402 14.1051 61.2543 13.9403C61.1094 13.7756 60.9119 13.6392 60.6619 13.5312C60.4148 13.4233 60.1349 13.3281 59.8224 13.2457L58.7912 12.9645C58.0923 12.7741 57.5384 12.4943 57.1293 12.125C56.723 11.7557 56.5199 11.267 56.5199 10.6591C56.5199 10.1562 56.6563 9.71733 56.929 9.34233C57.2017 8.96733 57.571 8.67614 58.0369 8.46875C58.5028 8.25852 59.0284 8.15341 59.6136 8.15341C60.2045 8.15341 60.7259 8.2571 61.1776 8.46449C61.6321 8.67188 61.9901 8.95739 62.2514 9.32102C62.5128 9.68182 62.6491 10.0966 62.6605 10.5653H61.3906ZM67.0721 17.1321C66.4272 17.1321 65.8718 16.9943 65.4059 16.7188C64.9428 16.4403 64.5849 16.0497 64.332 15.5469C64.082 15.0412 63.957 14.4489 63.957 13.7699C63.957 13.0994 64.082 12.5085 64.332 11.9972C64.5849 11.4858 64.9371 11.0866 65.3888 10.7997C65.8434 10.5128 66.3746 10.3693 66.9826 10.3693C67.3519 10.3693 67.7099 10.4304 68.0565 10.5526C68.4031 10.6747 68.7141 10.8665 68.9897 11.1278C69.2653 11.3892 69.4826 11.7287 69.6417 12.1463C69.8008 12.5611 69.8803 13.0653 69.8803 13.6591V14.1108H64.6772V13.1562H68.6317C68.6317 12.821 68.5636 12.5241 68.4272 12.2656C68.2908 12.0043 68.0991 11.7983 67.8519 11.6477C67.6076 11.4972 67.3207 11.4219 66.9911 11.4219C66.6332 11.4219 66.3207 11.5099 66.0536 11.6861C65.7894 11.8594 65.5849 12.0866 65.44 12.3679C65.2979 12.6463 65.2269 12.9489 65.2269 13.2756V14.0213C65.2269 14.4588 65.3036 14.831 65.457 15.1378C65.6133 15.4446 65.8306 15.679 66.109 15.8409C66.3874 16 66.7127 16.0795 67.0849 16.0795C67.3263 16.0795 67.5465 16.0455 67.7454 15.9773C67.9442 15.9062 68.1161 15.8011 68.261 15.6619C68.4059 15.5227 68.5167 15.3509 68.5934 15.1463L69.7994 15.3636C69.7028 15.7187 69.5295 16.0298 69.2795 16.2969C69.0323 16.5611 68.7212 16.767 68.3462 16.9148C67.9741 17.0597 67.5494 17.1321 67.0721 17.1321ZM74.0511 17.1321C73.4176 17.1321 72.8722 16.9886 72.4148 16.7017C71.9602 16.4119 71.6108 16.0128 71.3665 15.5043C71.1222 14.9957 71 14.4134 71 13.7571C71 13.0923 71.125 12.5057 71.375 11.9972C71.625 11.4858 71.9773 11.0866 72.4318 10.7997C72.8864 10.5128 73.4219 10.3693 74.0384 10.3693C74.5355 10.3693 74.9787 10.4616 75.3679 10.6463C75.7571 10.8281 76.071 11.0838 76.3097 11.4134C76.5511 11.7429 76.6946 12.1278 76.7401 12.5682H75.5C75.4318 12.2614 75.2756 11.9972 75.0312 11.7756C74.7898 11.554 74.4659 11.4432 74.0597 11.4432C73.7045 11.4432 73.3935 11.5369 73.1264 11.7244C72.8622 11.9091 72.6563 12.1733 72.5085 12.517C72.3608 12.858 72.2869 13.2614 72.2869 13.7273C72.2869 14.2045 72.3594 14.6165 72.5043 14.9631C72.6491 15.3097 72.8537 15.5781 73.1179 15.7685C73.3849 15.9588 73.6989 16.054 74.0597 16.054C74.3011 16.054 74.5199 16.0099 74.7159 15.9219C74.9148 15.831 75.081 15.7017 75.2145 15.5341C75.3509 15.3665 75.446 15.1648 75.5 14.929H76.7401C76.6946 15.3523 76.5568 15.7301 76.3267 16.0625C76.0966 16.3949 75.7884 16.6562 75.402 16.8466C75.0185 17.0369 74.5682 17.1321 74.0511 17.1321ZM82.2489 14.2855V10.4545H83.5273V17H82.2745V15.8665H82.2063C82.0558 16.2159 81.8143 16.5071 81.4819 16.7401C81.1523 16.9702 80.7418 17.0852 80.2504 17.0852C79.8299 17.0852 79.4577 16.9929 79.1339 16.8082C78.8129 16.6207 78.56 16.3438 78.3754 15.9773C78.1935 15.6108 78.1026 15.1577 78.1026 14.6179V10.4545H79.3768V14.4645C79.3768 14.9105 79.5004 15.2656 79.7475 15.5298C79.9947 15.794 80.3157 15.9261 80.7106 15.9261C80.9492 15.9261 81.1864 15.8665 81.4222 15.7472C81.6609 15.6278 81.8583 15.4474 82.0146 15.206C82.1737 14.9645 82.2518 14.6577 82.2489 14.2855ZM85.2393 17V10.4545H86.4709V11.4943H86.5391C86.6584 11.142 86.8686 10.8651 87.1697 10.6634C87.4737 10.4588 87.8175 10.3565 88.201 10.3565C88.2805 10.3565 88.3743 10.3594 88.4822 10.3651C88.593 10.3707 88.6797 10.3778 88.7422 10.3864V11.6051C88.6911 11.5909 88.6001 11.5753 88.4695 11.5582C88.3388 11.5384 88.2081 11.5284 88.0774 11.5284C87.7763 11.5284 87.5078 11.5923 87.272 11.7202C87.0391 11.8452 86.8544 12.0199 86.718 12.2443C86.5817 12.4659 86.5135 12.7187 86.5135 13.0028V17H85.2393ZM89.8448 17V10.4545H91.119V17H89.8448ZM90.4883 9.4446C90.2667 9.4446 90.0763 9.37074 89.9173 9.22301C89.761 9.07244 89.6829 8.89347 89.6829 8.68608C89.6829 8.47585 89.761 8.29687 89.9173 8.14915C90.0763 7.99858 90.2667 7.9233 90.4883 7.9233C90.7099 7.9233 90.8988 7.99858 91.055 8.14915C91.2141 8.29687 91.2937 8.47585 91.2937 8.68608C91.2937 8.89347 91.2141 9.07244 91.055 9.22301C90.8988 9.37074 90.7099 9.4446 90.4883 9.4446ZM95.8885 10.4545V11.4773H92.3132V10.4545H95.8885ZM93.272 8.88636H94.5462V15.0781C94.5462 15.3253 94.5831 15.5114 94.657 15.6364C94.7308 15.7585 94.826 15.8423 94.9425 15.8878C95.0618 15.9304 95.1911 15.9517 95.3303 15.9517C95.4325 15.9517 95.522 15.9446 95.5987 15.9304C95.6754 15.9162 95.7351 15.9048 95.7777 15.8963L96.0078 16.9489C95.9339 16.9773 95.8288 17.0057 95.6925 17.0341C95.5561 17.0653 95.3857 17.0824 95.1811 17.0852C94.8459 17.0909 94.5334 17.0312 94.2436 16.9062C93.9538 16.7812 93.7195 16.5881 93.5405 16.3267C93.3615 16.0653 93.272 15.7372 93.272 15.3423V8.88636ZM98.1033 19.4545C97.913 19.4545 97.7397 19.4389 97.5835 19.4077C97.4272 19.3793 97.3107 19.348 97.234 19.3139L97.5408 18.2699C97.7738 18.3324 97.9812 18.3594 98.163 18.3509C98.3448 18.3423 98.5053 18.2741 98.6445 18.1463C98.7866 18.0185 98.9116 17.8097 99.0195 17.5199L99.1772 17.0852L96.7823 10.4545H98.146L99.8036 15.5341H99.8718L101.529 10.4545H102.897L100.2 17.8736C100.075 18.2145 99.9158 18.5028 99.7227 18.7386C99.5295 18.9773 99.2994 19.1563 99.0323 19.2756C98.7653 19.3949 98.4556 19.4545 98.1033 19.4545ZM107.373 17V8.27273H110.484C111.16 8.27273 111.721 8.3892 112.167 8.62216C112.616 8.85511 112.951 9.17756 113.173 9.58949C113.394 9.99858 113.505 10.4716 113.505 11.0085C113.505 11.5426 113.393 12.0128 113.168 12.419C112.947 12.8224 112.612 13.1364 112.163 13.3608C111.717 13.5852 111.156 13.6974 110.479 13.6974H108.123V12.5639H110.36C110.786 12.5639 111.133 12.5028 111.4 12.3807C111.67 12.2585 111.867 12.081 111.992 11.848C112.117 11.6151 112.18 11.3352 112.18 11.0085C112.18 10.679 112.116 10.3935 111.988 10.152C111.863 9.91051 111.665 9.72585 111.396 9.59801C111.129 9.46733 110.778 9.40199 110.343 9.40199H108.69V17H107.373ZM111.681 13.0625L113.837 17H112.337L110.224 13.0625H111.681ZM117.744 17.1321C117.099 17.1321 116.544 16.9943 116.078 16.7188C115.615 16.4403 115.257 16.0497 115.004 15.5469C114.754 15.0412 114.629 14.4489 114.629 13.7699C114.629 13.0994 114.754 12.5085 115.004 11.9972C115.257 11.4858 115.609 11.0866 116.061 10.7997C116.515 10.5128 117.047 10.3693 117.654 10.3693C118.024 10.3693 118.382 10.4304 118.728 10.5526C119.075 10.6747 119.386 10.8665 119.662 11.1278C119.937 11.3892 120.154 11.7287 120.314 12.1463C120.473 12.5611 120.552 13.0653 120.552 13.6591V14.1108H115.349V13.1562H119.304C119.304 12.821 119.235 12.5241 119.099 12.2656C118.963 12.0043 118.771 11.7983 118.524 11.6477C118.279 11.4972 117.993 11.4219 117.663 11.4219C117.305 11.4219 116.993 11.5099 116.725 11.6861C116.461 11.8594 116.257 12.0866 116.112 12.3679C115.97 12.6463 115.899 12.9489 115.899 13.2756V14.0213C115.899 14.4588 115.975 14.831 116.129 15.1378C116.285 15.4446 116.502 15.679 116.781 15.8409C117.059 16 117.385 16.0795 117.757 16.0795C117.998 16.0795 118.218 16.0455 118.417 15.9773C118.616 15.9062 118.788 15.8011 118.933 15.6619C119.078 15.5227 119.189 15.3509 119.265 15.1463L120.471 15.3636C120.375 15.7187 120.201 16.0298 119.951 16.2969C119.704 16.5611 119.393 16.767 119.018 16.9148C118.646 17.0597 118.221 17.1321 117.744 17.1321ZM121.966 19.4545V10.4545H123.21V11.5156H123.317C123.391 11.3793 123.497 11.2216 123.636 11.0426C123.776 10.8636 123.969 10.7074 124.216 10.5739C124.463 10.4375 124.79 10.3693 125.196 10.3693C125.724 10.3693 126.196 10.5028 126.611 10.7699C127.026 11.0369 127.351 11.4219 127.587 11.9247C127.825 12.4276 127.945 13.0327 127.945 13.7401C127.945 14.4474 127.827 15.054 127.591 15.5597C127.355 16.0625 127.031 16.4503 126.619 16.723C126.207 16.9929 125.737 17.1278 125.209 17.1278C124.811 17.1278 124.486 17.0611 124.233 16.9276C123.983 16.794 123.787 16.6378 123.645 16.4588C123.503 16.2798 123.393 16.1207 123.317 15.9815H123.24V19.4545H121.966ZM123.214 13.7273C123.214 14.1875 123.281 14.5909 123.415 14.9375C123.548 15.2841 123.741 15.5554 123.994 15.7514C124.247 15.9446 124.557 16.0412 124.923 16.0412C125.304 16.0412 125.622 15.9403 125.878 15.7386C126.134 15.5341 126.327 15.2571 126.457 14.9077C126.591 14.5582 126.658 14.1648 126.658 13.7273C126.658 13.2955 126.592 12.9077 126.462 12.5639C126.334 12.2202 126.141 11.9489 125.882 11.75C125.626 11.5511 125.307 11.4517 124.923 11.4517C124.554 11.4517 124.241 11.5469 123.986 11.7372C123.733 11.9276 123.541 12.1932 123.411 12.5341C123.28 12.875 123.214 13.2727 123.214 13.7273ZM132.129 17.1321C131.516 17.1321 130.98 16.9915 130.523 16.7102C130.065 16.429 129.71 16.0355 129.457 15.5298C129.205 15.0241 129.078 14.4332 129.078 13.7571C129.078 13.0781 129.205 12.4844 129.457 11.9759C129.71 11.4673 130.065 11.0724 130.523 10.7912C130.98 10.5099 131.516 10.3693 132.129 10.3693C132.743 10.3693 133.278 10.5099 133.736 10.7912C134.193 11.0724 134.548 11.4673 134.801 11.9759C135.054 12.4844 135.18 13.0781 135.18 13.7571C135.18 14.4332 135.054 15.0241 134.801 15.5298C134.548 16.0355 134.193 16.429 133.736 16.7102C133.278 16.9915 132.743 17.1321 132.129 17.1321ZM132.134 16.0625C132.531 16.0625 132.861 15.9574 133.122 15.7472C133.384 15.5369 133.577 15.2571 133.702 14.9077C133.83 14.5582 133.893 14.1733 133.893 13.7528C133.893 13.3352 133.83 12.9517 133.702 12.6023C133.577 12.25 133.384 11.9673 133.122 11.7543C132.861 11.5412 132.531 11.4347 132.134 11.4347C131.733 11.4347 131.401 11.5412 131.136 11.7543C130.875 11.9673 130.68 12.25 130.553 12.6023C130.428 12.9517 130.365 13.3352 130.365 13.7528C130.365 14.1733 130.428 14.5582 130.553 14.9077C130.68 15.2571 130.875 15.5369 131.136 15.7472C131.401 15.9574 131.733 16.0625 132.134 16.0625ZM136.603 17V10.4545H137.834V11.4943H137.902C138.022 11.142 138.232 10.8651 138.533 10.6634C138.837 10.4588 139.181 10.3565 139.564 10.3565C139.644 10.3565 139.738 10.3594 139.846 10.3651C139.956 10.3707 140.043 10.3778 140.105 10.3864V11.6051C140.054 11.5909 139.963 11.5753 139.833 11.5582C139.702 11.5384 139.571 11.5284 139.441 11.5284C139.14 11.5284 138.871 11.5923 138.635 11.7202C138.402 11.8452 138.218 12.0199 138.081 12.2443C137.945 12.4659 137.877 12.7187 137.877 13.0028V17H136.603ZM144.65 10.4545V11.4773H141.075V10.4545H144.65ZM142.034 8.88636H143.308V15.0781C143.308 15.3253 143.345 15.5114 143.419 15.6364C143.493 15.7585 143.588 15.8423 143.704 15.8878C143.824 15.9304 143.953 15.9517 144.092 15.9517C144.194 15.9517 144.284 15.9446 144.36 15.9304C144.437 15.9162 144.497 15.9048 144.539 15.8963L144.77 16.9489C144.696 16.9773 144.591 17.0057 144.454 17.0341C144.318 17.0653 144.147 17.0824 143.943 17.0852C143.608 17.0909 143.295 17.0312 143.005 16.9062C142.716 16.7812 142.481 16.5881 142.302 16.3267C142.123 16.0653 142.034 15.7372 142.034 15.3423V8.88636Z" fill="white"/>
</svg>
