<svg width="166" height="34" viewBox="0 0 166 34" fill="none" xmlns="http://www.w3.org/2000/svg">
<path d="M0 8C0 3.58172 3.58172 0 8 0H158C162.418 0 166 3.58172 166 8V26C166 30.4183 162.418 34 158 34H8C3.58173 34 0 30.4183 0 26V8Z" fill="#E02424"/>
<rect width="12" height="12" transform="translate(12 11)" fill="white" fill-opacity="0.01" style="mix-blend-mode:multiply"/>
<path d="M17.25 17.2213L16.2788 16.25L15.75 16.7787L17.25 18.2787L20.25 15.2787L19.7213 14.75L17.25 17.2213Z" fill="white"/>
<path d="M18 22.25L15.6841 21.0152C15.0238 20.6639 14.4716 20.1395 14.0869 19.4982C13.7021 18.8569 13.4992 18.1229 13.5 17.375V12.5C13.5002 12.3012 13.5793 12.1105 13.7199 11.9699C13.8605 11.8293 14.0512 11.7502 14.25 11.75H21.75C21.9488 11.7502 22.1395 11.8293 22.2801 11.9699C22.4207 12.1105 22.4998 12.3012 22.5 12.5V17.375C22.5008 18.1229 22.2979 18.8569 21.9131 19.4982C21.5284 20.1395 20.9762 20.6639 20.3159 21.0152L18 22.25ZM14.25 12.5V17.375C14.2494 17.9869 14.4154 18.5875 14.7302 19.1122C15.0451 19.6369 15.4968 20.066 16.0371 20.3534L18 21.4L19.9629 20.3534C20.5032 20.066 20.955 19.6369 21.2698 19.1122C21.5846 18.5875 21.7507 17.9869 21.75 17.375V12.5H14.25Z" fill="white"/>
<path d="M33.7216 12.2727L36.1506 19.3807H36.2486L38.6776 12.2727H40.1009L36.9602 21H35.4389L32.2983 12.2727H33.7216ZM41.2589 21V14.4545H42.533V21H41.2589ZM41.9023 13.4446C41.6808 13.4446 41.4904 13.3707 41.3313 13.223C41.1751 13.0724 41.0969 12.8935 41.0969 12.6861C41.0969 12.4759 41.1751 12.2969 41.3313 12.1491C41.4904 11.9986 41.6808 11.9233 41.9023 11.9233C42.1239 11.9233 42.3129 11.9986 42.4691 12.1491C42.6282 12.2969 42.7077 12.4759 42.7077 12.6861C42.7077 12.8935 42.6282 13.0724 42.4691 13.223C42.3129 13.3707 42.1239 13.4446 41.9023 13.4446ZM47.0682 21.1321C46.4233 21.1321 45.8679 20.9943 45.402 20.7188C44.9389 20.4403 44.581 20.0497 44.3281 19.5469C44.0781 19.0412 43.9531 18.4489 43.9531 17.7699C43.9531 17.0994 44.0781 16.5085 44.3281 15.9972C44.581 15.4858 44.9332 15.0866 45.3849 14.7997C45.8395 14.5128 46.3707 14.3693 46.9787 14.3693C47.348 14.3693 47.706 14.4304 48.0526 14.5526C48.3991 14.6747 48.7102 14.8665 48.9858 15.1278C49.2614 15.3892 49.4787 15.7287 49.6378 16.1463C49.7969 16.5611 49.8764 17.0653 49.8764 17.6591V18.1108H44.6733V17.1562H48.6278C48.6278 16.821 48.5597 16.5241 48.4233 16.2656C48.2869 16.0043 48.0952 15.7983 47.848 15.6477C47.6037 15.4972 47.3168 15.4219 46.9872 15.4219C46.6293 15.4219 46.3168 15.5099 46.0497 15.6861C45.7855 15.8594 45.581 16.0866 45.4361 16.3679C45.294 16.6463 45.223 16.9489 45.223 17.2756V18.0213C45.223 18.4588 45.2997 18.831 45.4531 19.1378C45.6094 19.4446 45.8267 19.679 46.1051 19.8409C46.3835 20 46.7088 20.0795 47.081 20.0795C47.3224 20.0795 47.5426 20.0455 47.7415 19.9773C47.9403 19.9062 48.1122 19.8011 48.2571 19.6619C48.402 19.5227 48.5128 19.3509 48.5895 19.1463L49.7955 19.3636C49.6989 19.7187 49.5256 20.0298 49.2756 20.2969C49.0284 20.5611 48.7173 20.767 48.3423 20.9148C47.9702 21.0597 47.5455 21.1321 47.0682 21.1321ZM52.6974 21L50.7713 14.4545H52.0881L53.3707 19.2614H53.4347L54.7216 14.4545H56.0384L57.3168 19.2401H57.3807L58.6548 14.4545H59.9716L58.0497 21H56.75L55.4205 16.2741H55.3224L53.9929 21H52.6974ZM69.2188 14.5653C69.1733 14.1619 68.9858 13.8494 68.6562 13.6278C68.3267 13.4034 67.9119 13.2912 67.4119 13.2912C67.054 13.2912 66.7443 13.348 66.483 13.4616C66.2216 13.5724 66.0185 13.7259 65.8736 13.9219C65.7315 14.1151 65.6605 14.3352 65.6605 14.5824C65.6605 14.7898 65.7088 14.9687 65.8054 15.1193C65.9048 15.2699 66.0341 15.3963 66.1932 15.4986C66.3551 15.598 66.5284 15.6818 66.7131 15.75C66.8977 15.8153 67.0753 15.8693 67.2457 15.9119L68.098 16.1335C68.3764 16.2017 68.6619 16.294 68.9545 16.4105C69.2472 16.527 69.5185 16.6804 69.7685 16.8707C70.0185 17.0611 70.2202 17.2969 70.3736 17.5781C70.5298 17.8594 70.608 18.196 70.608 18.5881C70.608 19.0824 70.4801 19.5213 70.2244 19.9048C69.9716 20.2884 69.6037 20.5909 69.1207 20.8125C68.6406 21.0341 68.0597 21.1449 67.3778 21.1449C66.7244 21.1449 66.1591 21.0412 65.6818 20.8338C65.2045 20.6264 64.831 20.3324 64.5611 19.9517C64.2912 19.5682 64.142 19.1136 64.1136 18.5881H65.4347C65.4602 18.9034 65.5625 19.1662 65.7415 19.3764C65.9233 19.5838 66.1548 19.7386 66.4361 19.8409C66.7202 19.9403 67.0312 19.9901 67.3693 19.9901C67.7415 19.9901 68.0724 19.9318 68.3622 19.8153C68.6548 19.696 68.8849 19.5312 69.0526 19.321C69.2202 19.108 69.304 18.8594 69.304 18.5753C69.304 18.3168 69.2301 18.1051 69.0824 17.9403C68.9375 17.7756 68.7401 17.6392 68.4901 17.5312C68.2429 17.4233 67.9631 17.3281 67.6506 17.2457L66.6193 16.9645C65.9205 16.7741 65.3665 16.4943 64.9574 16.125C64.5511 15.7557 64.348 15.267 64.348 14.6591C64.348 14.1562 64.4844 13.7173 64.7571 13.3423C65.0298 12.9673 65.3991 12.6761 65.8651 12.4688C66.331 12.2585 66.8565 12.1534 67.4418 12.1534C68.0327 12.1534 68.554 12.2571 69.0057 12.4645C69.4602 12.6719 69.8182 12.9574 70.0795 13.321C70.3409 13.6818 70.4773 14.0966 70.4886 14.5653H69.2188ZM74.9002 21.1321C74.2553 21.1321 73.6999 20.9943 73.234 20.7188C72.771 20.4403 72.413 20.0497 72.1602 19.5469C71.9102 19.0412 71.7852 18.4489 71.7852 17.7699C71.7852 17.0994 71.9102 16.5085 72.1602 15.9972C72.413 15.4858 72.7653 15.0866 73.217 14.7997C73.6715 14.5128 74.2028 14.3693 74.8107 14.3693C75.18 14.3693 75.538 14.4304 75.8846 14.5526C76.2312 14.6747 76.5423 14.8665 76.8178 15.1278C77.0934 15.3892 77.3107 15.7287 77.4698 16.1463C77.6289 16.5611 77.7085 17.0653 77.7085 17.6591V18.1108H72.5053V17.1562H76.4599C76.4599 16.821 76.3917 16.5241 76.2553 16.2656C76.119 16.0043 75.9272 15.7983 75.68 15.6477C75.4357 15.4972 75.1488 15.4219 74.8192 15.4219C74.4613 15.4219 74.1488 15.5099 73.8817 15.6861C73.6175 15.8594 73.413 16.0866 73.2681 16.3679C73.1261 16.6463 73.055 16.9489 73.055 17.2756V18.0213C73.055 18.4588 73.1317 18.831 73.2852 19.1378C73.4414 19.4446 73.6587 19.679 73.9371 19.8409C74.2156 20 74.5408 20.0795 74.913 20.0795C75.1545 20.0795 75.3746 20.0455 75.5735 19.9773C75.7724 19.9062 75.9442 19.8011 76.0891 19.6619C76.234 19.5227 76.3448 19.3509 76.4215 19.1463L77.6275 19.3636C77.5309 19.7187 77.3576 20.0298 77.1076 20.2969C76.8604 20.5611 76.5494 20.767 76.1744 20.9148C75.8022 21.0597 75.3775 21.1321 74.9002 21.1321ZM81.8793 21.1321C81.2457 21.1321 80.7003 20.9886 80.2429 20.7017C79.7884 20.4119 79.4389 20.0128 79.1946 19.5043C78.9503 18.9957 78.8281 18.4134 78.8281 17.7571C78.8281 17.0923 78.9531 16.5057 79.2031 15.9972C79.4531 15.4858 79.8054 15.0866 80.2599 14.7997C80.7145 14.5128 81.25 14.3693 81.8665 14.3693C82.3636 14.3693 82.8068 14.4616 83.196 14.6463C83.5852 14.8281 83.8991 15.0838 84.1378 15.4134C84.3793 15.7429 84.5227 16.1278 84.5682 16.5682H83.3281C83.2599 16.2614 83.1037 15.9972 82.8594 15.7756C82.6179 15.554 82.294 15.4432 81.8878 15.4432C81.5327 15.4432 81.2216 15.5369 80.9545 15.7244C80.6903 15.9091 80.4844 16.1733 80.3366 16.517C80.1889 16.858 80.1151 17.2614 80.1151 17.7273C80.1151 18.2045 80.1875 18.6165 80.3324 18.9631C80.4773 19.3097 80.6818 19.5781 80.946 19.7685C81.2131 19.9588 81.527 20.054 81.8878 20.054C82.1293 20.054 82.348 20.0099 82.544 19.9219C82.7429 19.831 82.9091 19.7017 83.0426 19.5341C83.179 19.3665 83.2741 19.1648 83.3281 18.929H84.5682C84.5227 19.3523 84.3849 19.7301 84.1548 20.0625C83.9247 20.3949 83.6165 20.6562 83.2301 20.8466C82.8466 21.0369 82.3963 21.1321 81.8793 21.1321ZM90.0771 18.2855V14.4545H91.3555V21H90.1026V19.8665H90.0344C89.8839 20.2159 89.6424 20.5071 89.31 20.7401C88.9805 20.9702 88.57 21.0852 88.0785 21.0852C87.658 21.0852 87.2859 20.9929 86.962 20.8082C86.641 20.6207 86.3881 20.3438 86.2035 19.9773C86.0217 19.6108 85.9308 19.1577 85.9308 18.6179V14.4545H87.2049V18.4645C87.2049 18.9105 87.3285 19.2656 87.5756 19.5298C87.8228 19.794 88.1438 19.9261 88.5387 19.9261C88.7773 19.9261 89.0146 19.8665 89.2504 19.7472C89.489 19.6278 89.6864 19.4474 89.8427 19.206C90.0018 18.9645 90.0799 18.6577 90.0771 18.2855ZM93.0675 21V14.4545H94.299V15.4943H94.3672C94.4865 15.142 94.6967 14.8651 94.9979 14.6634C95.3018 14.4588 95.6456 14.3565 96.0291 14.3565C96.1087 14.3565 96.2024 14.3594 96.3104 14.3651C96.4212 14.3707 96.5078 14.3778 96.5703 14.3864V15.6051C96.5192 15.5909 96.4283 15.5753 96.2976 15.5582C96.1669 15.5384 96.0362 15.5284 95.9055 15.5284C95.6044 15.5284 95.3359 15.5923 95.1001 15.7202C94.8672 15.8452 94.6825 16.0199 94.5462 16.2443C94.4098 16.4659 94.3416 16.7187 94.3416 17.0028V21H93.0675ZM97.6729 21V14.4545H98.9471V21H97.6729ZM98.3164 13.4446C98.0948 13.4446 97.9045 13.3707 97.7454 13.223C97.5891 13.0724 97.511 12.8935 97.511 12.6861C97.511 12.4759 97.5891 12.2969 97.7454 12.1491C97.9045 11.9986 98.0948 11.9233 98.3164 11.9233C98.538 11.9233 98.7269 11.9986 98.8832 12.1491C99.0423 12.2969 99.1218 12.4759 99.1218 12.6861C99.1218 12.8935 99.0423 13.0724 98.8832 13.223C98.7269 13.3707 98.538 13.4446 98.3164 13.4446ZM103.717 14.4545V15.4773H100.141V14.4545H103.717ZM101.1 12.8864H102.374V19.0781C102.374 19.3253 102.411 19.5114 102.485 19.6364C102.559 19.7585 102.654 19.8423 102.771 19.8878C102.89 19.9304 103.019 19.9517 103.158 19.9517C103.261 19.9517 103.35 19.9446 103.427 19.9304C103.504 19.9162 103.563 19.9048 103.606 19.8963L103.836 20.9489C103.762 20.9773 103.657 21.0057 103.521 21.0341C103.384 21.0653 103.214 21.0824 103.009 21.0852C102.674 21.0909 102.362 21.0312 102.072 20.9062C101.782 20.7812 101.548 20.5881 101.369 20.3267C101.19 20.0653 101.1 19.7372 101.1 19.3423V12.8864ZM105.931 23.4545C105.741 23.4545 105.568 23.4389 105.412 23.4077C105.255 23.3793 105.139 23.348 105.062 23.3139L105.369 22.2699C105.602 22.3324 105.809 22.3594 105.991 22.3509C106.173 22.3423 106.333 22.2741 106.473 22.1463C106.615 22.0185 106.74 21.8097 106.848 21.5199L107.005 21.0852L104.61 14.4545H105.974L107.632 19.5341H107.7L109.358 14.4545H110.725L108.028 21.8736C107.903 22.2145 107.744 22.5028 107.551 22.7386C107.358 22.9773 107.127 23.1563 106.86 23.2756C106.593 23.3949 106.284 23.4545 105.931 23.4545ZM115.201 21V12.2727H118.312C118.988 12.2727 119.549 12.3892 119.995 12.6222C120.444 12.8551 120.779 13.1776 121.001 13.5895C121.222 13.9986 121.333 14.4716 121.333 15.0085C121.333 15.5426 121.221 16.0128 120.996 16.419C120.775 16.8224 120.44 17.1364 119.991 17.3608C119.545 17.5852 118.984 17.6974 118.308 17.6974H115.951V16.5639H118.188C118.614 16.5639 118.961 16.5028 119.228 16.3807C119.498 16.2585 119.695 16.081 119.82 15.848C119.945 15.6151 120.008 15.3352 120.008 15.0085C120.008 14.679 119.944 14.3935 119.816 14.152C119.691 13.9105 119.494 13.7259 119.224 13.598C118.957 13.4673 118.606 13.402 118.171 13.402H116.518V21H115.201ZM119.509 17.0625L121.665 21H120.165L118.052 17.0625H119.509ZM125.572 21.1321C124.927 21.1321 124.372 20.9943 123.906 20.7188C123.443 20.4403 123.085 20.0497 122.832 19.5469C122.582 19.0412 122.457 18.4489 122.457 17.7699C122.457 17.0994 122.582 16.5085 122.832 15.9972C123.085 15.4858 123.437 15.0866 123.889 14.7997C124.343 14.5128 124.875 14.3693 125.483 14.3693C125.852 14.3693 126.21 14.4304 126.556 14.5526C126.903 14.6747 127.214 14.8665 127.49 15.1278C127.765 15.3892 127.983 15.7287 128.142 16.1463C128.301 16.5611 128.38 17.0653 128.38 17.6591V18.1108H123.177V17.1562H127.132C127.132 16.821 127.064 16.5241 126.927 16.2656C126.791 16.0043 126.599 15.7983 126.352 15.6477C126.108 15.4972 125.821 15.4219 125.491 15.4219C125.133 15.4219 124.821 15.5099 124.554 15.6861C124.289 15.8594 124.085 16.0866 123.94 16.3679C123.798 16.6463 123.727 16.9489 123.727 17.2756V18.0213C123.727 18.4588 123.804 18.831 123.957 19.1378C124.113 19.4446 124.331 19.679 124.609 19.8409C124.887 20 125.213 20.0795 125.585 20.0795C125.826 20.0795 126.047 20.0455 126.245 19.9773C126.444 19.9062 126.616 19.8011 126.761 19.6619C126.906 19.5227 127.017 19.3509 127.093 19.1463L128.299 19.3636C128.203 19.7187 128.029 20.0298 127.779 20.2969C127.532 20.5611 127.221 20.767 126.846 20.9148C126.474 21.0597 126.049 21.1321 125.572 21.1321ZM129.794 23.4545V14.4545H131.038V15.5156H131.145C131.219 15.3793 131.325 15.2216 131.464 15.0426C131.604 14.8636 131.797 14.7074 132.044 14.5739C132.291 14.4375 132.618 14.3693 133.024 14.3693C133.553 14.3693 134.024 14.5028 134.439 14.7699C134.854 15.0369 135.179 15.4219 135.415 15.9247C135.653 16.4276 135.773 17.0327 135.773 17.7401C135.773 18.4474 135.655 19.054 135.419 19.5597C135.183 20.0625 134.859 20.4503 134.447 20.723C134.036 20.9929 133.565 21.1278 133.037 21.1278C132.639 21.1278 132.314 21.0611 132.061 20.9276C131.811 20.794 131.615 20.6378 131.473 20.4588C131.331 20.2798 131.222 20.1207 131.145 19.9815H131.068V23.4545H129.794ZM131.043 17.7273C131.043 18.1875 131.109 18.5909 131.243 18.9375C131.376 19.2841 131.57 19.5554 131.822 19.7514C132.075 19.9446 132.385 20.0412 132.751 20.0412C133.132 20.0412 133.45 19.9403 133.706 19.7386C133.962 19.5341 134.155 19.2571 134.286 18.9077C134.419 18.5582 134.486 18.1648 134.486 17.7273C134.486 17.2955 134.42 16.9077 134.29 16.5639C134.162 16.2202 133.969 15.9489 133.71 15.75C133.455 15.5511 133.135 15.4517 132.751 15.4517C132.382 15.4517 132.07 15.5469 131.814 15.7372C131.561 15.9276 131.369 16.1932 131.239 16.5341C131.108 16.875 131.043 17.2727 131.043 17.7273ZM139.957 21.1321C139.344 21.1321 138.808 20.9915 138.351 20.7102C137.893 20.429 137.538 20.0355 137.286 19.5298C137.033 19.0241 136.906 18.4332 136.906 17.7571C136.906 17.0781 137.033 16.4844 137.286 15.9759C137.538 15.4673 137.893 15.0724 138.351 14.7912C138.808 14.5099 139.344 14.3693 139.957 14.3693C140.571 14.3693 141.107 14.5099 141.564 14.7912C142.021 15.0724 142.376 15.4673 142.629 15.9759C142.882 16.4844 143.009 17.0781 143.009 17.7571C143.009 18.4332 142.882 19.0241 142.629 19.5298C142.376 20.0355 142.021 20.429 141.564 20.7102C141.107 20.9915 140.571 21.1321 139.957 21.1321ZM139.962 20.0625C140.359 20.0625 140.689 19.9574 140.95 19.7472C141.212 19.5369 141.405 19.2571 141.53 18.9077C141.658 18.5582 141.722 18.1733 141.722 17.7528C141.722 17.3352 141.658 16.9517 141.53 16.6023C141.405 16.25 141.212 15.9673 140.95 15.7543C140.689 15.5412 140.359 15.4347 139.962 15.4347C139.561 15.4347 139.229 15.5412 138.964 15.7543C138.703 15.9673 138.509 16.25 138.381 16.6023C138.256 16.9517 138.193 17.3352 138.193 17.7528C138.193 18.1733 138.256 18.5582 138.381 18.9077C138.509 19.2571 138.703 19.5369 138.964 19.7472C139.229 19.9574 139.561 20.0625 139.962 20.0625ZM144.431 21V14.4545H145.662V15.4943H145.73C145.85 15.142 146.06 14.8651 146.361 14.6634C146.665 14.4588 147.009 14.3565 147.392 14.3565C147.472 14.3565 147.566 14.3594 147.674 14.3651C147.784 14.3707 147.871 14.3778 147.934 14.3864V15.6051C147.882 15.5909 147.792 15.5753 147.661 15.5582C147.53 15.5384 147.4 15.5284 147.269 15.5284C146.968 15.5284 146.699 15.5923 146.463 15.7202C146.23 15.8452 146.046 16.0199 145.909 16.2443C145.773 16.4659 145.705 16.7187 145.705 17.0028V21H144.431ZM152.478 14.4545V15.4773H148.903V14.4545H152.478ZM149.862 12.8864H151.136V19.0781C151.136 19.3253 151.173 19.5114 151.247 19.6364C151.321 19.7585 151.416 19.8423 151.532 19.8878C151.652 19.9304 151.781 19.9517 151.92 19.9517C152.022 19.9517 152.112 19.9446 152.189 19.9304C152.265 19.9162 152.325 19.9048 152.368 19.8963L152.598 20.9489C152.524 20.9773 152.419 21.0057 152.282 21.0341C152.146 21.0653 151.975 21.0824 151.771 21.0852C151.436 21.0909 151.123 21.0312 150.833 20.9062C150.544 20.7812 150.309 20.5881 150.13 20.3267C149.951 20.0653 149.862 19.7372 149.862 19.3423V12.8864Z" fill="white"/>
</svg>
