<svg width="184" height="37" viewBox="0 0 184 37" fill="none" xmlns="http://www.w3.org/2000/svg">
<path d="M0 8C0 3.58172 3.58172 0 8 0H176C180.418 0 184 3.58172 184 8V29C184 33.4183 180.418 37 176 37H8C3.58172 37 0 33.4183 0 29V8Z" fill="#1E429F"/>
<path d="M12.6165 15.1406V13.8182H20.4964V15.1406H17.3196V24H15.7884V15.1406H12.6165ZM23.3017 24.169C22.8178 24.169 22.3803 24.0795 21.9892 23.9006C21.5981 23.7183 21.2882 23.4548 21.0595 23.1101C20.8341 22.7654 20.7214 22.3428 20.7214 21.8423C20.7214 21.4115 20.8043 21.0568 20.97 20.7784C21.1357 20.5 21.3594 20.2796 21.6412 20.1172C21.9229 19.9548 22.2377 19.8321 22.5858 19.7493C22.9338 19.6664 23.2884 19.6035 23.6497 19.5604C24.1071 19.5073 24.4783 19.4643 24.7633 19.4311C25.0484 19.3946 25.2555 19.3366 25.3848 19.2571C25.514 19.1776 25.5787 19.0483 25.5787 18.8693V18.8345C25.5787 18.4003 25.456 18.0639 25.2108 17.8253C24.9688 17.5866 24.6075 17.4673 24.127 17.4673C23.6265 17.4673 23.2321 17.5784 22.9437 17.8004C22.6587 18.0192 22.4615 18.2628 22.3521 18.5312L20.9551 18.2131C21.1208 17.7491 21.3627 17.3745 21.6809 17.0895C22.0024 16.8011 22.372 16.5923 22.7896 16.4631C23.2072 16.3305 23.6464 16.2642 24.1071 16.2642C24.412 16.2642 24.7351 16.3007 25.0765 16.3736C25.4212 16.4432 25.7427 16.5724 26.041 16.7614C26.3426 16.9503 26.5895 17.2204 26.7818 17.5717C26.974 17.9197 27.0701 18.3722 27.0701 18.929V24H25.6184V22.956H25.5588C25.4627 23.1482 25.3185 23.3371 25.1262 23.5227C24.934 23.7083 24.6871 23.8625 24.3855 23.9851C24.0839 24.1077 23.7226 24.169 23.3017 24.169ZM23.6248 22.9759C24.0358 22.9759 24.3871 22.8946 24.6788 22.7322C24.9738 22.5698 25.1975 22.3577 25.35 22.0959C25.5057 21.8307 25.5836 21.5473 25.5836 21.2457V20.2614C25.5306 20.3144 25.4279 20.3641 25.2754 20.4105C25.1262 20.4536 24.9556 20.4917 24.7633 20.5249C24.5711 20.5547 24.3838 20.5829 24.2015 20.6094C24.0192 20.6326 23.8668 20.6525 23.7441 20.669C23.4558 20.7055 23.1923 20.7668 22.9537 20.853C22.7183 20.9392 22.5294 21.0634 22.3869 21.2259C22.2477 21.3849 22.1781 21.5971 22.1781 21.8622C22.1781 22.2301 22.314 22.5085 22.5858 22.6974C22.8575 22.883 23.2039 22.9759 23.6248 22.9759ZM30.5366 13.8182V24H29.0501V13.8182H30.5366ZM33.9036 21.4098L33.8936 19.5952H34.1522L37.1948 16.3636H38.9746L35.5044 20.0426H35.2708L33.9036 21.4098ZM32.5364 24V13.8182H34.0229V24H32.5364ZM37.3588 24L34.6245 20.3707L35.6486 19.3317L39.1834 24H37.3588ZM47.5991 16.3636V17.5568H43.4279V16.3636H47.5991ZM44.5465 14.5341H46.033V21.7578C46.033 22.0462 46.0761 22.2633 46.1623 22.4091C46.2485 22.5516 46.3595 22.6494 46.4954 22.7024C46.6346 22.7521 46.7854 22.777 46.9478 22.777C47.0671 22.777 47.1715 22.7687 47.261 22.7521C47.3505 22.7356 47.4201 22.7223 47.4698 22.7124L47.7383 23.9403C47.6521 23.9735 47.5295 24.0066 47.3704 24.0398C47.2113 24.0762 47.0124 24.0961 46.7738 24.0994C46.3827 24.1061 46.0181 24.0365 45.68 23.8906C45.342 23.7448 45.0685 23.5194 44.8597 23.2145C44.6509 22.9096 44.5465 22.5268 44.5465 22.0661V14.5341ZM52.378 24.1541C51.6621 24.1541 51.0373 23.9901 50.5037 23.6619C49.9701 23.3338 49.5558 22.8748 49.2608 22.2848C48.9658 21.6948 48.8184 21.0054 48.8184 20.2166C48.8184 19.4245 48.9658 18.7318 49.2608 18.1385C49.5558 17.5452 49.9701 17.0845 50.5037 16.7564C51.0373 16.4283 51.6621 16.2642 52.378 16.2642C53.0939 16.2642 53.7187 16.4283 54.2523 16.7564C54.7859 17.0845 55.2002 17.5452 55.4952 18.1385C55.7902 18.7318 55.9377 19.4245 55.9377 20.2166C55.9377 21.0054 55.7902 21.6948 55.4952 22.2848C55.2002 22.8748 54.7859 23.3338 54.2523 23.6619C53.7187 23.9901 53.0939 24.1541 52.378 24.1541ZM52.383 22.9062C52.847 22.9062 53.2315 22.7836 53.5364 22.5384C53.8413 22.2931 54.0667 21.9666 54.2125 21.5589C54.3617 21.1513 54.4363 20.7022 54.4363 20.2116C54.4363 19.7244 54.3617 19.277 54.2125 18.8693C54.0667 18.4583 53.8413 18.1286 53.5364 17.88C53.2315 17.6314 52.847 17.5071 52.383 17.5071C51.9157 17.5071 51.5279 17.6314 51.2196 17.88C50.9147 18.1286 50.6877 18.4583 50.5385 18.8693C50.3927 19.277 50.3198 19.7244 50.3198 20.2116C50.3198 20.7022 50.3927 21.1513 50.5385 21.5589C50.6877 21.9666 50.9147 22.2931 51.2196 22.5384C51.5279 22.7836 51.9157 22.9062 52.383 22.9062ZM63.5243 24.169C63.0404 24.169 62.6029 24.0795 62.2118 23.9006C61.8207 23.7183 61.5108 23.4548 61.2821 23.1101C61.0568 22.7654 60.9441 22.3428 60.9441 21.8423C60.9441 21.4115 61.0269 21.0568 61.1926 20.7784C61.3584 20.5 61.5821 20.2796 61.8638 20.1172C62.1455 19.9548 62.4604 19.8321 62.8084 19.7493C63.1564 19.6664 63.5111 19.6035 63.8723 19.5604C64.3297 19.5073 64.7009 19.4643 64.986 19.4311C65.271 19.3946 65.4782 19.3366 65.6074 19.2571C65.7367 19.1776 65.8013 19.0483 65.8013 18.8693V18.8345C65.8013 18.4003 65.6787 18.0639 65.4334 17.8253C65.1915 17.5866 64.8302 17.4673 64.3496 17.4673C63.8491 17.4673 63.4547 17.5784 63.1664 17.8004C62.8813 18.0192 62.6841 18.2628 62.5748 18.5312L61.1777 18.2131C61.3435 17.7491 61.5854 17.3745 61.9036 17.0895C62.2251 16.8011 62.5946 16.5923 63.0123 16.4631C63.4299 16.3305 63.869 16.2642 64.3297 16.2642C64.6346 16.2642 64.9578 16.3007 65.2992 16.3736C65.6439 16.4432 65.9654 16.5724 66.2637 16.7614C66.5653 16.9503 66.8122 17.2204 67.0044 17.5717C67.1967 17.9197 67.2928 18.3722 67.2928 18.929V24H65.8411V22.956H65.7814C65.6853 23.1482 65.5411 23.3371 65.3489 23.5227C65.1567 23.7083 64.9097 23.8625 64.6081 23.9851C64.3065 24.1077 63.9453 24.169 63.5243 24.169ZM63.8475 22.9759C64.2585 22.9759 64.6098 22.8946 64.9015 22.7322C65.1964 22.5698 65.4202 22.3577 65.5726 22.0959C65.7284 21.8307 65.8063 21.5473 65.8063 21.2457V20.2614C65.7533 20.3144 65.6505 20.3641 65.498 20.4105C65.3489 20.4536 65.1782 20.4917 64.986 20.5249C64.7937 20.5547 64.6065 20.5829 64.4242 20.6094C64.2419 20.6326 64.0894 20.6525 63.9668 20.669C63.6784 20.7055 63.415 20.7668 63.1763 20.853C62.941 20.9392 62.7521 21.0634 62.6096 21.2259C62.4703 21.3849 62.4007 21.5971 62.4007 21.8622C62.4007 22.2301 62.5366 22.5085 62.8084 22.6974C63.0802 22.883 63.4266 22.9759 63.8475 22.9759ZM73.0971 13.8182H74.9615L78.2029 21.733H78.3223L81.5637 13.8182H83.4281V24H81.9664V16.6321H81.872L78.8691 23.9851H77.6561L74.6532 16.6271H74.5588V24H73.0971V13.8182ZM85.5423 24V16.3636H87.0288V24H85.5423ZM86.293 15.1854C86.0344 15.1854 85.8124 15.0992 85.6268 14.9268C85.4445 14.7512 85.3533 14.5424 85.3533 14.3004C85.3533 14.0552 85.4445 13.8464 85.6268 13.674C85.8124 13.4983 86.0344 13.4105 86.293 13.4105C86.5515 13.4105 86.7719 13.4983 86.9542 13.674C87.1398 13.8464 87.2326 14.0552 87.2326 14.3004C87.2326 14.5424 87.1398 14.7512 86.9542 14.9268C86.7719 15.0992 86.5515 15.1854 86.293 15.1854ZM94.7509 18.228L93.4036 18.4666C93.3472 18.2943 93.2578 18.1302 93.1351 17.9744C93.0158 17.8187 92.8534 17.6911 92.6479 17.5916C92.4424 17.4922 92.1855 17.4425 91.8773 17.4425C91.4564 17.4425 91.1051 17.5369 90.8233 17.7259C90.5416 17.9115 90.4007 18.1518 90.4007 18.4467C90.4007 18.7019 90.4952 18.9074 90.6841 19.0632C90.873 19.219 91.178 19.3466 91.5989 19.446L92.812 19.7244C93.5146 19.8868 94.0383 20.1371 94.383 20.4751C94.7277 20.8132 94.9 21.2524 94.9 21.7926C94.9 22.25 94.7675 22.6577 94.5023 23.0156C94.2405 23.3703 93.8742 23.6487 93.4036 23.8509C92.9363 24.053 92.3944 24.1541 91.7779 24.1541C90.9228 24.1541 90.2251 23.9718 89.6848 23.6072C89.1446 23.2393 88.8132 22.7173 88.6905 22.0412L90.1273 21.8224C90.2168 22.197 90.4007 22.4804 90.6792 22.6726C90.9576 22.8615 91.3205 22.956 91.7679 22.956C92.2551 22.956 92.6446 22.8549 92.9363 22.6527C93.2279 22.4472 93.3738 22.197 93.3738 21.902C93.3738 21.6634 93.2843 21.4628 93.1053 21.3004C92.9296 21.138 92.6595 21.0154 92.2949 20.9325L91.0023 20.6491C90.2897 20.4867 89.7627 20.2282 89.4213 19.8736C89.0833 19.5189 88.9142 19.0698 88.9142 18.5263C88.9142 18.0755 89.0402 17.6811 89.2921 17.343C89.544 17.005 89.892 16.7415 90.3361 16.5526C90.7802 16.3603 91.289 16.2642 91.8624 16.2642C92.6877 16.2642 93.3373 16.4432 93.8113 16.8011C94.2852 17.1558 94.5984 17.6314 94.7509 18.228ZM102.257 18.228L100.909 18.4666C100.853 18.2943 100.764 18.1302 100.641 17.9744C100.522 17.8187 100.359 17.6911 100.154 17.5916C99.9483 17.4922 99.6914 17.4425 99.3832 17.4425C98.9622 17.4425 98.6109 17.5369 98.3292 17.7259C98.0475 17.9115 97.9066 18.1518 97.9066 18.4467C97.9066 18.7019 98.0011 18.9074 98.19 19.0632C98.3789 19.219 98.6838 19.3466 99.1048 19.446L100.318 19.7244C101.02 19.8868 101.544 20.1371 101.889 20.4751C102.234 20.8132 102.406 21.2524 102.406 21.7926C102.406 22.25 102.273 22.6577 102.008 23.0156C101.746 23.3703 101.38 23.6487 100.909 23.8509C100.442 24.053 99.9002 24.1541 99.2837 24.1541C98.4286 24.1541 97.7309 23.9718 97.1907 23.6072C96.6504 23.2393 96.319 22.7173 96.1964 22.0412L97.6332 21.8224C97.7227 22.197 97.9066 22.4804 98.185 22.6726C98.4634 22.8615 98.8263 22.956 99.2738 22.956C99.761 22.956 100.15 22.8549 100.442 22.6527C100.734 22.4472 100.88 22.197 100.88 21.902C100.88 21.6634 100.79 21.4628 100.611 21.3004C100.435 21.138 100.165 21.0154 99.8008 20.9325L98.5082 20.6491C97.7956 20.4867 97.2686 20.2282 96.9272 19.8736C96.5891 19.5189 96.4201 19.0698 96.4201 18.5263C96.4201 18.0755 96.546 17.6811 96.7979 17.343C97.0498 17.005 97.3978 16.7415 97.842 16.5526C98.2861 16.3603 98.7949 16.2642 99.3683 16.2642C100.194 16.2642 100.843 16.4432 101.317 16.8011C101.791 17.1558 102.104 17.6314 102.257 18.228ZM104.04 24V16.3636H105.527V24H104.04ZM104.791 15.1854C104.532 15.1854 104.31 15.0992 104.125 14.9268C103.943 14.7512 103.851 14.5424 103.851 14.3004C103.851 14.0552 103.943 13.8464 104.125 13.674C104.31 13.4983 104.532 13.4105 104.791 13.4105C105.05 13.4105 105.27 13.4983 105.452 13.674C105.638 13.8464 105.731 14.0552 105.731 14.3004C105.731 14.5424 105.638 14.7512 105.452 14.9268C105.27 15.0992 105.05 15.1854 104.791 15.1854ZM110.743 24.1541C110.027 24.1541 109.403 23.9901 108.869 23.6619C108.335 23.3338 107.921 22.8748 107.626 22.2848C107.331 21.6948 107.184 21.0054 107.184 20.2166C107.184 19.4245 107.331 18.7318 107.626 18.1385C107.921 17.5452 108.335 17.0845 108.869 16.7564C109.403 16.4283 110.027 16.2642 110.743 16.2642C111.459 16.2642 112.084 16.4283 112.618 16.7564C113.151 17.0845 113.565 17.5452 113.86 18.1385C114.155 18.7318 114.303 19.4245 114.303 20.2166C114.303 21.0054 114.155 21.6948 113.86 22.2848C113.565 22.8748 113.151 23.3338 112.618 23.6619C112.084 23.9901 111.459 24.1541 110.743 24.1541ZM110.748 22.9062C111.212 22.9062 111.597 22.7836 111.902 22.5384C112.207 22.2931 112.432 21.9666 112.578 21.5589C112.727 21.1513 112.801 20.7022 112.801 20.2116C112.801 19.7244 112.727 19.277 112.578 18.8693C112.432 18.4583 112.207 18.1286 111.902 17.88C111.597 17.6314 111.212 17.5071 110.748 17.5071C110.281 17.5071 109.893 17.6314 109.585 17.88C109.28 18.1286 109.053 18.4583 108.904 18.8693C108.758 19.277 108.685 19.7244 108.685 20.2116C108.685 20.7022 108.758 21.1513 108.904 21.5589C109.053 21.9666 109.28 22.2931 109.585 22.5384C109.893 22.7836 110.281 22.9062 110.748 22.9062ZM117.449 19.4659V24H115.962V16.3636H117.389V17.6065H117.483C117.659 17.2022 117.934 16.8774 118.309 16.6321C118.687 16.3868 119.162 16.2642 119.736 16.2642C120.256 16.2642 120.712 16.3736 121.103 16.5923C121.494 16.8078 121.797 17.1293 122.013 17.5568C122.228 17.9844 122.336 18.513 122.336 19.1428V24H120.849V19.3217C120.849 18.7682 120.705 18.3357 120.417 18.0241C120.128 17.7093 119.732 17.5518 119.229 17.5518C118.884 17.5518 118.577 17.6264 118.309 17.7756C118.044 17.9247 117.833 18.1435 117.677 18.4318C117.525 18.7169 117.449 19.0616 117.449 19.4659ZM128.154 24V13.8182H134.537V15.1406H129.69V18.2429H134.204V19.5604H129.69V22.6776H134.597V24H128.154ZM137.643 16.3636L139.329 19.3366L141.029 16.3636H142.655L140.273 20.1818L142.675 24H141.049L139.329 21.1463L137.613 24H135.983L138.359 20.1818L136.013 16.3636H137.643ZM144.181 26.8636V16.3636H145.633V17.6016H145.757C145.843 17.4425 145.967 17.2585 146.13 17.0497C146.292 16.8409 146.518 16.6586 146.806 16.5028C147.094 16.3438 147.475 16.2642 147.949 16.2642C148.566 16.2642 149.116 16.42 149.6 16.7315C150.084 17.0431 150.463 17.4922 150.738 18.0788C151.017 18.6655 151.156 19.3714 151.156 20.1967C151.156 21.022 151.019 21.7296 150.743 22.3196C150.468 22.9062 150.09 23.3587 149.61 23.6768C149.129 23.9917 148.581 24.1491 147.964 24.1491C147.5 24.1491 147.121 24.0713 146.826 23.9155C146.534 23.7597 146.305 23.5774 146.14 23.3686C145.974 23.1598 145.846 22.9742 145.757 22.8118H145.667V26.8636H144.181ZM145.638 20.1818C145.638 20.7187 145.715 21.1894 145.871 21.5938C146.027 21.9981 146.252 22.3146 146.547 22.5433C146.842 22.7687 147.204 22.8814 147.631 22.8814C148.075 22.8814 148.447 22.7637 148.745 22.5284C149.043 22.2898 149.269 21.9666 149.421 21.5589C149.577 21.1513 149.655 20.6922 149.655 20.1818C149.655 19.678 149.578 19.2256 149.426 18.8246C149.277 18.4235 149.051 18.107 148.75 17.875C148.452 17.643 148.079 17.527 147.631 17.527C147.2 17.527 146.836 17.638 146.537 17.8601C146.242 18.0821 146.019 18.392 145.866 18.7898C145.714 19.1875 145.638 19.6515 145.638 20.1818ZM156.113 24.1541C155.36 24.1541 154.712 23.9934 154.169 23.6719C153.629 23.3471 153.211 22.8913 152.916 22.3047C152.624 21.7147 152.479 21.0237 152.479 20.2315C152.479 19.4493 152.624 18.7599 152.916 18.1634C153.211 17.5668 153.622 17.1011 154.149 16.7663C154.679 16.4316 155.299 16.2642 156.008 16.2642C156.439 16.2642 156.857 16.3355 157.261 16.478C157.666 16.6205 158.028 16.8442 158.35 17.1491C158.671 17.4541 158.925 17.8501 159.111 18.3374C159.296 18.8213 159.389 19.4096 159.389 20.1023V20.6293H153.319V19.5156H157.932C157.932 19.1245 157.853 18.7782 157.694 18.4766C157.535 18.1716 157.311 17.9313 157.023 17.7557C156.738 17.58 156.403 17.4922 156.018 17.4922C155.601 17.4922 155.236 17.5949 154.925 17.8004C154.616 18.0026 154.378 18.2678 154.209 18.5959C154.043 18.9207 153.96 19.2737 153.96 19.6548V20.5249C153.96 21.0353 154.05 21.4695 154.229 21.8274C154.411 22.1854 154.664 22.4588 154.989 22.6477C155.314 22.8333 155.693 22.9261 156.128 22.9261C156.409 22.9261 156.666 22.8864 156.898 22.8068C157.13 22.724 157.331 22.6013 157.5 22.4389C157.669 22.2765 157.798 22.076 157.888 21.8374L159.295 22.0909C159.182 22.5052 158.98 22.8681 158.688 23.1797C158.4 23.4879 158.037 23.7282 157.599 23.9006C157.165 24.0696 156.67 24.1541 156.113 24.1541ZM161.038 24V16.3636H162.475V17.5767H162.555C162.694 17.1657 162.939 16.8426 163.29 16.6072C163.645 16.3686 164.046 16.2493 164.494 16.2493C164.586 16.2493 164.696 16.2526 164.822 16.2592C164.951 16.2659 165.052 16.2741 165.125 16.2841V17.706C165.065 17.6894 164.959 17.6712 164.807 17.6513C164.654 17.6281 164.502 17.6165 164.349 17.6165C163.998 17.6165 163.685 17.6911 163.41 17.8402C163.138 17.986 162.923 18.1899 162.763 18.4517C162.604 18.7102 162.525 19.0052 162.525 19.3366V24H161.038ZM170.427 16.3636V17.5568H166.256V16.3636H170.427ZM167.375 14.5341H168.861V21.7578C168.861 22.0462 168.904 22.2633 168.99 22.4091C169.077 22.5516 169.188 22.6494 169.324 22.7024C169.463 22.7521 169.614 22.777 169.776 22.777C169.895 22.777 170 22.7687 170.089 22.7521C170.179 22.7356 170.248 22.7223 170.298 22.7124L170.566 23.9403C170.48 23.9735 170.358 24.0066 170.199 24.0398C170.039 24.0762 169.841 24.0961 169.602 24.0994C169.211 24.1061 168.846 24.0365 168.508 23.8906C168.17 23.7448 167.897 23.5194 167.688 23.2145C167.479 22.9096 167.375 22.5268 167.375 22.0661V14.5341Z" fill="white"/>
</svg>
