<svg width="166" height="26" viewBox="0 0 166 26" fill="none" xmlns="http://www.w3.org/2000/svg">
<path d="M0 8C0 3.58172 3.58172 0 8 0H158C162.418 0 166 3.58172 166 8V18C166 22.4183 162.418 26 158 26H8C3.58173 26 0 22.4183 0 18V8Z" fill="#E02424"/>
<rect width="12" height="12" transform="translate(12 7)" fill="white" fill-opacity="0.01" style="mix-blend-mode:multiply"/>
<path d="M17.25 13.2213L16.2788 12.25L15.75 12.7787L17.25 14.2787L20.25 11.2787L19.7213 10.75L17.25 13.2213Z" fill="white"/>
<path d="M18 18.25L15.6841 17.0152C15.0238 16.6639 14.4716 16.1395 14.0869 15.4982C13.7021 14.8569 13.4992 14.1229 13.5 13.375V8.5C13.5002 8.30115 13.5793 8.11051 13.7199 7.9699C13.8605 7.82929 14.0512 7.75021 14.25 7.75H21.75C21.9488 7.75021 22.1395 7.82929 22.2801 7.9699C22.4207 8.11051 22.4998 8.30115 22.5 8.5V13.375C22.5008 14.1229 22.2979 14.8569 21.9131 15.4982C21.5284 16.1395 20.9762 16.6639 20.3159 17.0152L18 18.25ZM14.25 8.5V13.375C14.2494 13.9869 14.4154 14.5875 14.7302 15.1122C15.0451 15.6369 15.4968 16.066 16.0371 16.3534L18 17.4L19.9629 16.3534C20.5032 16.066 20.955 15.6369 21.2698 15.1122C21.5846 14.5875 21.7507 13.9869 21.75 13.375V8.5H14.25Z" fill="white"/>
<path d="M33.7216 8.27273L36.1506 15.3807H36.2486L38.6776 8.27273H40.1009L36.9602 17H35.4389L32.2983 8.27273H33.7216ZM41.2589 17V10.4545H42.533V17H41.2589ZM41.9023 9.4446C41.6808 9.4446 41.4904 9.37074 41.3313 9.22301C41.1751 9.07244 41.0969 8.89347 41.0969 8.68608C41.0969 8.47585 41.1751 8.29687 41.3313 8.14915C41.4904 7.99858 41.6808 7.9233 41.9023 7.9233C42.1239 7.9233 42.3129 7.99858 42.4691 8.14915C42.6282 8.29687 42.7077 8.47585 42.7077 8.68608C42.7077 8.89347 42.6282 9.07244 42.4691 9.22301C42.3129 9.37074 42.1239 9.4446 41.9023 9.4446ZM47.0682 17.1321C46.4233 17.1321 45.8679 16.9943 45.402 16.7188C44.9389 16.4403 44.581 16.0497 44.3281 15.5469C44.0781 15.0412 43.9531 14.4489 43.9531 13.7699C43.9531 13.0994 44.0781 12.5085 44.3281 11.9972C44.581 11.4858 44.9332 11.0866 45.3849 10.7997C45.8395 10.5128 46.3707 10.3693 46.9787 10.3693C47.348 10.3693 47.706 10.4304 48.0526 10.5526C48.3991 10.6747 48.7102 10.8665 48.9858 11.1278C49.2614 11.3892 49.4787 11.7287 49.6378 12.1463C49.7969 12.5611 49.8764 13.0653 49.8764 13.6591V14.1108H44.6733V13.1562H48.6278C48.6278 12.821 48.5597 12.5241 48.4233 12.2656C48.2869 12.0043 48.0952 11.7983 47.848 11.6477C47.6037 11.4972 47.3168 11.4219 46.9872 11.4219C46.6293 11.4219 46.3168 11.5099 46.0497 11.6861C45.7855 11.8594 45.581 12.0866 45.4361 12.3679C45.294 12.6463 45.223 12.9489 45.223 13.2756V14.0213C45.223 14.4588 45.2997 14.831 45.4531 15.1378C45.6094 15.4446 45.8267 15.679 46.1051 15.8409C46.3835 16 46.7088 16.0795 47.081 16.0795C47.3224 16.0795 47.5426 16.0455 47.7415 15.9773C47.9403 15.9062 48.1122 15.8011 48.2571 15.6619C48.402 15.5227 48.5128 15.3509 48.5895 15.1463L49.7955 15.3636C49.6989 15.7187 49.5256 16.0298 49.2756 16.2969C49.0284 16.5611 48.7173 16.767 48.3423 16.9148C47.9702 17.0597 47.5455 17.1321 47.0682 17.1321ZM52.6974 17L50.7713 10.4545H52.0881L53.3707 15.2614H53.4347L54.7216 10.4545H56.0384L57.3168 15.2401H57.3807L58.6548 10.4545H59.9716L58.0497 17H56.75L55.4205 12.2741H55.3224L53.9929 17H52.6974ZM69.2188 10.5653C69.1733 10.1619 68.9858 9.84943 68.6562 9.62784C68.3267 9.40341 67.9119 9.29119 67.4119 9.29119C67.054 9.29119 66.7443 9.34801 66.483 9.46165C66.2216 9.57244 66.0185 9.72585 65.8736 9.92188C65.7315 10.1151 65.6605 10.3352 65.6605 10.5824C65.6605 10.7898 65.7088 10.9687 65.8054 11.1193C65.9048 11.2699 66.0341 11.3963 66.1932 11.4986C66.3551 11.598 66.5284 11.6818 66.7131 11.75C66.8977 11.8153 67.0753 11.8693 67.2457 11.9119L68.098 12.1335C68.3764 12.2017 68.6619 12.294 68.9545 12.4105C69.2472 12.527 69.5185 12.6804 69.7685 12.8707C70.0185 13.0611 70.2202 13.2969 70.3736 13.5781C70.5298 13.8594 70.608 14.196 70.608 14.5881C70.608 15.0824 70.4801 15.5213 70.2244 15.9048C69.9716 16.2884 69.6037 16.5909 69.1207 16.8125C68.6406 17.0341 68.0597 17.1449 67.3778 17.1449C66.7244 17.1449 66.1591 17.0412 65.6818 16.8338C65.2045 16.6264 64.831 16.3324 64.5611 15.9517C64.2912 15.5682 64.142 15.1136 64.1136 14.5881H65.4347C65.4602 14.9034 65.5625 15.1662 65.7415 15.3764C65.9233 15.5838 66.1548 15.7386 66.4361 15.8409C66.7202 15.9403 67.0312 15.9901 67.3693 15.9901C67.7415 15.9901 68.0724 15.9318 68.3622 15.8153C68.6548 15.696 68.8849 15.5312 69.0526 15.321C69.2202 15.108 69.304 14.8594 69.304 14.5753C69.304 14.3168 69.2301 14.1051 69.0824 13.9403C68.9375 13.7756 68.7401 13.6392 68.4901 13.5312C68.2429 13.4233 67.9631 13.3281 67.6506 13.2457L66.6193 12.9645C65.9205 12.7741 65.3665 12.4943 64.9574 12.125C64.5511 11.7557 64.348 11.267 64.348 10.6591C64.348 10.1562 64.4844 9.71733 64.7571 9.34233C65.0298 8.96733 65.3991 8.67614 65.8651 8.46875C66.331 8.25852 66.8565 8.15341 67.4418 8.15341C68.0327 8.15341 68.554 8.2571 69.0057 8.46449C69.4602 8.67188 69.8182 8.95739 70.0795 9.32102C70.3409 9.68182 70.4773 10.0966 70.4886 10.5653H69.2188ZM74.9002 17.1321C74.2553 17.1321 73.6999 16.9943 73.234 16.7188C72.771 16.4403 72.413 16.0497 72.1602 15.5469C71.9102 15.0412 71.7852 14.4489 71.7852 13.7699C71.7852 13.0994 71.9102 12.5085 72.1602 11.9972C72.413 11.4858 72.7653 11.0866 73.217 10.7997C73.6715 10.5128 74.2028 10.3693 74.8107 10.3693C75.18 10.3693 75.538 10.4304 75.8846 10.5526C76.2312 10.6747 76.5423 10.8665 76.8178 11.1278C77.0934 11.3892 77.3107 11.7287 77.4698 12.1463C77.6289 12.5611 77.7085 13.0653 77.7085 13.6591V14.1108H72.5053V13.1562H76.4599C76.4599 12.821 76.3917 12.5241 76.2553 12.2656C76.119 12.0043 75.9272 11.7983 75.68 11.6477C75.4357 11.4972 75.1488 11.4219 74.8192 11.4219C74.4613 11.4219 74.1488 11.5099 73.8817 11.6861C73.6175 11.8594 73.413 12.0866 73.2681 12.3679C73.1261 12.6463 73.055 12.9489 73.055 13.2756V14.0213C73.055 14.4588 73.1317 14.831 73.2852 15.1378C73.4414 15.4446 73.6587 15.679 73.9371 15.8409C74.2156 16 74.5408 16.0795 74.913 16.0795C75.1545 16.0795 75.3746 16.0455 75.5735 15.9773C75.7724 15.9062 75.9442 15.8011 76.0891 15.6619C76.234 15.5227 76.3448 15.3509 76.4215 15.1463L77.6275 15.3636C77.5309 15.7187 77.3576 16.0298 77.1076 16.2969C76.8604 16.5611 76.5494 16.767 76.1744 16.9148C75.8022 17.0597 75.3775 17.1321 74.9002 17.1321ZM81.8793 17.1321C81.2457 17.1321 80.7003 16.9886 80.2429 16.7017C79.7884 16.4119 79.4389 16.0128 79.1946 15.5043C78.9503 14.9957 78.8281 14.4134 78.8281 13.7571C78.8281 13.0923 78.9531 12.5057 79.2031 11.9972C79.4531 11.4858 79.8054 11.0866 80.2599 10.7997C80.7145 10.5128 81.25 10.3693 81.8665 10.3693C82.3636 10.3693 82.8068 10.4616 83.196 10.6463C83.5852 10.8281 83.8991 11.0838 84.1378 11.4134C84.3793 11.7429 84.5227 12.1278 84.5682 12.5682H83.3281C83.2599 12.2614 83.1037 11.9972 82.8594 11.7756C82.6179 11.554 82.294 11.4432 81.8878 11.4432C81.5327 11.4432 81.2216 11.5369 80.9545 11.7244C80.6903 11.9091 80.4844 12.1733 80.3366 12.517C80.1889 12.858 80.1151 13.2614 80.1151 13.7273C80.1151 14.2045 80.1875 14.6165 80.3324 14.9631C80.4773 15.3097 80.6818 15.5781 80.946 15.7685C81.2131 15.9588 81.527 16.054 81.8878 16.054C82.1293 16.054 82.348 16.0099 82.544 15.9219C82.7429 15.831 82.9091 15.7017 83.0426 15.5341C83.179 15.3665 83.2741 15.1648 83.3281 14.929H84.5682C84.5227 15.3523 84.3849 15.7301 84.1548 16.0625C83.9247 16.3949 83.6165 16.6562 83.2301 16.8466C82.8466 17.0369 82.3963 17.1321 81.8793 17.1321ZM90.0771 14.2855V10.4545H91.3555V17H90.1026V15.8665H90.0344C89.8839 16.2159 89.6424 16.5071 89.31 16.7401C88.9805 16.9702 88.57 17.0852 88.0785 17.0852C87.658 17.0852 87.2859 16.9929 86.962 16.8082C86.641 16.6207 86.3881 16.3438 86.2035 15.9773C86.0217 15.6108 85.9308 15.1577 85.9308 14.6179V10.4545H87.2049V14.4645C87.2049 14.9105 87.3285 15.2656 87.5756 15.5298C87.8228 15.794 88.1438 15.9261 88.5387 15.9261C88.7773 15.9261 89.0146 15.8665 89.2504 15.7472C89.489 15.6278 89.6864 15.4474 89.8427 15.206C90.0018 14.9645 90.0799 14.6577 90.0771 14.2855ZM93.0675 17V10.4545H94.299V11.4943H94.3672C94.4865 11.142 94.6967 10.8651 94.9979 10.6634C95.3018 10.4588 95.6456 10.3565 96.0291 10.3565C96.1087 10.3565 96.2024 10.3594 96.3104 10.3651C96.4212 10.3707 96.5078 10.3778 96.5703 10.3864V11.6051C96.5192 11.5909 96.4283 11.5753 96.2976 11.5582C96.1669 11.5384 96.0362 11.5284 95.9055 11.5284C95.6044 11.5284 95.3359 11.5923 95.1001 11.7202C94.8672 11.8452 94.6825 12.0199 94.5462 12.2443C94.4098 12.4659 94.3416 12.7187 94.3416 13.0028V17H93.0675ZM97.6729 17V10.4545H98.9471V17H97.6729ZM98.3164 9.4446C98.0948 9.4446 97.9045 9.37074 97.7454 9.22301C97.5891 9.07244 97.511 8.89347 97.511 8.68608C97.511 8.47585 97.5891 8.29687 97.7454 8.14915C97.9045 7.99858 98.0948 7.9233 98.3164 7.9233C98.538 7.9233 98.7269 7.99858 98.8832 8.14915C99.0423 8.29687 99.1218 8.47585 99.1218 8.68608C99.1218 8.89347 99.0423 9.07244 98.8832 9.22301C98.7269 9.37074 98.538 9.4446 98.3164 9.4446ZM103.717 10.4545V11.4773H100.141V10.4545H103.717ZM101.1 8.88636H102.374V15.0781C102.374 15.3253 102.411 15.5114 102.485 15.6364C102.559 15.7585 102.654 15.8423 102.771 15.8878C102.89 15.9304 103.019 15.9517 103.158 15.9517C103.261 15.9517 103.35 15.9446 103.427 15.9304C103.504 15.9162 103.563 15.9048 103.606 15.8963L103.836 16.9489C103.762 16.9773 103.657 17.0057 103.521 17.0341C103.384 17.0653 103.214 17.0824 103.009 17.0852C102.674 17.0909 102.362 17.0312 102.072 16.9062C101.782 16.7812 101.548 16.5881 101.369 16.3267C101.19 16.0653 101.1 15.7372 101.1 15.3423V8.88636ZM105.931 19.4545C105.741 19.4545 105.568 19.4389 105.412 19.4077C105.255 19.3793 105.139 19.348 105.062 19.3139L105.369 18.2699C105.602 18.3324 105.809 18.3594 105.991 18.3509C106.173 18.3423 106.333 18.2741 106.473 18.1463C106.615 18.0185 106.74 17.8097 106.848 17.5199L107.005 17.0852L104.61 10.4545H105.974L107.632 15.5341H107.7L109.358 10.4545H110.725L108.028 17.8736C107.903 18.2145 107.744 18.5028 107.551 18.7386C107.358 18.9773 107.127 19.1563 106.86 19.2756C106.593 19.3949 106.284 19.4545 105.931 19.4545ZM115.201 17V8.27273H118.312C118.988 8.27273 119.549 8.3892 119.995 8.62216C120.444 8.85511 120.779 9.17756 121.001 9.58949C121.222 9.99858 121.333 10.4716 121.333 11.0085C121.333 11.5426 121.221 12.0128 120.996 12.419C120.775 12.8224 120.44 13.1364 119.991 13.3608C119.545 13.5852 118.984 13.6974 118.308 13.6974H115.951V12.5639H118.188C118.614 12.5639 118.961 12.5028 119.228 12.3807C119.498 12.2585 119.695 12.081 119.82 11.848C119.945 11.6151 120.008 11.3352 120.008 11.0085C120.008 10.679 119.944 10.3935 119.816 10.152C119.691 9.91051 119.494 9.72585 119.224 9.59801C118.957 9.46733 118.606 9.40199 118.171 9.40199H116.518V17H115.201ZM119.509 13.0625L121.665 17H120.165L118.052 13.0625H119.509ZM125.572 17.1321C124.927 17.1321 124.372 16.9943 123.906 16.7188C123.443 16.4403 123.085 16.0497 122.832 15.5469C122.582 15.0412 122.457 14.4489 122.457 13.7699C122.457 13.0994 122.582 12.5085 122.832 11.9972C123.085 11.4858 123.437 11.0866 123.889 10.7997C124.343 10.5128 124.875 10.3693 125.483 10.3693C125.852 10.3693 126.21 10.4304 126.556 10.5526C126.903 10.6747 127.214 10.8665 127.49 11.1278C127.765 11.3892 127.983 11.7287 128.142 12.1463C128.301 12.5611 128.38 13.0653 128.38 13.6591V14.1108H123.177V13.1562H127.132C127.132 12.821 127.064 12.5241 126.927 12.2656C126.791 12.0043 126.599 11.7983 126.352 11.6477C126.108 11.4972 125.821 11.4219 125.491 11.4219C125.133 11.4219 124.821 11.5099 124.554 11.6861C124.289 11.8594 124.085 12.0866 123.94 12.3679C123.798 12.6463 123.727 12.9489 123.727 13.2756V14.0213C123.727 14.4588 123.804 14.831 123.957 15.1378C124.113 15.4446 124.331 15.679 124.609 15.8409C124.887 16 125.213 16.0795 125.585 16.0795C125.826 16.0795 126.047 16.0455 126.245 15.9773C126.444 15.9062 126.616 15.8011 126.761 15.6619C126.906 15.5227 127.017 15.3509 127.093 15.1463L128.299 15.3636C128.203 15.7187 128.029 16.0298 127.779 16.2969C127.532 16.5611 127.221 16.767 126.846 16.9148C126.474 17.0597 126.049 17.1321 125.572 17.1321ZM129.794 19.4545V10.4545H131.038V11.5156H131.145C131.219 11.3793 131.325 11.2216 131.464 11.0426C131.604 10.8636 131.797 10.7074 132.044 10.5739C132.291 10.4375 132.618 10.3693 133.024 10.3693C133.553 10.3693 134.024 10.5028 134.439 10.7699C134.854 11.0369 135.179 11.4219 135.415 11.9247C135.653 12.4276 135.773 13.0327 135.773 13.7401C135.773 14.4474 135.655 15.054 135.419 15.5597C135.183 16.0625 134.859 16.4503 134.447 16.723C134.036 16.9929 133.565 17.1278 133.037 17.1278C132.639 17.1278 132.314 17.0611 132.061 16.9276C131.811 16.794 131.615 16.6378 131.473 16.4588C131.331 16.2798 131.222 16.1207 131.145 15.9815H131.068V19.4545H129.794ZM131.043 13.7273C131.043 14.1875 131.109 14.5909 131.243 14.9375C131.376 15.2841 131.57 15.5554 131.822 15.7514C132.075 15.9446 132.385 16.0412 132.751 16.0412C133.132 16.0412 133.45 15.9403 133.706 15.7386C133.962 15.5341 134.155 15.2571 134.286 14.9077C134.419 14.5582 134.486 14.1648 134.486 13.7273C134.486 13.2955 134.42 12.9077 134.29 12.5639C134.162 12.2202 133.969 11.9489 133.71 11.75C133.455 11.5511 133.135 11.4517 132.751 11.4517C132.382 11.4517 132.07 11.5469 131.814 11.7372C131.561 11.9276 131.369 12.1932 131.239 12.5341C131.108 12.875 131.043 13.2727 131.043 13.7273ZM139.957 17.1321C139.344 17.1321 138.808 16.9915 138.351 16.7102C137.893 16.429 137.538 16.0355 137.286 15.5298C137.033 15.0241 136.906 14.4332 136.906 13.7571C136.906 13.0781 137.033 12.4844 137.286 11.9759C137.538 11.4673 137.893 11.0724 138.351 10.7912C138.808 10.5099 139.344 10.3693 139.957 10.3693C140.571 10.3693 141.107 10.5099 141.564 10.7912C142.021 11.0724 142.376 11.4673 142.629 11.9759C142.882 12.4844 143.009 13.0781 143.009 13.7571C143.009 14.4332 142.882 15.0241 142.629 15.5298C142.376 16.0355 142.021 16.429 141.564 16.7102C141.107 16.9915 140.571 17.1321 139.957 17.1321ZM139.962 16.0625C140.359 16.0625 140.689 15.9574 140.95 15.7472C141.212 15.5369 141.405 15.2571 141.53 14.9077C141.658 14.5582 141.722 14.1733 141.722 13.7528C141.722 13.3352 141.658 12.9517 141.53 12.6023C141.405 12.25 141.212 11.9673 140.95 11.7543C140.689 11.5412 140.359 11.4347 139.962 11.4347C139.561 11.4347 139.229 11.5412 138.964 11.7543C138.703 11.9673 138.509 12.25 138.381 12.6023C138.256 12.9517 138.193 13.3352 138.193 13.7528C138.193 14.1733 138.256 14.5582 138.381 14.9077C138.509 15.2571 138.703 15.5369 138.964 15.7472C139.229 15.9574 139.561 16.0625 139.962 16.0625ZM144.431 17V10.4545H145.662V11.4943H145.73C145.85 11.142 146.06 10.8651 146.361 10.6634C146.665 10.4588 147.009 10.3565 147.392 10.3565C147.472 10.3565 147.566 10.3594 147.674 10.3651C147.784 10.3707 147.871 10.3778 147.934 10.3864V11.6051C147.882 11.5909 147.792 11.5753 147.661 11.5582C147.53 11.5384 147.4 11.5284 147.269 11.5284C146.968 11.5284 146.699 11.5923 146.463 11.7202C146.23 11.8452 146.046 12.0199 145.909 12.2443C145.773 12.4659 145.705 12.7187 145.705 13.0028V17H144.431ZM152.478 10.4545V11.4773H148.903V10.4545H152.478ZM149.862 8.88636H151.136V15.0781C151.136 15.3253 151.173 15.5114 151.247 15.6364C151.321 15.7585 151.416 15.8423 151.532 15.8878C151.652 15.9304 151.781 15.9517 151.92 15.9517C152.022 15.9517 152.112 15.9446 152.189 15.9304C152.265 15.9162 152.325 15.9048 152.368 15.8963L152.598 16.9489C152.524 16.9773 152.419 17.0057 152.282 17.0341C152.146 17.0653 151.975 17.0824 151.771 17.0852C151.436 17.0909 151.123 17.0312 150.833 16.9062C150.544 16.7812 150.309 16.5881 150.13 16.3267C149.951 16.0653 149.862 15.7372 149.862 15.3423V8.88636Z" fill="white"/>
</svg>
