<svg width="393" height="499" viewBox="0 0 393 499" fill="none" xmlns="http://www.w3.org/2000/svg">
<path d="M195.483 496.7C189.917 496.7 184.65 495.561 180.701 493.284L7.98462 393.418C4.09462 391.2 2 388.083 2 384.666C2 380.59 5.05215 376.453 10.4383 373.396L178.307 276.348C188.361 270.533 203.622 269.934 212.299 274.969L385.015 374.835C388.905 377.053 391 380.17 391 383.587C391 387.663 387.948 391.799 382.562 394.856L214.693 491.965C209.247 495.142 202.185 496.76 195.483 496.7ZM197.517 272.152C190.934 272.152 183.992 273.77 178.606 276.887L10.7375 373.936C5.59077 376.933 2.65831 380.829 2.65831 384.666C2.65831 387.843 4.69308 390.72 8.34369 392.818L181.06 492.684C189.618 497.599 204.579 497 214.454 491.305L382.322 394.257C387.469 391.26 390.402 387.363 390.402 383.527C390.402 380.35 388.367 377.473 384.716 375.375L212 275.508C208.11 273.291 202.963 272.152 197.517 272.152Z" fill="#2494D1" stroke="#2494D1" stroke-width="3" stroke-miterlimit="10"/>
<path d="M166.756 290.854C166.756 298.047 160.892 303.922 153.71 303.922C146.528 303.922 140.664 298.047 140.664 290.854C140.664 283.661 146.528 277.786 153.71 277.786C160.951 277.786 166.756 283.601 166.756 290.854Z" fill="url(#paint0_radial_345_5660)"/>
<path d="M157.48 290.854C157.48 292.892 155.805 294.571 153.77 294.571C151.735 294.571 150.059 292.892 150.059 290.854C150.059 288.816 151.735 287.138 153.77 287.138C155.805 287.078 157.48 288.756 157.48 290.854Z" fill="#36EBFF"/>
<path d="M25.9983 366.983C25.9983 369.021 24.3226 370.699 22.2879 370.699C20.2531 370.699 18.5774 369.021 18.5774 366.983C18.5774 364.945 20.2531 363.266 22.2879 363.266C24.3226 363.266 25.9983 364.945 25.9983 366.983Z" fill="#2494D1"/>
<path d="M311.345 437.836C311.345 439.874 309.669 441.552 307.634 441.552C305.6 441.552 303.924 439.874 303.924 437.836C303.924 435.798 305.6 434.119 307.634 434.119C309.669 434.119 311.345 435.798 311.345 437.836Z" fill="#2494D1"/>
<path d="M335.463 423.569C335.463 425.607 333.787 427.286 331.752 427.286C329.718 427.286 328.042 425.607 328.042 423.569C328.042 421.531 329.718 419.853 331.752 419.853C333.787 419.853 335.463 421.531 335.463 423.569Z" fill="#2494D1"/>
<path d="M355.93 413.259C357.965 413.259 359.641 411.58 359.641 409.542C359.641 407.504 357.965 405.826 355.93 405.826C353.895 405.826 352.22 407.504 352.22 409.542C352.22 411.58 353.895 413.259 355.93 413.259Z" fill="#2494D1"/>
<path d="M358.982 310.755V285.279H293.331L215.711 240.382C205.357 234.387 187.284 235.167 175.314 242.06L100.567 285.279H34.9154V312.194H34.9752C34.676 316.27 36.9501 320.167 41.9174 323.044L178.247 401.87C188.6 407.864 206.734 407.085 218.643 400.191L349.167 324.722C356.05 320.766 359.401 315.611 358.982 310.755Z" fill="#312A91"/>
<path opacity="0.5" d="M358.982 310.755V285.279H293.331L215.711 240.382C205.357 234.387 187.284 235.167 175.314 242.06L100.567 285.279H34.9154V312.194H34.9752C34.676 316.27 36.9501 320.167 41.9174 323.044L178.247 401.87C188.6 407.864 206.734 407.085 218.643 400.191L349.167 324.722C356.05 320.766 359.401 315.611 358.982 310.755Z" fill="url(#paint1_linear_345_5660)"/>
<path d="M215.711 240.382C210.743 237.504 203.981 236.186 196.919 236.366V405.886C204.519 405.706 212.359 403.788 218.583 400.191L349.108 324.722C355.99 320.706 359.341 315.551 358.982 310.756V285.279H293.391L215.711 240.382Z" fill="url(#paint2_linear_345_5660)"/>
<path d="M178.187 374.955L41.8575 296.129C31.5042 290.135 32.8208 279.705 44.7302 272.751L175.314 197.282C187.284 190.389 205.357 189.609 215.711 195.604L352.04 274.43C362.394 280.424 361.077 290.854 349.168 297.808L218.643 373.277C206.674 380.23 188.6 380.949 178.187 374.955Z" fill="#312A91"/>
<path opacity="0.5" d="M178.187 374.955L41.8575 296.129C31.5042 290.135 32.8208 279.705 44.7302 272.751L175.314 197.282C187.284 190.389 205.357 189.609 215.711 195.604L352.04 274.43C362.394 280.424 361.077 290.854 349.168 297.808L218.643 373.277C206.674 380.23 188.6 380.949 178.187 374.955Z" fill="url(#paint3_linear_345_5660)"/>
<path d="M181.838 357.571L72.02 294.031C63.7014 289.176 64.7188 280.784 74.354 275.209L179.504 214.366C189.139 208.791 203.741 208.192 212.06 212.988L321.878 276.528C330.196 281.383 329.179 289.775 319.544 295.35L214.454 356.193C204.819 361.767 190.216 362.367 181.838 357.571Z" fill="#2494D1"/>
<path d="M74.354 283.421L179.504 222.578C189.139 217.004 203.741 216.404 212.06 221.26L321.878 284.8C323.912 285.999 325.409 287.437 326.366 288.936C328.76 284.5 327.384 279.765 321.878 276.588L212.06 212.988C203.741 208.132 189.139 208.791 179.504 214.366L74.354 275.209C67.1126 279.405 64.7188 285.22 67.5315 289.895C68.7883 287.557 71.0625 285.339 74.354 283.421Z" fill="#36EBFF"/>
<path opacity="0.5" d="M182.795 374.955L46.4657 296.129C36.1123 290.135 33.6586 281.323 49.3383 272.751L179.863 197.282C185.728 193.865 193.089 191.947 200.33 191.647C191.772 191.228 182.436 193.146 175.314 197.282L44.79 272.751C32.8208 279.645 31.5042 290.135 41.9174 296.129L178.247 374.955C183.513 378.012 190.755 379.271 198.236 378.911C192.43 378.671 186.984 377.353 182.795 374.955Z" fill="url(#paint4_linear_345_5660)"/>
<path opacity="0.5" d="M349.168 309.197L218.643 384.666C206.674 391.559 188.6 392.339 178.247 386.344L41.8575 307.518C36.8903 304.641 34.6162 300.745 34.9154 296.669V302.243H34.9752C34.676 306.32 36.9502 310.216 41.9174 313.093L178.247 391.919C188.6 397.913 206.734 397.134 218.643 390.241L349.168 314.772C356.05 310.755 359.401 305.6 359.042 300.805V295.23C359.401 300.025 356.05 305.181 349.168 309.197Z" fill="url(#paint5_linear_345_5660)"/>
<path d="M325.468 301.764C326.965 302.603 326.965 304.042 325.468 304.881C323.972 305.72 321.578 305.72 320.082 304.881C318.586 304.042 318.586 302.603 320.082 301.764C321.578 300.925 324.032 300.925 325.468 301.764Z" fill="white"/>
<path d="M333.907 296.908C335.403 297.748 335.403 299.186 333.907 300.026C332.411 300.865 330.017 300.865 328.521 300.026C327.024 299.186 327.024 297.748 328.521 296.908C330.017 296.069 332.411 296.069 333.907 296.908Z" fill="white"/>
<path d="M342.285 292.053C343.781 292.892 343.781 294.271 342.285 295.17C340.789 296.009 338.395 296.009 336.899 295.17C335.403 294.331 335.403 292.892 336.899 292.053C338.395 291.214 340.789 291.214 342.285 292.053Z" fill="white"/>
<path opacity="0.5" d="M185.129 342.166L98.9508 292.353C92.4275 288.576 93.2055 281.923 100.806 277.607L183.274 229.892C190.815 225.516 202.245 225.036 208.828 228.813L295.007 278.626C301.53 282.402 300.752 289.056 293.152 293.372L210.684 341.087C203.083 345.463 191.652 345.942 185.129 342.166Z" fill="#102349"/>
<path opacity="0.5" d="M358.982 285.279C359.042 284.8 359.042 284.32 358.982 283.841V212.628L246.053 213.107L215.711 195.544C205.357 189.55 187.284 190.329 175.314 197.222L147.127 213.527L34.9154 214.067V285.279H34.9752C34.676 289.356 36.9501 293.252 41.9174 296.129L178.247 374.955C188.6 380.949 206.734 380.17 218.643 373.277L349.168 297.808C355.392 294.211 358.683 289.655 358.982 285.279Z" fill="#2494D1"/>
<path d="M358.982 212.628V187.152H293.331L215.711 142.254C205.357 136.26 187.284 137.039 175.314 143.932L100.567 187.152H34.9154V214.066H34.9752C34.676 218.142 36.9501 222.039 41.9174 224.916L178.247 303.742C188.6 309.736 206.734 308.957 218.643 302.063L349.167 226.595C356.05 222.638 359.401 217.423 358.982 212.628Z" fill="#312A91"/>
<path opacity="0.5" d="M358.982 212.628V187.152H293.331L215.711 142.254C205.357 136.26 187.284 137.039 175.314 143.932L100.567 187.152H34.9154V214.066H34.9752C34.676 218.142 36.9501 222.039 41.9174 224.916L178.247 303.742C188.6 309.736 206.734 308.957 218.643 302.063L349.167 226.595C356.05 222.638 359.401 217.423 358.982 212.628Z" fill="url(#paint6_linear_345_5660)"/>
<path d="M215.711 142.254C210.743 139.377 203.981 138.058 196.919 138.238V307.758C204.519 307.578 212.359 305.66 218.583 302.064L349.108 226.595C355.99 222.578 359.341 217.423 358.982 212.628V187.152H293.391L215.711 142.254Z" fill="url(#paint7_linear_345_5660)"/>
<path d="M178.187 276.827L41.8575 198.001C31.5042 192.007 32.8208 181.577 44.7302 174.623L175.314 99.1545C187.284 92.261 205.357 91.4817 215.711 97.4761L352.1 176.302C362.453 182.296 361.137 192.726 349.227 199.68L218.643 275.149C206.674 282.042 188.6 282.822 178.187 276.827Z" fill="#312A91"/>
<path opacity="0.5" d="M178.187 276.827L41.8575 198.001C31.5042 192.007 32.8208 181.577 44.7302 174.623L175.314 99.1545C187.284 92.261 205.357 91.4817 215.711 97.4761L352.1 176.302C362.453 182.296 361.137 192.726 349.227 199.68L218.643 275.149C206.674 282.042 188.6 282.822 178.187 276.827Z" fill="url(#paint8_linear_345_5660)"/>
<path opacity="0.5" d="M182.795 276.827L46.4657 198.002C36.1123 192.007 33.6586 183.196 49.3383 174.624L179.923 99.1546C185.788 95.7379 193.149 93.8197 200.39 93.52C191.832 93.1003 182.496 95.0185 175.374 99.1546L44.79 174.624C32.8208 181.517 31.5042 192.007 41.9174 198.002L178.247 276.827C183.513 279.885 190.755 281.143 198.236 280.784C192.43 280.544 186.984 279.225 182.795 276.827Z" fill="url(#paint9_linear_345_5660)"/>
<path opacity="0.5" d="M349.168 211.069L218.643 286.538C206.674 293.432 188.6 294.211 178.247 288.217L41.8575 209.391C36.8903 206.513 34.6162 202.617 34.9154 198.541V204.116H34.9752C34.676 208.192 36.9502 212.088 41.9174 214.965L178.187 293.791C188.54 299.786 206.674 299.006 218.583 292.113L349.108 216.644C355.99 212.628 359.341 207.473 358.982 202.677V197.102C359.401 201.898 356.05 207.053 349.168 211.069Z" fill="url(#paint10_linear_345_5660)"/>
<path opacity="0.2" d="M186.147 192.846C188.959 194.465 188.959 197.162 186.147 198.781C183.334 200.399 178.726 200.399 175.913 198.781C173.1 197.162 173.1 194.465 175.913 192.846C178.726 191.228 183.274 191.228 186.147 192.846Z" fill="#2494D1"/>
<path opacity="0.6" d="M202.126 183.615C204.938 185.233 204.938 187.931 202.126 189.549C199.313 191.168 194.705 191.168 191.892 189.549C189.079 187.931 189.079 185.233 191.892 183.615C194.705 181.937 199.253 181.937 202.126 183.615Z" fill="#2494D1"/>
<path d="M218.045 174.384C220.857 176.002 220.857 178.7 218.045 180.318C215.232 181.937 210.624 181.937 207.811 180.318C204.998 178.7 204.998 176.002 207.811 174.384C210.684 172.765 215.232 172.765 218.045 174.384Z" fill="#2494D1"/>
<path opacity="0.5" d="M196.081 257.466C191.054 257.466 186.206 256.447 182.616 254.349L81.8348 196.023C78.1841 193.925 76.1494 190.928 76.1494 187.631C76.1494 183.735 79.022 179.839 83.9892 176.961L180.461 121.154C189.558 115.879 203.442 115.339 211.342 119.895L312.123 178.22C315.773 180.318 317.808 183.315 317.808 186.612C317.808 190.509 314.936 194.405 309.968 197.282L213.436 253.09C208.529 255.967 202.126 257.466 196.081 257.466ZM183.633 252.55C190.994 256.806 203.921 256.267 212.479 251.291L309.011 195.484C313.32 192.966 315.833 189.729 315.833 186.612C315.833 184.095 314.158 181.757 311.165 180.018L210.324 121.693C202.963 117.437 190.037 117.977 181.479 122.952L84.9468 178.76C80.6378 181.277 78.1243 184.514 78.1243 187.631C78.1243 190.149 79.8 192.487 82.7923 194.225L183.633 252.55Z" fill="#0B0244"/>
<path d="M157.48 91.302C157.48 93.34 155.805 95.0185 153.77 95.0185C151.735 95.0185 150.059 93.34 150.059 91.302C150.059 89.2639 151.735 87.5854 153.77 87.5854C155.805 87.5854 157.48 89.2639 157.48 91.302Z" fill="#2494D1"/>
<g clip-path="url(#clip0_345_5660)">
<path d="M172.782 158.989L165.152 177.123L163.861 194.965H181.555L185.002 193.007L194.981 193.355L195.135 198.123H213.678L215.013 193.355H229.014C229.014 193.355 225.095 158.539 218.413 153.885C192.982 171.317 172.782 158.989 172.782 158.989Z" fill="white"/>
<path d="M218.753 179.328L219.783 192.597H214.871L218.753 179.328Z" fill="#2494D1"/>
<path d="M170.151 163.998C170.151 163.998 185.538 173.266 203.992 163.998C218.729 156.593 172.782 158.992 172.782 158.992L170.151 163.998Z" fill="#2494D1"/>
<path d="M229.138 200.719H214.103L215.013 193.358H229.014C229.014 193.358 229.164 198.323 229.138 200.719Z" fill="#EB2126"/>
<path d="M229.138 203.096H214.099C213.424 203.096 212.779 202.806 212.333 202.294C211.886 201.781 211.677 201.103 211.761 200.427L212.672 193.066C212.82 191.874 213.821 190.982 215.011 190.982H229.011C230.284 190.982 231.329 192.003 231.366 193.286C231.366 193.286 231.517 198.316 231.491 200.745C231.477 202.048 230.426 203.096 229.136 203.096H229.138ZM216.771 198.343H226.771C226.756 197.459 226.74 196.54 226.719 195.735H217.094L216.771 198.343Z" fill="#144A8F"/>
<path d="M224.009 155.709C224.009 155.709 234.427 141.819 250.763 145.684C267.099 149.557 271.37 139.778 271.37 139.778C271.37 139.778 263.253 169.76 242.483 161.492C242.483 161.492 245.671 164.194 248.619 166.798C242.379 171.317 236.722 173.998 225.526 167.205" fill="#2494D1"/>
<path d="M223.603 156.645C223.603 156.645 233.136 142.465 246.536 145.64C259.939 148.817 267.978 145.444 267.978 145.444C267.978 145.444 258.672 164.679 243.809 155.791C241.222 153.921 237.755 154.336 236.061 156.719C234.369 159.103 235.091 162.551 237.682 164.421C233.766 166.02 228.55 163.98 225.753 162.101" fill="white"/>
<path d="M177.096 161.006C177.096 161.006 178.729 156.76 172.782 158.989C166.832 161.217 162.997 195.059 162.997 195.059H165.666C167.128 195.059 170.064 194.781 169.962 193.309C169.962 193.309 170.151 183.305 170.836 177.733C172.217 172.608 177.096 161.004 177.096 161.004" fill="#2494D1"/>
<path d="M248.648 81.0383C248.648 113.358 223.116 163.997 191.619 163.997C160.122 163.997 134.593 113.358 134.593 81.0383C134.593 48.7185 160.125 35.7676 191.619 35.7676C223.113 35.7676 248.648 48.7185 248.648 81.0383Z" fill="white"/>
<path d="M191.619 166.374C158.84 166.374 132.237 114.737 132.237 81.0383C132.237 50.7584 153.882 33.3882 191.619 33.3882C229.356 33.3882 251.004 50.7556 251.004 81.0383C251.004 114.737 224.398 166.374 191.619 166.374ZM191.619 38.1442C175.181 38.1442 136.948 42.3236 136.948 81.0383C136.948 112.124 161.967 161.62 191.619 161.62C221.271 161.62 246.293 112.124 246.293 81.0383C246.293 42.3236 208.059 38.1442 191.619 38.1442Z" fill="#144A8F"/>
<path d="M142.768 75.6475C142.768 75.6475 137.16 76.549 134.407 75.3988C130.699 73.8447 136.716 69.1765 136.716 69.1765L142.768 75.6475Z" fill="#2494D1"/>
<path d="M205.335 69.6155C205.335 76.8212 200.638 79.2271 191.781 82.6219C181.761 82.6219 161.514 76.8212 161.514 69.6155C161.514 62.4099 183.615 56.5652 193.638 56.5652C203.661 56.5652 205.335 62.407 205.335 69.6155Z" fill="#2494D1"/>
<path d="M200.232 134.487C200.232 134.487 197.117 121.405 206.879 116.988C205.028 122.025 201.222 132.951 203.606 136.811C205.988 140.671 200.232 134.487 200.232 134.487Z" fill="#2494D1"/>
<path d="M191.619 166.374C158.84 166.374 132.237 114.737 132.237 81.0383C132.237 50.7584 153.882 33.3882 191.619 33.3882C229.356 33.3882 251.004 50.7556 251.004 81.0383C251.004 114.737 224.398 166.374 191.619 166.374ZM191.619 38.1442C175.181 38.1442 136.948 42.3236 136.948 81.0383C136.948 112.124 161.967 161.62 191.619 161.62C221.271 161.62 246.293 112.124 246.293 81.0383C246.293 42.3236 208.059 38.1442 191.619 38.1442Z" fill="#144A8F"/>
<path d="M173.371 92.3445C173.371 92.3445 176.557 106.062 197.859 108.094C199.287 108.231 200.131 106.46 199.362 105.24C198.361 103.642 195.164 101.046 195.115 98.9209C199.843 99.4744 207.514 101.784 211.546 99.5825C212.782 98.9093 212.707 97.098 211.427 96.5151C208.811 95.3269 208.941 90.8783 207.734 88.6069" fill="#2494D1"/>
<path d="M174.004 87.9954C174.004 87.9954 175.837 103.089 202.365 101.14C200.789 99.0791 199.115 96.8726 199.046 93.8693C204.311 94.4838 210.96 94.6274 214.311 90.6675C211.184 90.1116 207.682 87.6827 206.226 84.9458" fill="white"/>
<path d="M197.763 103.692C173.827 103.692 171.747 88.9497 171.665 88.2857C171.509 86.9802 172.425 85.7951 173.716 85.6368C174.993 85.467 176.171 86.3919 176.339 87.6859C176.417 88.2178 178.242 98.9386 197.769 98.9386C197.859 98.9386 197.949 98.9386 198.042 98.9386C197.291 97.5018 196.734 95.8573 196.69 93.928C196.673 93.2408 196.954 92.5792 197.459 92.1167C197.964 91.6512 198.631 91.4373 199.318 91.5106C203.566 92.0086 206.838 91.8974 209.197 91.1686C207.052 89.8631 205.196 88.0395 204.149 86.073C203.534 84.9165 203.963 83.4743 205.112 82.8535C206.255 82.2328 207.685 82.6659 208.303 83.8248C209.391 85.8738 212.269 87.8959 214.717 88.3298C215.55 88.4788 216.241 89.064 216.525 89.8662C216.812 90.6706 216.65 91.5631 216.101 92.2132C212.73 96.1994 207.053 96.7908 202.109 96.5244C202.646 97.6161 203.426 98.6344 204.23 99.6883C204.758 100.382 204.868 101.313 204.512 102.112C204.157 102.91 203.397 103.449 202.533 103.511C200.853 103.637 199.26 103.692 197.761 103.692H197.763Z" fill="#144A8F"/>
<path d="M209.237 66.9727C209.237 71.6701 201.352 80.3242 191.619 80.3242C181.886 80.3242 174.001 71.6701 174.001 66.9727C174.001 62.2753 181.056 2.38232 190.786 2.38232C200.517 2.38232 209.237 62.2753 209.237 66.9727Z" fill="white"/>
<path d="M191.622 82.7014C180.789 82.7014 171.648 73.0398 171.648 66.9698C171.648 66.2995 177.601 0 190.789 0C203.977 0 211.598 66.2995 211.598 66.9698C211.598 73.0369 202.457 82.7014 191.625 82.7014H191.622ZM190.786 4.75889C184.743 4.75889 176.359 57.6101 176.359 66.9727C176.359 70.1571 182.962 77.9478 191.619 77.9478C200.276 77.9478 206.878 70.1571 206.878 66.9727C206.878 64.8509 204.709 48.7859 201.355 33.4264C195.268 5.54033 190.827 4.75889 190.783 4.75889H190.786Z" fill="#144A8F"/>
<path d="M202.208 151.211C202.454 152.475 200.406 151.146 198.28 151.568C196.153 151.992 194.758 154.009 194.511 152.744C194.265 151.48 195.538 148.858 197.665 148.433C199.791 148.008 201.961 149.943 202.208 151.211Z" fill="#144A8F"/>
<path d="M181.224 151.211C180.978 152.475 183.026 151.146 185.153 151.568C187.279 151.992 188.674 154.009 188.921 152.744C189.168 151.48 187.894 148.858 185.768 148.433C183.641 148.008 181.471 149.943 181.224 151.211Z" fill="#144A8F"/>
<path d="M158.808 47.5421C158.808 47.5421 144.88 40.5881 132.002 41.4222C127.43 54.7741 132.672 68.1318 142.6 73.3355" fill="white"/>
<path d="M142.597 75.7121C142.228 75.7121 141.857 75.6243 141.512 75.4428C130.079 69.4488 125.034 54.4902 129.774 40.6438C130.084 39.7365 130.902 39.1072 131.851 39.0487C145.219 38.1531 159.26 45.1159 159.852 45.4115C161.018 45.9938 161.494 47.4192 160.917 48.5958C160.34 49.7723 158.921 50.2523 157.761 49.6757C157.633 49.6143 145.376 43.6027 133.751 43.7344C130.612 54.9146 134.72 66.5279 143.685 71.2283C144.839 71.8341 145.289 73.2682 144.688 74.4331C144.268 75.2467 143.447 75.715 142.597 75.715V75.7121Z" fill="#144A8F"/>
<path d="M136.531 50.3342C136.214 52.3215 136.618 60.6452 143.957 66.4723C144.242 66.6948 144.639 66.4138 144.526 66.0713C143.925 64.21 143.696 63.0627 143.624 62.0763C143.595 61.7193 143.989 61.491 144.285 61.6929C144.958 62.1524 145.782 62.4715 147.383 62.1349C147.897 62.0295 148.155 61.4383 147.894 60.9788C147.616 60.493 147.267 59.9252 147.157 59.1818C147.088 58.7223 147.462 58.3155 147.92 58.3301C150.717 58.4297 152.901 58.7809 154.645 57.5165" fill="#2494D1"/>
<path d="M153.664 55.743C153.664 55.743 146.742 52.2864 138.483 50.8699L153.664 55.743Z" fill="white"/>
<path d="M153.661 58.1223C153.31 58.1223 152.956 58.0432 152.62 57.8764C152.553 57.8442 145.884 54.5546 138.088 53.217C136.806 52.9975 135.942 51.7683 136.159 50.4746C136.377 49.1781 137.613 48.3265 138.877 48.5284C147.381 49.9859 154.413 53.4658 154.709 53.6151C155.875 54.1975 156.351 55.6199 155.776 56.7993C155.367 57.6393 154.532 58.1252 153.661 58.1252V58.1223Z" fill="#144A8F"/>
<path d="M224.433 47.5421C224.433 47.5421 238.361 40.5881 251.239 41.4222C255.811 54.7741 250.569 68.1318 240.642 73.3355" fill="white"/>
<path d="M240.644 75.7121C239.794 75.7121 238.97 75.2438 238.553 74.4302C237.952 73.2653 238.402 71.8312 239.556 71.2254C248.518 66.525 252.628 54.9117 249.49 43.7315C237.804 43.5413 225.605 49.6084 225.478 49.6728C224.311 50.2523 222.898 49.7694 222.321 48.5928C221.743 47.4163 222.223 45.991 223.388 45.4086C223.98 45.1129 238.036 38.1795 251.39 39.0458C252.338 39.1073 253.156 39.7366 253.467 40.6409C258.208 54.4844 253.159 69.4459 241.726 75.4399C241.381 75.6214 241.01 75.7092 240.642 75.7092L240.644 75.7121Z" fill="#144A8F"/>
<path d="M246.71 50.3342C247.027 52.3215 246.623 60.6452 239.283 66.4723C239 66.6948 238.602 66.4138 238.715 66.0713C239.315 64.21 239.545 63.0627 239.617 62.0763C239.646 61.7193 239.252 61.491 238.956 61.6929C238.283 62.1524 237.459 62.4715 235.857 62.1349C235.344 62.0295 235.086 61.4383 235.347 60.9788C235.626 60.493 235.974 59.9252 236.084 59.1818C236.153 58.7223 235.779 58.3155 235.321 58.3301C232.525 58.4297 230.34 58.7809 228.596 57.5165" fill="#2494D1"/>
<path d="M229.579 55.743C229.579 55.743 236.502 52.2864 244.761 50.8699L229.579 55.743Z" fill="white"/>
<path d="M229.582 58.1224C228.715 58.1224 227.879 57.6365 227.467 56.7966C226.89 55.6201 227.369 54.1947 228.535 53.6123C228.831 53.463 235.863 49.986 244.367 48.5256C245.629 48.312 246.867 49.1754 247.085 50.4719C247.303 51.7655 246.438 52.9947 245.155 53.2142C237.357 54.5518 230.688 57.8385 230.621 57.8736C230.285 58.0405 229.931 58.1194 229.579 58.1194L229.582 58.1224Z" fill="#144A8F"/>
<path d="M238.274 130.135C232.275 143.229 220.462 150.605 211.889 146.609C203.313 142.612 201.227 128.753 207.227 115.659C213.229 102.565 225.043 95.1895 233.615 99.1849C242.187 103.186 244.273 117.04 238.274 130.135Z" fill="white"/>
<path d="M216.916 150.084C214.813 150.084 212.788 149.647 210.9 148.766C206.011 146.487 202.765 141.564 201.761 134.903C200.812 128.604 201.993 121.413 205.086 114.662C211.622 100.396 224.874 92.488 234.601 97.0277C244.34 101.57 246.948 116.871 240.412 131.133C237.317 137.885 232.658 143.449 227.285 146.803C223.797 148.977 220.258 150.084 216.913 150.084H216.916ZM228.657 100.493C221.889 100.493 213.807 106.967 209.365 116.657C206.655 122.572 205.608 128.8 206.42 134.188C207.177 139.22 209.47 142.863 212.875 144.45C216.281 146.042 220.517 145.439 224.804 142.761C229.4 139.89 233.423 135.052 236.133 129.137C241.486 117.456 239.878 104.728 232.623 101.344C231.384 100.768 230.046 100.493 228.654 100.493H228.657Z" fill="#144A8F"/>
<path d="M226.217 122.871C226.217 128.534 221.665 133.126 216.052 133.126C210.438 133.126 205.887 128.534 205.887 122.871C205.887 117.207 210.438 112.615 216.052 112.615C221.665 112.615 226.217 117.207 226.217 122.871Z" fill="#144A8F"/>
<path d="M144.967 130.135C150.966 143.229 162.779 150.605 171.352 146.609C179.928 142.612 182.014 128.753 176.014 115.659C170.012 102.565 158.199 95.1895 149.626 99.1849C141.053 103.186 138.967 117.04 144.967 130.135Z" fill="white"/>
<path d="M166.325 150.084C162.98 150.084 159.44 148.98 155.953 146.803C150.583 143.449 145.918 137.885 142.826 131.133C136.29 116.871 138.895 101.57 148.637 97.0277C158.381 92.4911 171.619 100.399 178.155 114.662C181.248 121.413 182.428 128.604 181.48 134.903C180.476 141.564 177.23 146.49 172.341 148.766C170.453 149.647 168.428 150.084 166.325 150.084ZM154.584 100.493C153.191 100.493 151.854 100.768 150.615 101.344C143.363 104.728 141.755 117.456 147.108 129.137C149.817 135.052 153.841 139.89 158.437 142.761C162.727 145.433 166.96 146.039 170.366 144.45C173.772 142.863 176.066 139.219 176.824 134.188C177.636 128.797 176.589 122.572 173.879 116.657C169.44 106.97 161.355 100.493 154.587 100.493H154.584Z" fill="#144A8F"/>
<path d="M144.967 130.135C150.966 143.229 162.779 150.605 171.352 146.609C179.928 142.612 182.014 128.753 176.014 115.659C170.012 102.565 158.199 95.1895 149.626 99.1849C141.053 103.186 138.967 117.04 144.967 130.135Z" fill="white"/>
<path d="M166.325 150.084C162.98 150.084 159.44 148.98 155.953 146.803C150.583 143.449 145.918 137.885 142.826 131.133C136.29 116.871 138.895 101.57 148.637 97.0277C158.381 92.4911 171.619 100.399 178.155 114.662C181.248 121.413 182.428 128.604 181.48 134.903C180.476 141.564 177.23 146.49 172.341 148.766C170.453 149.647 168.428 150.084 166.325 150.084ZM154.584 100.493C153.191 100.493 151.854 100.768 150.615 101.344C143.363 104.728 141.755 117.456 147.108 129.137C149.817 135.052 153.841 139.89 158.437 142.761C162.727 145.433 166.96 146.039 170.366 144.45C173.772 142.863 176.066 139.219 176.824 134.188C177.636 128.797 176.589 122.572 173.879 116.657C169.44 106.97 161.355 100.493 154.587 100.493H154.584Z" fill="#144A8F"/>
<path d="M157.027 122.871C157.027 128.534 161.578 133.126 167.192 133.126C172.806 133.126 177.357 128.534 177.357 122.871C177.357 117.207 172.806 112.615 167.192 112.615C161.578 112.615 157.027 117.207 157.027 122.871Z" fill="#144A8F"/>
<path d="M177.404 122.871C177.404 128.534 172.852 133.126 167.238 133.126C161.625 133.126 157.073 128.534 157.073 122.871C157.073 117.207 161.625 112.615 167.238 112.615C172.852 112.615 177.404 117.207 177.404 122.871Z" fill="#144A8F"/>
<path d="M177.343 117.468C177.343 120.769 174.688 123.441 171.422 123.441C168.155 123.441 165.498 120.766 165.498 117.468C165.498 114.17 168.152 111.495 171.422 111.495C174.691 111.495 177.343 114.17 177.343 117.468Z" fill="white"/>
<path d="M179.307 145.705C176.264 149.533 176.591 155.085 180.11 158.471C182.588 160.857 188.013 162.264 190.792 162.511C190.792 162.511 170.531 161.161 163.705 151.082C166.632 148.008 174.308 143.829 176.62 140.882C178.935 137.929 183.766 132.21 186.995 135.076" fill="#2494D1"/>
<path d="M183.775 134.317C183.775 134.317 187.645 112.074 170.836 105.708C174.453 113.944 181.956 131.853 178.361 138.567C174.77 145.284 183.772 134.317 183.772 134.317" fill="#2494D1"/>
<path d="M191.613 166.374C180.311 166.374 168.944 160.275 158.738 148.732C158.553 148.521 158.41 148.287 158.312 148.041C152.243 145.105 146.487 139.114 142.829 131.133C136.295 116.865 138.901 101.564 148.64 97.0245C153.528 94.7447 159.35 95.4387 165.028 98.9856C170.4 102.339 175.063 107.904 178.155 114.655C181.19 121.282 182.254 128.13 181.546 134.025C187.328 128.578 196.429 128.695 202.071 134.388L210.464 142.805C211.387 143.729 211.393 145.237 210.473 146.168C209.556 147.099 208.062 147.101 207.14 146.176L198.744 137.753C194.813 133.788 188.428 133.793 184.506 137.748L176.295 145.998C176.223 146.071 176.142 146.141 176.063 146.203C174.973 147.251 173.731 148.114 172.344 148.764C170.525 149.609 168.587 150.025 166.591 150.046C172.956 156.028 181.584 161.618 191.613 161.618C192.913 161.618 193.969 162.68 193.969 163.994C193.969 165.309 192.913 166.371 191.613 166.371V166.374ZM147.108 129.14C152.556 141.023 162.977 147.895 170.369 144.453C177.621 141.067 179.228 128.338 173.876 116.657C171.166 110.742 167.143 105.905 162.547 103.033C158.257 100.355 154.018 99.7584 150.615 101.344C143.362 104.725 141.755 117.456 147.105 129.14H147.108Z" fill="#144A8F"/>
<path d="M237.52 173.096C233.978 173.096 230.264 172.133 226.278 170.213C225.103 169.649 224.604 168.229 225.167 167.044C225.727 165.861 227.139 165.353 228.309 165.926C235.785 169.529 240.821 168.589 244.679 166.503C242.643 164.735 240.969 163.318 240.967 163.315C240.081 162.566 239.867 161.281 240.458 160.28C241.048 159.279 242.266 158.858 243.348 159.285C247.769 161.047 251.709 161 255.393 159.139C260.047 156.794 263.426 151.96 265.666 147.634C262.109 149.033 257.114 149.633 250.226 148.005C235.639 144.552 226.281 156.637 225.887 157.155C225.1 158.196 223.621 158.402 222.585 157.605C221.549 156.812 221.346 155.325 222.129 154.28C222.593 153.663 233.667 139.204 251.303 143.375C265.352 146.694 269.072 139.12 269.226 138.798C269.748 137.683 271.033 137.141 272.179 137.566C273.325 137.993 273.966 139.219 273.644 140.41C273.455 141.113 268.863 157.652 257.514 163.383C255.251 164.527 252.89 165.165 250.444 165.294C250.81 165.745 251.001 166.321 250.972 166.912C250.937 167.635 250.577 168.306 249.992 168.729C245.965 171.645 241.872 173.096 237.517 173.096H237.52Z" fill="#144A8F"/>
<path d="M183.159 196.686H163.859V204.746H183.159V196.686Z" fill="#EB2126"/>
<path d="M213.067 200.304H193.769V208.364H213.067V200.304Z" fill="#EB2126"/>
<path d="M203.096 209.409C201.796 209.409 200.74 208.346 200.74 207.032V203.742C200.74 202.428 201.796 201.366 203.096 201.366C204.395 201.366 205.451 202.428 205.451 203.742V207.032C205.451 208.346 204.395 209.409 203.096 209.409Z" fill="#144A8F"/>
<path d="M164.192 195.814C164.192 195.814 166.861 195.8 168.912 195.697C169.562 195.664 170.026 196.545 169.78 197.354C168.828 200.482 169.649 203.014 168.927 203.988C168.068 205.142 163.258 203.362 163.258 203.362L164.195 195.814H164.192Z" fill="#A62126"/>
<path d="M193.484 199.763C193.484 199.763 196.133 199.411 198.152 199.048C198.793 198.934 199.365 199.748 199.22 200.579C198.666 203.804 199.797 206.213 199.197 207.272C198.486 208.525 193.496 207.369 193.496 207.369L193.484 199.759V199.763Z" fill="#A62126"/>
<path d="M182.814 63.9639C182.814 63.9639 192.69 72.3461 199.443 70.5052C203.528 69.3901 199.214 78.252 183.383 76.025C166.905 73.7071 175.446 56.7437 175.446 56.7437L182.811 63.9639H182.814Z" fill="#EB2126"/>
<path d="M184.976 46.5998C186.107 49.2982 194.72 53.3869 200.711 53.0415C201.526 52.9946 202.28 53.4922 202.518 54.2766C203.954 58.9593 204.001 64.3475 202.797 66.5133C201.648 68.5854 175.335 63.7036 175.225 52.5264C175.115 41.3491 179.548 41.1267 179.548 41.1267L184.976 46.6026V46.5998Z" fill="#EB2126"/>
<path d="M185.15 27.9093C186.037 30.4848 192.771 34.5823 197.305 34.995C198.399 35.0916 199.321 35.8408 199.672 36.8886C200.847 40.389 201.201 44.1704 201.761 47.5537C202.112 49.6726 177.233 45.0132 177.14 33.833C177.05 22.6558 180.691 22.4333 180.691 22.4333L185.153 27.9093H185.15Z" fill="#EB2126"/>
<path d="M199.936 68.7521C192.411 68.7521 185.663 65.5678 183.191 64.2507C178.602 61.8011 173.528 57.8879 173.043 54.2559C172.872 52.9535 173.777 51.7565 175.065 51.5838C176.356 51.4053 177.543 52.3243 177.714 53.6237C177.874 54.5574 180.554 57.5924 186.02 60.3728C189.005 61.8918 199.408 66.5101 207.949 62.1962C209.116 61.6079 210.528 62.082 211.111 63.2585C211.695 64.4322 211.225 65.8605 210.058 66.4487C206.734 68.1287 203.255 68.7521 199.931 68.7521H199.936ZM198.558 50.8931C194.015 50.8931 189.072 49.5936 184.294 47.0444C180.319 44.9225 175.918 41.51 175.492 38.2905C175.318 36.9881 176.226 35.7911 177.514 35.6184C178.816 35.4515 179.977 36.3471 180.16 37.6378C180.377 38.4369 182.95 41.2729 188.117 43.6465C191.146 45.0396 198.88 47.9254 205.315 44.665C206.481 44.0796 207.894 44.5508 208.477 45.7273C209.061 46.901 208.59 48.3292 207.424 48.9175C204.801 50.2404 201.778 50.896 198.555 50.896L198.558 50.8931Z" fill="#144A8F"/>
<path d="M197.32 24.5409C197.563 25.5594 196.96 26.5926 195.956 26.8677C194.836 27.175 193.218 27.8628 190.264 27.9359C183.569 28.0969 180.859 19.8932 180.859 19.8932C180.859 19.8932 183.473 4.14733 189.35 4.30538C191.346 4.36099 195.808 18.1986 197.32 24.5409Z" fill="#EB2126"/>
<path d="M191.622 82.7014C180.789 82.7014 171.648 73.0399 171.648 66.9698C171.648 66.56 173.879 41.592 178.625 22.2638C178.648 22.0414 178.703 21.8247 178.785 21.6228C181.779 9.65244 185.759 0.00292969 190.786 0.00292969C204.137 0.00292969 211.596 66.3025 211.596 66.9727C211.596 73.0399 202.454 82.7037 191.622 82.7037V82.7014ZM182.254 27.7631C178.933 43.2602 176.362 61.7866 176.362 66.9727C176.362 70.1571 182.965 77.9478 191.622 77.9478C200.279 77.9478 206.881 70.1571 206.881 66.9727C206.881 64.8509 204.711 48.7859 201.358 33.4264C201.285 33.0898 201.213 32.7591 201.14 32.4313C196.539 33.6429 190.963 32.7854 185.66 29.9553C184.978 29.5923 183.609 28.8109 182.254 27.766V27.7631ZM183.464 22.3984C184.146 23.3291 186.481 25.3661 190.226 26.8441C192.425 27.7134 196.374 28.8577 200.067 27.807C194.651 5.42912 190.827 4.75889 190.786 4.75889C188.489 4.75889 185.852 12.4065 183.464 22.3984Z" fill="#144A8F"/>
<path d="M226.156 117.468C226.156 120.769 223.502 123.441 220.235 123.441C216.968 123.441 214.311 120.766 214.311 117.468C214.311 114.169 216.965 111.495 220.235 111.495C223.505 111.495 226.156 114.169 226.156 117.468Z" fill="white"/>
<path d="M191.717 172.236L191.923 171.727C193.992 171.326 197.029 172.713 197.859 174.668L200.508 182.459C200.865 183.51 200.914 184.642 200.647 185.726L197.583 198.129L196.432 183.992L191.717 172.242V172.236Z" fill="#2494D1"/>
<path d="M173.058 206.757C171.758 206.757 170.702 205.694 170.702 204.38V201.456C170.702 200.142 171.758 199.08 173.058 199.08C174.358 199.08 175.414 200.142 175.414 201.456V204.38C175.414 205.694 174.358 206.757 173.058 206.757ZM181.558 197.344H163.861C162.562 197.344 161.506 196.282 161.506 194.968C161.506 193.654 162.562 192.592 163.861 192.592H181.558C182.858 192.592 183.914 193.654 183.914 194.968C183.914 196.282 182.858 197.344 181.558 197.344Z" fill="#144A8F"/>
<path d="M211.935 200.5H195.132C193.833 200.5 192.777 199.438 192.777 198.123C192.777 196.809 193.833 195.747 195.132 195.747H211.935C213.235 195.747 214.291 196.809 214.291 198.123C214.291 199.438 213.235 200.5 211.935 200.5Z" fill="#144A8F"/>
<path d="M193.194 175.277C195.359 177.46 199.127 183.498 197.572 185.064C196.02 186.63 191.1 185.216 188.93 183.03C186.766 180.844 186.069 177.899 187.624 176.334C190.816 177.662 191.027 173.091 193.192 175.274" fill="#2494D1"/>
<path d="M181.341 207.126H163.334C162.681 207.126 162.06 206.854 161.613 206.374C161.169 205.893 160.94 205.246 160.984 204.591L162.803 176.966C162.817 176.734 162.866 176.503 162.948 176.287L170.105 157.041C170.563 155.814 171.929 155.191 173.139 155.65C174.358 156.113 174.976 157.482 174.517 158.711L167.485 177.627L165.857 202.37H179.04L179.379 187.014C179.385 186.697 179.455 186.387 179.582 186.1L183.688 176.796C184.216 175.593 185.605 175.057 186.8 175.59C187.99 176.123 188.524 177.53 187.996 178.731L184.082 187.599L183.702 204.802C183.673 206.093 182.629 207.126 181.346 207.126H181.341Z" fill="#144A8F"/>
<path d="M194.976 193.358H182.803V200.719H194.976V193.358Z" fill="#EB2126"/>
<path d="M194.978 203.096H182.806C181.506 203.096 180.45 202.033 180.45 200.719V193.358C180.45 192.044 181.506 190.982 182.806 190.982H194.978C196.278 190.982 197.334 192.044 197.334 193.358V200.719C197.334 202.033 196.278 203.096 194.978 203.096ZM185.161 198.343H192.623V195.735H185.161V198.343Z" fill="#144A8F"/>
<path d="M212.324 209.406H194.314C193.653 209.406 193.017 209.125 192.573 208.63C192.13 208.135 191.906 207.475 191.967 206.81L194.027 184.379L189.931 174.917C189.408 173.714 189.954 172.315 191.146 171.788C192.338 171.256 193.728 171.812 194.25 173.014L198.587 183.036C198.747 183.402 198.811 183.805 198.773 184.204L196.896 204.65H210.296L214.184 179.047C214.381 177.75 215.576 176.884 216.87 177.056C218.155 177.258 219.037 178.47 218.843 179.77L216.02 198.363C216.13 198.349 216.244 198.34 216.359 198.34H219.365C219.658 197.365 220.557 196.657 221.619 196.657C222.681 196.657 223.58 197.365 223.873 198.34H226.763C226.328 163.497 216.348 154.105 216.244 154.011C215.283 153.145 215.176 151.649 216.023 150.669C216.867 149.686 218.329 149.565 219.313 150.402C219.809 150.827 231.491 161.255 231.491 200.717C231.491 202.031 230.435 203.093 229.136 203.093H216.359C215.994 203.093 215.646 203.008 215.338 202.861L214.651 207.39C214.473 208.548 213.484 209.406 212.321 209.406H212.324ZM188.277 201.94C186.977 201.94 185.921 200.877 185.921 199.563V199.034C185.921 197.72 186.977 196.657 188.277 196.657C189.577 196.657 190.633 197.72 190.633 199.034V199.563C190.633 200.877 189.577 201.94 188.277 201.94Z" fill="#144A8F"/>
<path d="M172.782 158.989L165.152 177.123L163.861 194.965H181.555L185.002 193.007L194.981 193.355L195.135 198.123H213.678L215.013 193.355H229.014C229.014 193.355 225.095 158.539 218.413 153.885C192.982 171.317 172.782 158.989 172.782 158.989Z" fill="white"/>
<path d="M218.753 179.328L219.783 192.597H214.871L218.753 179.328Z" fill="#2494D1"/>
<path d="M170.151 163.998C170.151 163.998 185.538 173.266 203.992 163.998C218.729 156.593 172.782 158.992 172.782 158.992L170.151 163.998Z" fill="#2494D1"/>
<path d="M229.138 200.719H214.103L215.013 193.358H229.014C229.014 193.358 229.164 198.323 229.138 200.719Z" fill="#EB2126"/>
<path d="M229.138 203.096H214.099C213.424 203.096 212.779 202.806 212.333 202.294C211.886 201.781 211.677 201.103 211.761 200.427L212.672 193.066C212.82 191.874 213.821 190.982 215.011 190.982H229.011C230.284 190.982 231.329 192.003 231.366 193.286C231.366 193.286 231.517 198.316 231.491 200.745C231.477 202.048 230.426 203.096 229.136 203.096H229.138ZM216.771 198.343H226.771C226.756 197.459 226.74 196.54 226.719 195.735H217.094L216.771 198.343Z" fill="#144A8F"/>
<path d="M224.009 155.709C224.009 155.709 234.427 141.819 250.763 145.684C267.099 149.557 271.37 139.778 271.37 139.778C271.37 139.778 263.253 169.76 242.483 161.492C242.483 161.492 245.671 164.194 248.619 166.798C242.379 171.317 236.722 173.998 225.526 167.205" fill="#2494D1"/>
<path d="M222.606 158.074C222.606 158.074 233.136 142.465 246.537 145.641C259.94 148.817 267.978 145.445 267.978 145.445C267.978 145.445 258.672 164.679 243.809 155.791C241.222 153.921 237.755 154.336 236.061 156.719C234.369 159.104 235.091 162.552 237.682 164.422C233.766 166.02 228.55 163.98 225.753 162.101" fill="white"/>
<path d="M177.096 161.006C177.096 161.006 178.729 156.76 172.782 158.989C166.832 161.217 162.997 195.059 162.997 195.059H165.666C167.128 195.059 170.064 194.781 169.962 193.309C169.962 193.309 170.151 183.305 170.836 177.733C172.217 172.608 177.096 161.004 177.096 161.004" fill="#2494D1"/>
<path d="M248.648 81.0383C248.648 113.358 223.116 163.997 191.619 163.997C160.122 163.997 134.593 113.358 134.593 81.0383C134.593 48.7185 160.125 35.7676 191.619 35.7676C223.113 35.7676 248.648 48.7185 248.648 81.0383Z" fill="white"/>
<path d="M191.619 166.374C158.84 166.374 132.237 114.737 132.237 81.0383C132.237 50.7584 153.882 33.3882 191.619 33.3882C229.356 33.3882 251.004 50.7556 251.004 81.0383C251.004 114.737 224.398 166.374 191.619 166.374ZM191.619 38.1442C175.181 38.1442 136.948 42.3236 136.948 81.0383C136.948 112.124 161.967 161.62 191.619 161.62C221.271 161.62 246.293 112.124 246.293 81.0383C246.293 42.3236 208.059 38.1442 191.619 38.1442Z" fill="#144A8F"/>
<path d="M142.768 75.6475C142.768 75.6475 137.16 76.549 134.407 75.3988C130.699 73.8447 136.716 69.1765 136.716 69.1765L142.768 75.6475Z" fill="#2494D1"/>
<path d="M205.335 69.6155C205.335 76.8212 200.638 79.2271 191.781 82.6219C181.761 82.6219 161.514 76.8212 161.514 69.6155C161.514 62.4099 183.615 56.5652 193.638 56.5652C203.661 56.5652 205.335 62.407 205.335 69.6155Z" fill="#2494D1"/>
<path d="M200.232 134.487C200.232 134.487 197.117 121.405 206.879 116.988C205.028 122.025 201.222 132.951 203.606 136.811C205.988 140.671 200.232 134.487 200.232 134.487Z" fill="#2494D1"/>
<path d="M191.619 166.374C158.84 166.374 132.237 114.737 132.237 81.0383C132.237 50.7584 153.882 33.3882 191.619 33.3882C229.356 33.3882 251.004 50.7556 251.004 81.0383C251.004 114.737 224.398 166.374 191.619 166.374ZM191.619 38.1442C175.181 38.1442 136.948 42.3236 136.948 81.0383C136.948 112.124 161.967 161.62 191.619 161.62C221.271 161.62 246.293 112.124 246.293 81.0383C246.293 42.3236 208.059 38.1442 191.619 38.1442Z" fill="#144A8F"/>
<path d="M173.371 92.3445C173.371 92.3445 176.557 106.062 197.859 108.094C199.287 108.231 200.131 106.46 199.362 105.24C198.361 103.642 195.164 101.046 195.115 98.9209C199.843 99.4744 207.514 101.784 211.546 99.5825C212.782 98.9093 212.707 97.098 211.427 96.5151C208.811 95.3269 208.941 90.8783 207.734 88.6069" fill="#2494D1"/>
<path d="M174.004 87.9954C174.004 87.9954 175.837 103.089 202.365 101.14C200.789 99.0791 199.115 96.8726 199.046 93.8693C204.311 94.4838 210.96 94.6274 214.311 90.6675C211.184 90.1116 207.682 87.6827 206.226 84.9458" fill="white"/>
<path d="M197.763 103.692C173.827 103.692 171.747 88.9497 171.665 88.2857C171.509 86.9802 172.425 85.7951 173.716 85.6368C174.993 85.467 176.171 86.3919 176.339 87.6859C176.417 88.2178 178.242 98.9386 197.769 98.9386C197.859 98.9386 197.949 98.9386 198.042 98.9386C197.291 97.5018 196.734 95.8573 196.69 93.928C196.673 93.2408 196.954 92.5792 197.459 92.1167C197.964 91.6512 198.631 91.4373 199.318 91.5106C203.566 92.0086 206.838 91.8974 209.197 91.1686C207.052 89.8631 205.196 88.0395 204.149 86.073C203.534 84.9165 203.963 83.4743 205.112 82.8535C206.255 82.2328 207.685 82.6659 208.303 83.8248C209.391 85.8738 212.269 87.8959 214.717 88.3298C215.55 88.4788 216.241 89.064 216.525 89.8662C216.812 90.6706 216.65 91.5631 216.101 92.2132C212.73 96.1994 207.053 96.7908 202.109 96.5244C202.646 97.6161 203.426 98.6344 204.23 99.6883C204.758 100.382 204.868 101.313 204.512 102.112C204.157 102.91 203.397 103.449 202.533 103.511C200.853 103.637 199.26 103.692 197.761 103.692H197.763Z" fill="#144A8F"/>
<path d="M209.237 66.9727C209.237 71.6701 201.352 80.3242 191.619 80.3242C181.886 80.3242 174.001 71.6701 174.001 66.9727C174.001 62.2753 181.056 2.38232 190.786 2.38232C200.517 2.38232 209.237 62.2753 209.237 66.9727Z" fill="white"/>
<path d="M191.622 82.7014C180.789 82.7014 171.648 73.0398 171.648 66.9698C171.648 66.2995 177.601 0 190.789 0C203.977 0 211.598 66.2995 211.598 66.9698C211.598 73.0369 202.457 82.7014 191.625 82.7014H191.622ZM190.786 4.75889C184.743 4.75889 176.359 57.6101 176.359 66.9727C176.359 70.1571 182.962 77.9478 191.619 77.9478C200.276 77.9478 206.878 70.1571 206.878 66.9727C206.878 64.8509 204.709 48.7859 201.355 33.4264C195.268 5.54033 190.827 4.75889 190.783 4.75889H190.786Z" fill="#144A8F"/>
<path d="M202.208 151.211C202.454 152.475 200.406 151.146 198.28 151.568C196.153 151.992 194.758 154.009 194.511 152.744C194.265 151.48 195.538 148.858 197.665 148.433C199.791 148.008 201.961 149.943 202.208 151.211Z" fill="#144A8F"/>
<path d="M181.224 151.211C180.978 152.475 183.026 151.146 185.153 151.568C187.279 151.992 188.674 154.009 188.921 152.744C189.168 151.48 187.894 148.858 185.768 148.433C183.641 148.008 181.471 149.943 181.224 151.211Z" fill="#144A8F"/>
<path d="M158.808 47.5421C158.808 47.5421 144.88 40.5881 132.002 41.4222C127.43 54.7741 132.672 68.1318 142.6 73.3355" fill="white"/>
<path d="M142.597 75.7121C142.228 75.7121 141.857 75.6243 141.512 75.4428C130.079 69.4488 125.034 54.4902 129.774 40.6438C130.084 39.7365 130.902 39.1072 131.851 39.0487C145.219 38.1531 159.26 45.1159 159.852 45.4115C161.018 45.9938 161.494 47.4192 160.917 48.5958C160.34 49.7723 158.921 50.2523 157.761 49.6757C157.633 49.6143 145.376 43.6027 133.751 43.7344C130.612 54.9146 134.72 66.5279 143.685 71.2283C144.839 71.8341 145.289 73.2682 144.688 74.4331C144.268 75.2467 143.447 75.715 142.597 75.715V75.7121Z" fill="#144A8F"/>
<path d="M136.531 50.3342C136.214 52.3215 136.618 60.6452 143.957 66.4723C144.242 66.6948 144.639 66.4138 144.526 66.0713C143.925 64.21 143.696 63.0627 143.624 62.0763C143.595 61.7193 143.989 61.491 144.285 61.6929C144.958 62.1524 145.782 62.4715 147.383 62.1349C147.897 62.0295 148.155 61.4383 147.894 60.9788C147.616 60.493 147.267 59.9252 147.157 59.1818C147.088 58.7223 147.462 58.3155 147.92 58.3301C150.717 58.4297 152.901 58.7809 154.645 57.5165" fill="#2494D1"/>
<path d="M153.664 55.743C153.664 55.743 146.742 52.2864 138.483 50.8699L153.664 55.743Z" fill="white"/>
<path d="M153.661 58.1223C153.31 58.1223 152.956 58.0432 152.62 57.8764C152.553 57.8442 145.884 54.5546 138.088 53.217C136.806 52.9975 135.942 51.7683 136.159 50.4746C136.377 49.1781 137.613 48.3265 138.877 48.5284C147.381 49.9859 154.413 53.4658 154.709 53.6151C155.875 54.1975 156.351 55.6199 155.776 56.7993C155.367 57.6393 154.532 58.1252 153.661 58.1252V58.1223Z" fill="#144A8F"/>
<path d="M224.433 47.5421C224.433 47.5421 238.361 40.5881 251.239 41.4222C255.811 54.7741 250.569 68.1318 240.642 73.3355" fill="white"/>
<path d="M240.644 75.7121C239.794 75.7121 238.97 75.2438 238.553 74.4302C237.952 73.2653 238.402 71.8312 239.556 71.2254C248.518 66.525 252.628 54.9117 249.49 43.7315C237.804 43.5413 225.605 49.6084 225.478 49.6728C224.311 50.2523 222.898 49.7694 222.321 48.5928C221.743 47.4163 222.223 45.991 223.388 45.4086C223.98 45.1129 238.036 38.1795 251.39 39.0458C252.338 39.1073 253.156 39.7366 253.467 40.6409C258.208 54.4844 253.159 69.4459 241.726 75.4399C241.381 75.6214 241.01 75.7092 240.642 75.7092L240.644 75.7121Z" fill="#144A8F"/>
<path d="M246.71 50.3342C247.027 52.3215 246.623 60.6452 239.283 66.4723C239 66.6948 238.602 66.4138 238.715 66.0713C239.315 64.21 239.545 63.0627 239.617 62.0763C239.646 61.7193 239.252 61.491 238.956 61.6929C238.283 62.1524 237.459 62.4715 235.857 62.1349C235.344 62.0295 235.086 61.4383 235.347 60.9788C235.626 60.493 235.974 59.9252 236.084 59.1818C236.153 58.7223 235.779 58.3155 235.321 58.3301C232.525 58.4297 230.34 58.7809 228.596 57.5165" fill="#2494D1"/>
<path d="M229.579 55.743C229.579 55.743 236.502 52.2864 244.761 50.8699L229.579 55.743Z" fill="white"/>
<path d="M229.582 58.1224C228.715 58.1224 227.879 57.6365 227.467 56.7966C226.89 55.6201 227.369 54.1947 228.535 53.6123C228.831 53.463 235.863 49.986 244.367 48.5256C245.629 48.312 246.867 49.1754 247.085 50.4719C247.303 51.7655 246.438 52.9947 245.155 53.2142C237.357 54.5518 230.688 57.8385 230.621 57.8736C230.285 58.0405 229.931 58.1194 229.579 58.1194L229.582 58.1224Z" fill="#144A8F"/>
<path d="M238.274 130.135C232.275 143.229 220.462 150.605 211.889 146.609C203.313 142.612 201.227 128.753 207.227 115.659C213.229 102.565 225.043 95.1895 233.615 99.1849C242.187 103.186 244.273 117.04 238.274 130.135Z" fill="white"/>
<path d="M216.916 150.084C214.813 150.084 212.788 149.647 210.9 148.766C206.011 146.487 202.765 141.564 201.761 134.903C200.812 128.604 201.993 121.413 205.086 114.662C211.622 100.396 224.874 92.488 234.601 97.0277C244.34 101.57 246.948 116.871 240.412 131.133C237.317 137.885 232.658 143.449 227.285 146.803C223.797 148.977 220.258 150.084 216.913 150.084H216.916ZM228.657 100.493C221.889 100.493 213.807 106.967 209.365 116.657C206.655 122.572 205.608 128.8 206.42 134.188C207.177 139.22 209.47 142.863 212.875 144.45C216.281 146.042 220.517 145.439 224.804 142.761C229.4 139.89 233.423 135.052 236.133 129.137C241.486 117.456 239.878 104.728 232.623 101.344C231.384 100.768 230.046 100.493 228.654 100.493H228.657Z" fill="#144A8F"/>
<path d="M144.967 130.135C150.966 143.229 162.779 150.605 171.352 146.609C179.928 142.612 182.014 128.753 176.014 115.659C170.012 102.565 158.199 95.1895 149.626 99.1849C141.053 103.186 138.967 117.04 144.967 130.135Z" fill="white"/>
<path d="M166.325 150.084C162.98 150.084 159.44 148.98 155.953 146.803C150.583 143.449 145.918 137.885 142.826 131.133C136.29 116.871 138.895 101.57 148.637 97.0277C158.381 92.4911 171.619 100.399 178.155 114.662C181.248 121.413 182.428 128.604 181.48 134.903C180.476 141.564 177.23 146.49 172.341 148.766C170.453 149.647 168.428 150.084 166.325 150.084ZM154.584 100.493C153.191 100.493 151.854 100.768 150.615 101.344C143.363 104.728 141.755 117.456 147.108 129.137C149.817 135.052 153.841 139.89 158.437 142.761C162.727 145.433 166.96 146.039 170.366 144.45C173.772 142.863 176.066 139.219 176.824 134.188C177.636 128.797 176.589 122.572 173.879 116.657C169.44 106.97 161.355 100.493 154.587 100.493H154.584Z" fill="#144A8F"/>
<path d="M144.967 130.135C150.966 143.229 162.779 150.605 171.352 146.609C179.928 142.612 182.014 128.753 176.014 115.659C170.012 102.565 158.199 95.1895 149.626 99.1849C141.053 103.186 138.967 117.04 144.967 130.135Z" fill="white"/>
<path d="M166.325 150.084C162.98 150.084 159.44 148.98 155.953 146.803C150.583 143.449 145.918 137.885 142.826 131.133C136.29 116.871 138.895 101.57 148.637 97.0277C158.381 92.4911 171.619 100.399 178.155 114.662C181.248 121.413 182.428 128.604 181.48 134.903C180.476 141.564 177.23 146.49 172.341 148.766C170.453 149.647 168.428 150.084 166.325 150.084ZM154.584 100.493C153.191 100.493 151.854 100.768 150.615 101.344C143.363 104.728 141.755 117.456 147.108 129.137C149.817 135.052 153.841 139.89 158.437 142.761C162.727 145.433 166.96 146.039 170.366 144.45C173.772 142.863 176.066 139.219 176.824 134.188C177.636 128.797 176.589 122.572 173.879 116.657C169.44 106.97 161.355 100.493 154.587 100.493H154.584Z" fill="#144A8F"/>
<path d="M176.85 119.83C175.939 121.951 173.856 123.441 171.419 123.441C168.146 123.441 165.495 120.766 165.495 117.468C165.495 115.504 166.446 113.777 167.897 112.688C167.659 112.671 167.433 112.615 167.189 112.615C161.576 112.615 157.024 117.207 157.024 122.871C157.024 128.534 161.576 133.126 167.189 133.126C172.803 133.126 177.354 128.534 177.354 122.871C177.354 121.805 177.149 120.799 176.85 119.833V119.83Z" fill="#144A8F"/>
<path d="M179.307 145.705C176.264 149.533 176.591 155.085 180.11 158.471C182.588 160.857 188.013 162.264 190.792 162.511C190.792 162.511 170.531 161.161 163.705 151.082C166.632 148.008 174.308 143.829 176.62 140.882C178.935 137.929 183.766 132.21 186.995 135.076" fill="#2494D1"/>
<path d="M183.775 134.317C183.775 134.317 187.645 112.074 170.836 105.708C174.453 113.944 181.956 131.853 178.361 138.567C174.77 145.284 183.772 134.317 183.772 134.317" fill="#2494D1"/>
<path d="M191.613 166.374C180.311 166.374 168.944 160.275 158.738 148.732C158.553 148.521 158.41 148.287 158.312 148.041C152.243 145.105 146.487 139.114 142.829 131.133C136.295 116.865 138.901 101.564 148.64 97.0245C153.528 94.7447 159.35 95.4387 165.028 98.9856C170.4 102.339 175.063 107.904 178.155 114.655C181.19 121.282 182.254 128.13 181.546 134.025C187.328 128.578 196.429 128.695 202.071 134.388L210.464 142.805C211.387 143.729 211.393 145.237 210.473 146.168C209.556 147.099 208.062 147.101 207.14 146.176L198.744 137.753C194.813 133.788 188.428 133.793 184.506 137.748L176.295 145.998C176.223 146.071 176.142 146.141 176.063 146.203C174.973 147.251 173.731 148.114 172.344 148.764C170.525 149.609 168.587 150.025 166.591 150.046C172.956 156.028 181.584 161.618 191.613 161.618C192.913 161.618 193.969 162.68 193.969 163.994C193.969 165.309 192.913 166.371 191.613 166.371V166.374ZM147.108 129.14C152.556 141.023 162.977 147.895 170.369 144.453C177.621 141.067 179.228 128.338 173.876 116.657C171.166 110.742 167.143 105.905 162.547 103.033C158.257 100.355 154.018 99.7584 150.615 101.344C143.362 104.725 141.755 117.456 147.105 129.14H147.108Z" fill="#144A8F"/>
<path d="M237.056 172.941C233.136 172.941 229.028 171.946 224.886 169.95C223.711 169.385 223.212 167.966 223.774 166.781C224.335 165.595 225.747 165.092 226.916 165.662C233.249 168.713 239.426 168.964 244.616 166.444C242.608 164.706 240.972 163.315 240.967 163.312C240.081 162.563 239.867 161.279 240.458 160.277C241.048 159.277 242.266 158.855 243.348 159.282C247.769 161.045 251.709 160.997 255.393 159.136C260.047 156.791 263.426 151.957 265.666 147.631C262.109 149.03 257.114 149.63 250.226 148.003C235.582 144.532 224.563 158.305 224.453 158.442C223.647 159.473 222.162 159.645 221.143 158.834C220.122 158.021 219.948 156.531 220.751 155.498C221.274 154.831 233.699 139.205 251.303 143.372C265.352 146.691 269.072 139.117 269.226 138.795C269.748 137.68 271.033 137.139 272.179 137.563C273.325 137.99 273.966 139.216 273.644 140.407C273.456 141.11 268.863 157.649 257.514 163.38C255.251 164.524 252.89 165.162 250.444 165.291C250.81 165.742 251.001 166.319 250.972 166.909C250.937 167.633 250.577 168.303 249.992 168.727C246.122 171.531 241.72 172.941 237.053 172.941H237.056Z" fill="#144A8F"/>
<path d="M183.159 196.686H163.859V204.746H183.159V196.686Z" fill="#EB2126"/>
<path d="M213.067 200.304H193.769V208.364H213.067V200.304Z" fill="#EB2126"/>
<path d="M203.096 209.409C201.796 209.409 200.74 208.346 200.74 207.032V203.742C200.74 202.428 201.796 201.366 203.096 201.366C204.395 201.366 205.451 202.428 205.451 203.742V207.032C205.451 208.346 204.395 209.409 203.096 209.409Z" fill="#144A8F"/>
<path d="M164.192 195.814C164.192 195.814 166.861 195.8 168.912 195.697C169.562 195.664 170.026 196.545 169.78 197.354C168.828 200.482 169.649 203.014 168.927 203.988C168.068 205.142 163.258 203.362 163.258 203.362L164.195 195.814H164.192Z" fill="#A62126"/>
<path d="M193.484 199.763C193.484 199.763 196.133 199.411 198.152 199.048C198.793 198.934 199.365 199.748 199.22 200.579C198.666 203.804 199.797 206.213 199.197 207.272C198.486 208.525 193.496 207.369 193.496 207.369L193.484 199.759V199.763Z" fill="#A62126"/>
<path d="M182.814 63.9639C182.814 63.9639 192.69 72.3461 199.443 70.5052C203.528 69.3901 199.214 78.252 183.383 76.025C166.905 73.7071 175.446 56.7437 175.446 56.7437L182.811 63.9639H182.814Z" fill="#EB2126"/>
<path d="M184.976 46.5998C186.107 49.2982 194.72 53.3869 200.711 53.0415C201.526 52.9946 202.28 53.4922 202.518 54.2766C203.954 58.9593 204.001 64.3475 202.797 66.5133C201.648 68.5854 175.335 63.7036 175.225 52.5264C175.115 41.3491 179.548 41.1267 179.548 41.1267L184.976 46.6026V46.5998Z" fill="#EB2126"/>
<path d="M185.15 27.9093C186.037 30.4848 192.771 34.5823 197.305 34.995C198.399 35.0916 199.321 35.8408 199.672 36.8886C200.847 40.389 201.201 44.1704 201.761 47.5537C202.112 49.6726 177.233 45.0132 177.14 33.833C177.05 22.6558 180.691 22.4333 180.691 22.4333L185.153 27.9093H185.15Z" fill="#EB2126"/>
<path d="M199.936 68.7521C192.411 68.7521 185.663 65.5678 183.191 64.2507C178.602 61.8011 173.528 57.8879 173.043 54.2559C172.872 52.9535 173.777 51.7565 175.065 51.5838C176.356 51.4053 177.543 52.3243 177.714 53.6237C177.874 54.5574 180.554 57.5924 186.02 60.3728C189.005 61.8918 199.408 66.5101 207.949 62.1962C209.116 61.6079 210.528 62.082 211.111 63.2585C211.695 64.4322 211.225 65.8605 210.058 66.4487C206.734 68.1287 203.255 68.7521 199.931 68.7521H199.936ZM198.558 50.8931C194.015 50.8931 189.072 49.5936 184.294 47.0444C180.319 44.9225 175.918 41.51 175.492 38.2905C175.318 36.9881 176.226 35.7911 177.514 35.6184C178.816 35.4515 179.977 36.3471 180.16 37.6378C180.377 38.4369 182.95 41.2729 188.117 43.6465C191.146 45.0396 198.88 47.9254 205.315 44.665C206.481 44.0796 207.894 44.5508 208.477 45.7273C209.061 46.901 208.59 48.3292 207.424 48.9175C204.801 50.2404 201.778 50.896 198.555 50.896L198.558 50.8931Z" fill="#144A8F"/>
<path d="M197.32 24.5409C197.563 25.5594 196.96 26.5926 195.956 26.8677C194.836 27.175 193.218 27.8628 190.264 27.9359C183.569 28.0969 180.859 19.8932 180.859 19.8932C180.859 19.8932 183.473 4.14733 189.35 4.30538C191.346 4.36099 195.808 18.1986 197.32 24.5409Z" fill="#EB2126"/>
<path d="M191.622 82.7014C180.789 82.7014 171.648 73.0399 171.648 66.9698C171.648 66.56 173.879 41.592 178.625 22.2638C178.648 22.0414 178.703 21.8247 178.785 21.6228C181.779 9.65244 185.759 0.00292969 190.786 0.00292969C204.137 0.00292969 211.596 66.3025 211.596 66.9727C211.596 73.0399 202.454 82.7037 191.622 82.7037V82.7014ZM182.254 27.7631C178.933 43.2602 176.362 61.7866 176.362 66.9727C176.362 70.1571 182.965 77.9478 191.622 77.9478C200.279 77.9478 206.881 70.1571 206.881 66.9727C206.881 64.8509 204.711 48.7859 201.358 33.4264C201.285 33.0898 201.213 32.7591 201.14 32.4313C196.539 33.6429 190.963 32.7854 185.66 29.9553C184.978 29.5923 183.609 28.8109 182.254 27.766V27.7631ZM183.464 22.3984C184.146 23.3291 186.481 25.3661 190.226 26.8441C192.425 27.7134 196.374 28.8577 200.067 27.807C194.651 5.42912 190.827 4.75889 190.786 4.75889C188.489 4.75889 185.852 12.4065 183.464 22.3984Z" fill="#144A8F"/>
<path d="M225.695 119.777C224.799 121.928 222.69 123.441 220.232 123.441C216.96 123.441 214.308 120.766 214.308 117.468C214.308 115.501 215.263 113.771 216.716 112.683C216.493 112.668 216.281 112.615 216.052 112.615C210.438 112.615 205.887 117.207 205.887 122.871C205.887 128.534 210.438 133.126 216.052 133.126C221.665 133.126 226.217 128.534 226.217 122.871C226.217 121.784 226.006 120.76 225.695 119.779V119.777Z" fill="#144A8F"/>
<path d="M191.717 172.236L191.923 171.727C193.992 171.326 197.029 172.713 197.859 174.668L200.508 182.459C200.865 183.51 200.914 184.642 200.647 185.726L197.583 198.129L196.432 183.992L191.717 172.242V172.236Z" fill="#2494D1"/>
<path d="M173.058 206.757C171.758 206.757 170.702 205.694 170.702 204.38V201.456C170.702 200.142 171.758 199.08 173.058 199.08C174.358 199.08 175.414 200.142 175.414 201.456V204.38C175.414 205.694 174.358 206.757 173.058 206.757ZM181.558 197.344H163.861C162.562 197.344 161.506 196.282 161.506 194.968C161.506 193.654 162.562 192.592 163.861 192.592H181.558C182.858 192.592 183.914 193.654 183.914 194.968C183.914 196.282 182.858 197.344 181.558 197.344Z" fill="#144A8F"/>
<path d="M211.935 200.5H195.132C193.833 200.5 192.777 199.438 192.777 198.123C192.777 196.809 193.833 195.747 195.132 195.747H211.935C213.235 195.747 214.291 196.809 214.291 198.123C214.291 199.438 213.235 200.5 211.935 200.5Z" fill="#144A8F"/>
<path d="M193.194 175.277C195.359 177.46 199.127 183.498 197.572 185.064C196.02 186.63 191.1 185.216 188.93 183.03C186.766 180.844 186.069 177.899 187.624 176.334C190.816 177.662 191.027 173.091 193.192 175.274" fill="#2494D1"/>
<path d="M181.341 207.126H163.334C162.681 207.126 162.06 206.854 161.613 206.374C161.169 205.893 160.94 205.246 160.984 204.591L162.803 176.966C162.817 176.734 162.866 176.503 162.948 176.287L170.105 157.041C170.563 155.814 171.929 155.191 173.139 155.65C174.358 156.113 174.976 157.482 174.517 158.711L167.485 177.627L165.857 202.37H179.04L179.379 187.014C179.385 186.697 179.455 186.387 179.582 186.1L183.688 176.796C184.216 175.593 185.605 175.057 186.8 175.59C187.99 176.123 188.524 177.53 187.996 178.731L184.082 187.599L183.702 204.802C183.673 206.093 182.629 207.126 181.346 207.126H181.341Z" fill="#144A8F"/>
<path d="M194.976 193.358H182.803V200.719H194.976V193.358Z" fill="#EB2126"/>
<path d="M194.978 203.096H182.806C181.506 203.096 180.45 202.033 180.45 200.719V193.358C180.45 192.044 181.506 190.982 182.806 190.982H194.978C196.278 190.982 197.334 192.044 197.334 193.358V200.719C197.334 202.033 196.278 203.096 194.978 203.096ZM185.161 198.343H192.623V195.735H185.161V198.343Z" fill="#144A8F"/>
<path d="M212.324 209.406H194.314C193.653 209.406 193.017 209.125 192.573 208.63C192.13 208.135 191.906 207.475 191.967 206.81L194.027 184.379L189.931 174.917C189.408 173.714 189.954 172.315 191.146 171.788C192.338 171.256 193.728 171.812 194.25 173.014L198.587 183.036C198.747 183.402 198.811 183.805 198.773 184.204L196.896 204.65H210.296L214.184 179.047C214.381 177.75 215.576 176.884 216.87 177.056C218.155 177.258 219.037 178.47 218.843 179.77L216.02 198.363C216.13 198.349 216.244 198.34 216.359 198.34H219.365C219.658 197.365 220.557 196.657 221.619 196.657C222.681 196.657 223.58 197.365 223.873 198.34H226.763C226.328 163.497 216.348 154.105 216.244 154.011C215.283 153.145 215.176 151.649 216.023 150.669C216.867 149.686 218.329 149.565 219.313 150.402C219.809 150.827 231.491 161.255 231.491 200.717C231.491 202.031 230.435 203.093 229.136 203.093H216.359C215.994 203.093 215.646 203.008 215.338 202.861L214.651 207.39C214.473 208.548 213.484 209.406 212.321 209.406H212.324ZM188.277 201.94C186.977 201.94 185.921 200.877 185.921 199.563V199.034C185.921 197.72 186.977 196.657 188.277 196.657C189.577 196.657 190.633 197.72 190.633 199.034V199.563C190.633 200.877 189.577 201.94 188.277 201.94Z" fill="#144A8F"/>
</g>
<defs>
<radialGradient id="paint0_radial_345_5660" cx="0" cy="0" r="1" gradientUnits="userSpaceOnUse" gradientTransform="translate(153.743 290.854) scale(13.0298 13.051)">
<stop stop-color="#42E8E0"/>
<stop offset="0.02" stop-color="#3FD8D6"/>
<stop offset="0.1" stop-color="#35A9B9"/>
<stop offset="0.18" stop-color="#2D7FA0"/>
<stop offset="0.26" stop-color="#275B8A"/>
<stop offset="0.35" stop-color="#213F79"/>
<stop offset="0.44" stop-color="#1D286B"/>
<stop offset="0.54" stop-color="#1A1962"/>
<stop offset="0.66" stop-color="#180F5C"/>
<stop offset="0.82" stop-color="#180D5B"/>
</radialGradient>
<linearGradient id="paint1_linear_345_5660" x1="-36.7538" y1="321.126" x2="287.348" y2="321.126" gradientUnits="userSpaceOnUse">
<stop stop-color="#36EBFF"/>
<stop offset="0.1" stop-color="#3CC9CD"/>
<stop offset="0.34" stop-color="#2F87A5"/>
<stop offset="0.56" stop-color="#255285"/>
<stop offset="0.75" stop-color="#1E2C6E"/>
<stop offset="0.91" stop-color="#191560"/>
<stop offset="1" stop-color="#180D5B"/>
</linearGradient>
<linearGradient id="paint2_linear_345_5660" x1="196.919" y1="321.118" x2="359.008" y2="321.118" gradientUnits="userSpaceOnUse">
<stop stop-color="#2B237C"/>
<stop offset="1" stop-color="#180D5B"/>
</linearGradient>
<linearGradient id="paint3_linear_345_5660" x1="34.8715" y1="285.289" x2="359.026" y2="285.289" gradientUnits="userSpaceOnUse">
<stop stop-color="#36EBFF"/>
<stop offset="0.1" stop-color="#3CC9CD"/>
<stop offset="0.34" stop-color="#2F87A5"/>
<stop offset="0.56" stop-color="#255285"/>
<stop offset="0.75" stop-color="#1E2C6E"/>
<stop offset="0.91" stop-color="#191560"/>
<stop offset="1" stop-color="#180D5B"/>
</linearGradient>
<linearGradient id="paint4_linear_345_5660" x1="34.8869" y1="285.281" x2="200.33" y2="285.281" gradientUnits="userSpaceOnUse">
<stop stop-color="#36EBFF"/>
<stop offset="0.1" stop-color="#3CC9CD"/>
<stop offset="0.34" stop-color="#2F87A5"/>
<stop offset="0.56" stop-color="#255285"/>
<stop offset="0.75" stop-color="#1E2C6E"/>
<stop offset="0.91" stop-color="#191560"/>
<stop offset="1" stop-color="#180D5B"/>
</linearGradient>
<linearGradient id="paint5_linear_345_5660" x1="78.9866" y1="379.767" x2="350.585" y2="202.521" gradientUnits="userSpaceOnUse">
<stop stop-color="#36EBFF"/>
<stop offset="0.1" stop-color="#3CC9CD"/>
<stop offset="0.34" stop-color="#2F87A5"/>
<stop offset="0.56" stop-color="#255285"/>
<stop offset="0.75" stop-color="#1E2C6E"/>
<stop offset="0.91" stop-color="#191560"/>
<stop offset="1" stop-color="#180D5B"/>
</linearGradient>
<linearGradient id="paint6_linear_345_5660" x1="1.99998" y1="222.998" x2="3.44821" y2="222.998" gradientUnits="userSpaceOnUse">
<stop stop-color="#36EBFF"/>
<stop offset="0.1" stop-color="#3CC9CD"/>
<stop offset="0.34" stop-color="#2F87A5"/>
<stop offset="0.56" stop-color="#255285"/>
<stop offset="0.75" stop-color="#1E2C6E"/>
<stop offset="0.91" stop-color="#191560"/>
<stop offset="1" stop-color="#180D5B"/>
</linearGradient>
<linearGradient id="paint7_linear_345_5660" x1="1.99995" y1="222.99" x2="3.44816" y2="222.99" gradientUnits="userSpaceOnUse">
<stop stop-color="#2B237C"/>
<stop offset="1" stop-color="#180D5B"/>
</linearGradient>
<linearGradient id="paint8_linear_345_5660" x1="34.8715" y1="187.152" x2="359.086" y2="187.152" gradientUnits="userSpaceOnUse">
<stop stop-color="#36EBFF"/>
<stop offset="0.1" stop-color="#3CC9CD"/>
<stop offset="0.34" stop-color="#2F87A5"/>
<stop offset="0.56" stop-color="#255285"/>
<stop offset="0.75" stop-color="#1E2C6E"/>
<stop offset="0.91" stop-color="#191560"/>
<stop offset="1" stop-color="#180D5B"/>
</linearGradient>
<linearGradient id="paint9_linear_345_5660" x1="34.8869" y1="187.153" x2="200.39" y2="187.153" gradientUnits="userSpaceOnUse">
<stop stop-color="#36EBFF"/>
<stop offset="0.1" stop-color="#3CC9CD"/>
<stop offset="0.34" stop-color="#2F87A5"/>
<stop offset="0.56" stop-color="#255285"/>
<stop offset="0.75" stop-color="#1E2C6E"/>
<stop offset="0.91" stop-color="#191560"/>
<stop offset="1" stop-color="#180D5B"/>
</linearGradient>
<linearGradient id="paint10_linear_345_5660" x1="78.9826" y1="281.616" x2="350.581" y2="104.385" gradientUnits="userSpaceOnUse">
<stop stop-color="#36EBFF"/>
<stop offset="0.1" stop-color="#3CC9CD"/>
<stop offset="0.34" stop-color="#2F87A5"/>
<stop offset="0.56" stop-color="#255285"/>
<stop offset="0.75" stop-color="#1E2C6E"/>
<stop offset="0.91" stop-color="#191560"/>
<stop offset="1" stop-color="#180D5B"/>
</linearGradient>
<clipPath id="clip0_345_5660">
<rect width="146" height="210" fill="white" transform="translate(128)"/>
</clipPath>
</defs>
</svg>
